<svg width="29" height="35" viewBox="0 0 29 35" fill="none" xmlns="http://www.w3.org/2000/svg">
<path d="M2.34541 6.55811C1.8272 6.36714 1.25228 6.63241 1.06131 7.15063C0.870329 7.66884 1.13561 8.24376 1.65382 8.43473L2.34541 6.55811ZM12.289 11.2884L13.2827 11.3999C13.3341 10.9426 13.0666 10.5092 12.6348 10.35L12.289 11.2884ZM10.9582 23.1407L9.9644 23.0292C9.90834 23.5285 10.2315 23.9919 10.7195 24.1118L10.9582 23.1407ZM28.1797 27.3736L19.8468 19.3801L17.0907 30.5934L28.1797 27.3736ZM1.65382 8.43473L11.9432 12.2267L12.6348 10.35L2.34541 6.55811L1.65382 8.43473ZM11.2952 11.1768L9.9644 23.0292L11.9519 23.2523L13.2827 11.3999L11.2952 11.1768ZM10.7195 24.1118L19.2012 26.1965L19.6786 24.2543L11.1968 22.1696L10.7195 24.1118Z" fill="#F35142"/>
</svg>
