<svg width="383" height="291" viewBox="0 0 383 291" fill="none" xmlns="http://www.w3.org/2000/svg">
<path d="M184.278 211.548L194.149 218.209C194.597 218.512 194.907 218.979 195.009 219.509C195.112 220.039 194.999 220.588 194.695 221.035L186.867 232.568L173.615 223.626L181.444 212.093C181.747 211.646 182.216 211.338 182.748 211.235C183.279 211.133 183.83 211.246 184.278 211.548Z" fill="#FC543D"/>
<path d="M184.728 224.772C186.548 224.772 188.024 223.3 188.024 221.486C188.024 219.671 186.548 218.199 184.728 218.199C182.907 218.199 181.432 219.671 181.432 221.486C181.432 223.3 182.907 224.772 184.728 224.772Z" fill="white"/>
<path d="M163.524 284.122C180.916 284.122 195.016 270.064 195.016 252.723C195.016 235.382 180.916 221.324 163.524 221.324C146.131 221.324 132.031 235.382 132.031 252.723C132.031 270.064 146.131 284.122 163.524 284.122Z" fill="#F4D34D"/>
<path d="M194.161 260.337C195.772 254.068 195.402 247.456 193.1 241.404C190.799 235.353 186.679 230.159 181.303 226.532C175.928 222.904 169.559 221.021 163.07 221.14C156.58 221.259 150.285 223.374 145.047 227.195L194.161 260.337Z" fill="#A6B5FF"/>
<path d="M132.455 248.24C131.65 254.047 132.491 259.963 134.885 265.318C137.278 270.673 141.127 275.253 145.997 278.539C150.866 281.825 156.561 283.686 162.436 283.912C168.312 284.137 174.133 282.718 179.242 279.814L132.455 248.24Z" fill="#A6B5FF"/>
<path d="M146.098 246.931C148.514 246.931 150.473 244.978 150.473 242.568C150.473 240.159 148.514 238.206 146.098 238.206C143.682 238.206 141.723 240.159 141.723 242.568C141.723 244.978 143.682 246.931 146.098 246.931Z" fill="white"/>
<path d="M157.711 254.933C160.128 254.933 162.086 252.98 162.086 250.571C162.086 248.162 160.128 246.208 157.711 246.208C155.295 246.208 153.336 248.162 153.336 250.571C153.336 252.98 155.295 254.933 157.711 254.933Z" fill="white"/>
<path d="M169.323 262.939C171.739 262.939 173.698 260.986 173.698 258.577C173.698 256.168 171.739 254.215 169.323 254.215C166.906 254.215 164.947 256.168 164.947 258.577C164.947 260.986 166.906 262.939 169.323 262.939Z" fill="white"/>
<path d="M181.242 270.993C183.659 270.993 185.618 269.04 185.618 266.631C185.618 264.222 183.659 262.269 181.242 262.269C178.826 262.269 176.867 264.222 176.867 266.631C176.867 269.04 178.826 270.993 181.242 270.993Z" fill="white"/>
<path d="M217.629 44.2513L191.853 34.1208C191.274 33.8932 190.642 33.8345 190.03 33.9515C189.419 34.0684 188.853 34.3562 188.399 34.7812C187.945 35.2063 187.622 35.7512 187.467 36.3524C187.312 36.9536 187.331 37.5864 187.523 38.1771L197.459 68.8642C197.644 69.4316 197.98 69.9381 198.431 70.3291C198.883 70.7201 199.433 70.9808 200.022 71.083C200.612 71.1853 201.218 71.1252 201.775 70.9092C202.333 70.6933 202.821 70.3297 203.186 69.8577L219.081 49.3148L217.629 44.2513Z" fill="#FC543D"/>
<path d="M220.709 42.6118L234.821 18.8375C235.138 18.3031 235.6 17.8694 236.155 17.587C236.709 17.3045 237.333 17.185 237.953 17.2422C238.573 17.2995 239.164 17.5313 239.657 17.9105C240.15 18.2897 240.524 18.8007 240.737 19.3841L251.788 49.6828C251.993 50.2438 252.04 50.8499 251.925 51.4357C251.809 52.0216 251.536 52.5648 251.133 53.0069C250.731 53.4489 250.215 53.7728 249.641 53.9437C249.067 54.1146 248.457 54.1259 247.878 53.9764L222.685 47.4966L220.709 42.6118Z" fill="#FC543D"/>
<path d="M222.704 52.1832C225.894 51.0918 227.41 47.1006 226.091 43.2686C224.772 39.4365 221.118 37.2147 217.928 38.306C214.738 39.3973 213.222 43.3885 214.54 47.2206C215.859 51.0527 219.514 53.2745 222.704 52.1832Z" fill="#FC543D"/>
<path d="M209.379 106.662C210.673 103.738 209.857 100.549 207.558 99.5368C205.258 98.5251 202.345 100.075 201.052 102.998C199.758 105.921 200.573 109.111 202.873 110.123C205.172 111.135 208.085 109.585 209.379 106.662Z" fill="#F4D34D"/>
<path d="M222.857 110.627L221.433 105.323C221.154 104.285 221.239 103.182 221.674 102.199L227.942 88.0426C228.692 86.3517 229.1 84.53 229.144 82.6818C229.187 80.8335 228.864 78.9948 228.195 77.2708C227.525 75.5469 226.521 73.9715 225.24 72.6346C223.959 71.2978 222.426 70.2258 220.73 69.4798C219.034 68.7313 217.207 68.3236 215.353 68.28C213.499 68.2364 211.654 68.5578 209.925 69.2258C208.195 69.8938 206.615 70.8952 205.274 72.1728C203.934 73.4503 202.859 74.979 202.111 76.6712L195.73 91.0814C195.337 91.9733 194.631 92.6911 193.744 93.0993L188.572 95.5056C188.366 95.6002 188.192 95.7521 188.071 95.9429C187.95 96.1338 187.887 96.3555 187.889 96.5814C187.891 96.8072 187.958 97.0277 188.083 97.2162C188.208 97.4046 188.385 97.5531 188.593 97.6438L221.233 112.002C221.436 112.095 221.662 112.129 221.884 112.098C222.105 112.068 222.314 111.975 222.484 111.83C222.655 111.686 222.78 111.496 222.846 111.283C222.912 111.07 222.916 110.843 222.857 110.627Z" fill="#F7E8A6"/>
<path d="M220.634 73.9692C223.444 73.9692 225.723 71.6976 225.723 68.8954C225.723 66.0932 223.444 63.8215 220.634 63.8215C217.823 63.8215 215.545 66.0932 215.545 68.8954C215.545 71.6976 217.823 73.9692 220.634 73.9692Z" fill="#F4D34D"/>
<path d="M271.776 85.9048C273.045 83.7417 271.832 80.6802 269.066 79.0667C266.3 77.4532 263.028 77.8987 261.759 80.0617C260.49 82.2248 261.703 85.2863 264.469 86.8998C267.235 88.5133 270.507 88.0678 271.776 85.9048Z" fill="#F4D34D"/>
<path d="M274.535 66.1489L269.091 66.9567C268.019 67.1184 266.923 66.9085 265.988 66.362L252.593 58.5485C250.993 57.6152 249.225 57.0053 247.389 56.7535C245.553 56.5018 243.685 56.613 241.892 57.081C240.099 57.549 238.417 58.3645 236.94 59.4809C235.463 60.5974 234.221 61.993 233.285 63.5879C232.349 65.1828 231.738 66.9459 231.485 68.7765C231.233 70.6071 231.344 72.4693 231.814 74.2569C232.283 76.0445 233.101 77.7224 234.221 79.1948C235.34 80.6672 236.74 81.9053 238.34 82.8383L251.979 90.7928C252.831 91.2826 253.472 92.0666 253.783 92.9963L255.579 98.3933C255.65 98.6082 255.781 98.7982 255.957 98.9403C256.134 99.0824 256.348 99.1706 256.573 99.1942C256.799 99.2178 257.027 99.1759 257.229 99.0734C257.431 98.9709 257.599 98.8123 257.713 98.6167L275.724 67.9021C275.836 67.7109 275.89 67.4924 275.883 67.2716C275.875 67.0508 275.805 66.8366 275.681 66.6536C275.557 66.4706 275.383 66.3262 275.181 66.237C274.978 66.1477 274.754 66.1172 274.535 66.1489Z" fill="#F7E8A6"/>
<path d="M232.696 68.6889C235.507 68.6889 237.785 66.4173 237.785 63.6151C237.785 60.8129 235.507 58.5413 232.696 58.5413C229.886 58.5413 227.607 60.8129 227.607 63.6151C227.607 66.4173 229.886 68.6889 232.696 68.6889Z" fill="#F4D34D"/>
<path d="M294.706 278.924C291.636 278.92 288.57 278.691 285.535 278.236C285.145 278.176 284.772 278.039 284.438 277.832C284.103 277.625 283.813 277.353 283.586 277.032C283.359 276.711 283.199 276.348 283.115 275.965C283.032 275.581 283.027 275.184 283.1 274.798C283.244 274.059 283.669 273.404 284.285 272.969C284.902 272.534 285.663 272.353 286.41 272.464C300.46 274.565 312.269 271.598 321.578 263.626C325.372 260.354 328.547 256.431 330.953 252.042C331.294 251.414 331.854 250.932 332.527 250.687C333.2 250.442 333.94 250.451 334.607 250.711C334.994 250.864 335.345 251.096 335.635 251.393C335.926 251.691 336.149 252.046 336.291 252.436C336.433 252.826 336.491 253.242 336.46 253.656C336.428 254.07 336.309 254.472 336.111 254.837C333.413 259.766 329.861 264.179 325.619 267.872C319.396 273.248 309.369 278.924 294.706 278.924Z" fill="white"/>
<path d="M299.99 102.089C302.507 102.089 304.548 100.054 304.548 97.5445C304.548 95.0346 302.507 93 299.99 93C297.472 93 295.432 95.0346 295.432 97.5445C295.432 100.054 297.472 102.089 299.99 102.089Z" fill="#A6B5FF"/>
<path d="M232.062 134.911L236.682 136.784L240.851 134.055L240.489 139.015L244.381 142.123L239.541 143.312L237.779 147.963L235.145 143.738L230.166 143.505L233.379 139.706L232.062 134.911Z" fill="#FC543D"/>
<path d="M22.666 47.2012L21.1317 51.9313L24.1727 55.8708L19.1871 55.8811L16.3668 59.9821L14.8188 55.2589L10.0332 53.8529L14.0637 50.9207L13.9258 45.95L17.9666 48.865L22.666 47.2012Z" fill="#FCBDB6"/>
<path d="M22.0906 269.688C24.7564 269.688 26.9175 267.533 26.9175 264.875C26.9175 262.217 24.7564 260.062 22.0906 260.062C19.4248 260.062 17.2637 262.217 17.2637 264.875C17.2637 267.533 19.4248 269.688 22.0906 269.688Z" fill="#FCBDB6"/>
<path d="M7.85751 92.075C7.84679 96.5015 8.86923 100.87 10.844 104.834C12.8187 108.799 15.6915 112.251 19.2353 114.918C21.2143 116.382 23.5692 117.626 26.0205 117.386C28.4719 117.145 30.8475 114.869 30.3269 112.463C29.951 110.669 28.1306 109.435 26.2998 109.252C24.469 109.07 22.6555 109.734 21.0247 110.583C14.4221 114.02 9.77449 120.758 8.37468 128.056C6.97487 135.354 8.69187 143.102 12.5844 149.441" stroke="#F4D34D" stroke-width="5" stroke-miterlimit="10"/>
<path d="M271.445 134.247C270.325 129.521 272.435 124.481 275.8 120.971C279.165 117.462 283.633 115.241 288.102 113.306" stroke="#F4D34D" stroke-width="5" stroke-miterlimit="10"/>
<path d="M48.8867 172.499L55.2025 177.211L9.03603 238.717C8.75172 239.096 8.39538 239.415 7.98733 239.657C7.57929 239.898 7.12753 240.057 6.65787 240.125C6.1882 240.192 5.70982 240.167 5.25003 240.05C4.79025 239.933 4.35807 239.727 3.97817 239.443L3.44818 239.048C2.68093 238.475 2.1732 237.622 2.03668 236.677C1.90016 235.731 2.14604 234.77 2.72022 234.005L48.8867 172.499Z" fill="#D9E0F9"/>
<path d="M63.9334 186.031C79.2505 186.031 91.6675 173.651 91.6675 158.379C91.6675 143.107 79.2505 130.727 63.9334 130.727C48.6162 130.727 36.1992 143.107 36.1992 158.379C36.1992 173.651 48.6162 186.031 63.9334 186.031Z" fill="#A6B5FF"/>
<path d="M35.3125 162.845C36.371 153.814 44.4837 142.738 52.4895 139.538C60.4953 136.337 70.3905 137.768 77.0241 143.268C83.7714 148.864 86.6124 158.211 83.2542 166.299C79.8961 174.388 70.3767 180.022 61.7399 178.451C59.3435 178.064 57.0241 177.299 54.8685 176.186C53.032 175.125 51.3827 173.771 49.9864 172.178C45.8249 167.592 45.7214 160.067 49.3278 155.038C52.9342 150.009 59.2851 147.131 65.3877 148.201C67.646 148.592 70.2146 149.919 71.9868 151.373C75.8759 154.615 76.2966 161.435 73.3453 165.546C70.3939 169.658 64.381 170.624 60.0643 167.994C58.6093 167.114 57.1026 165.588 56.751 163.941C56.5068 162.806 56.5233 161.631 56.7992 160.504C57.5129 158.218 60.3022 155.901 62.6984 156.035C66.3634 156.234 67.7529 159.012 67.284 161.36" stroke="white" stroke-width="5" stroke-linecap="round" stroke-linejoin="round"/>
<path d="M282.234 8.09497L263.781 23.1756L279.058 22.9934L275.18 38.7443L294.639 22.8421L282.234 8.09497Z" fill="#FC543D"/>
<path d="M300.806 29.9958L287.391 49.6656L301.989 45.183L302.74 61.3843L316.893 40.642L300.806 29.9958Z" fill="#A6B5FF"/>
<path d="M326.738 44.4822L323.211 68.0089L334.413 57.6515L342.143 71.9208L345.863 47.1119L326.738 44.4822Z" fill="#F4D34D"/>
<path d="M356.834 45.9533L363.085 68.9128L369.17 54.9425L381.999 64.9149L375.407 40.7041L356.834 45.9533Z" fill="#FCBDB6"/>
<path d="M278.293 1.40234C278.293 1.40234 293.98 30.8245 322.049 42.2303C350.118 53.6362 381.144 38.8821 381.144 38.8821" stroke="#F4D34D" stroke-width="5" stroke-miterlimit="10"/>
<path d="M99.8446 77.9088C114.168 77.9088 125.779 66.3321 125.779 52.0515C125.779 37.7708 114.168 26.1941 99.8446 26.1941C85.5214 26.1941 73.9102 37.7708 73.9102 52.0515C73.9102 66.3321 85.5214 77.9088 99.8446 77.9088Z" fill="#F4D34D"/>
<path d="M200.601 155.903L163.796 136.938C161.749 135.884 160.102 134.195 159.103 132.126L138.916 89.9915C138.362 88.8339 138.253 87.5141 138.609 86.2814C138.964 85.0488 139.761 83.9889 140.847 83.302L160.865 70.6518C162.312 69.7365 163.56 68.541 164.535 67.1359C165.51 65.7309 166.193 64.1449 166.541 62.4721C166.89 60.7994 166.899 59.0738 166.566 57.3976C166.234 55.7215 165.567 54.129 164.606 52.7145C162.792 50.0468 160.033 48.162 156.883 47.4383C153.732 46.7146 150.424 47.2057 147.622 48.8129L122.939 62.9757L90.23 77.0388L62.8165 84.7458C59.7045 85.6192 57.0395 87.6346 55.3567 90.3868C53.674 93.139 53.0983 96.4242 53.7453 99.5823C54.0873 101.257 54.7632 102.846 55.7328 104.255C56.7024 105.664 57.9461 106.864 59.3899 107.785C60.8338 108.706 62.4484 109.328 64.138 109.615C65.8276 109.902 67.5578 109.848 69.2259 109.455L92.2987 103.996C93.5508 103.702 94.8678 103.875 96.0005 104.483C97.1333 105.091 98.0033 106.092 98.4461 107.296L114.551 151.125C115.344 153.286 115.409 155.645 114.734 157.846L102.611 197.36C102.113 198.983 101.943 200.687 102.108 202.376C102.274 204.064 102.773 205.703 103.577 207.198C104.381 208.694 105.473 210.016 106.791 211.088C108.11 212.161 109.628 212.963 111.258 213.448C112.884 213.932 114.591 214.091 116.279 213.917C117.967 213.742 119.604 213.237 121.096 212.43C122.588 211.623 123.905 210.531 124.973 209.216C126.041 207.9 126.838 206.388 127.318 204.765L142.285 154.233L188.641 178.694C190.141 179.486 191.783 179.975 193.473 180.133C195.163 180.291 196.868 180.115 198.489 179.615C200.111 179.115 201.618 178.301 202.923 177.219C204.229 176.137 205.307 174.809 206.097 173.311C206.889 171.81 207.374 170.167 207.526 168.477C207.678 166.788 207.494 165.085 206.983 163.467C206.472 161.849 205.645 160.348 204.55 159.049C203.455 157.751 202.113 156.682 200.601 155.903Z" fill="#F4D34D"/>
<path d="M165.294 84.1821C166.174 83.6366 166.801 82.765 167.037 81.7588C167.273 80.7526 167.099 79.6941 166.553 78.816L146.314 46.2829C145.827 45.5176 145.647 44.5978 145.81 43.7062C145.972 42.8146 146.464 42.0165 147.19 41.4703C147.583 41.1886 148.031 40.9904 148.504 40.8881C148.978 40.7859 149.467 40.7817 149.942 40.8758C150.417 40.9699 150.868 41.1603 151.266 41.4353C151.665 41.7102 152.002 42.0638 152.258 42.4741L153.927 45.1554C154.476 46.0316 155.352 46.6547 156.361 46.888C157.371 47.1212 158.432 46.9457 159.312 46.3998C160.192 45.8543 160.819 44.9829 161.056 43.9769C161.293 42.971 161.119 41.9125 160.574 41.0338L159.033 38.5587C155.778 33.3233 148.914 31.4326 143.569 34.523C142.257 35.2849 141.111 36.301 140.198 37.5115C139.286 38.7221 138.626 40.1025 138.257 41.5714C137.888 43.0403 137.818 44.568 138.05 46.0644C138.283 47.5608 138.814 48.9956 139.611 50.2842L159.912 82.9239C160.459 83.8014 161.333 84.4267 162.342 84.6626C163.351 84.8985 164.413 84.7256 165.294 84.1821Z" fill="#FC543D"/>
<path d="M90.5224 59.0572C92.2952 59.0572 93.7323 57.6244 93.7323 55.8569C93.7323 54.0893 92.2952 52.6565 90.5224 52.6565C88.7496 52.6565 87.3125 54.0893 87.3125 55.8569C87.3125 57.6244 88.7496 59.0572 90.5224 59.0572Z" fill="white"/>
<path d="M108.503 50.7452C110.276 50.7452 111.713 49.3124 111.713 47.5449C111.713 45.7773 110.276 44.3445 108.503 44.3445C106.73 44.3445 105.293 45.7773 105.293 47.5449C105.293 49.3124 106.73 50.7452 108.503 50.7452Z" fill="white"/>
<path d="M101.259 57.9538C102.479 57.9538 103.469 56.9673 103.469 55.7504C103.469 54.5334 102.479 53.5469 101.259 53.5469C100.038 53.5469 99.0488 54.5334 99.0488 55.7504C99.0488 56.9673 100.038 57.9538 101.259 57.9538Z" fill="#FC543D"/>
<path d="M95.5273 61.0781L95.6239 61.164C97.8994 63.2472 100.985 63.8591 103.592 62.7419L104.381 62.3981C107.219 61.1846 108.932 58.163 108.698 54.7942" stroke="#553EF9" stroke-width="4" stroke-miterlimit="10"/>
<path d="M107.837 20.8072C107.837 20.8072 89.322 0.900298 69.0145 9.60422C48.7069 18.3081 49.786 47.5859 56.6472 59.0364L60.4398 57.4139C60.4398 57.4139 56.4438 46.6543 60.2294 42.7905C62.274 40.7279 67.1733 43.0689 67.9732 45.8843L69.2799 48.3628L107.837 20.8072Z" fill="#FC543D"/>
<path d="M58.778 69.9093C63.091 69.9093 66.5873 66.4234 66.5873 62.1232C66.5873 57.8231 63.091 54.3372 58.778 54.3372C54.4651 54.3372 50.9688 57.8231 50.9688 62.1232C50.9688 66.4234 54.4651 69.9093 58.778 69.9093Z" fill="#F7E8A6"/>
<path d="M79.77 53.1336C85.1315 49.0569 87.5261 43.2006 85.1186 40.053C82.7111 36.9055 76.413 37.6586 71.0516 41.7353C65.6901 45.8119 63.2954 51.6683 65.703 54.8158C68.1105 57.9634 74.4086 57.2102 79.77 53.1336Z" fill="#F7E8A6"/>
<path d="M94.2447 43.1453C99.6061 39.0686 102.001 33.2123 99.5932 30.0647C97.1857 26.9172 90.8876 27.6704 85.5262 31.747C80.1647 35.8236 77.7701 41.68 80.1776 44.8276C82.5851 47.9751 88.8832 47.2219 94.2447 43.1453Z" fill="#F7E8A6"/>
<path d="M107.84 34.4146C113.202 30.3379 115.596 24.4816 113.189 21.334C110.781 18.1865 104.483 18.9396 99.1219 23.0163C93.7604 27.0929 91.3658 32.9493 93.7733 36.0968C96.1809 39.2444 102.479 38.4912 107.84 34.4146Z" fill="#F7E8A6"/>
<path d="M114.564 91.9822C117.331 91.9822 119.574 89.746 119.574 86.9875C119.574 84.2289 117.331 81.9927 114.564 81.9927C111.798 81.9927 109.555 84.2289 109.555 86.9875C109.555 89.746 111.798 91.9822 114.564 91.9822Z" fill="#F7E8A6"/>
<path d="M123.176 111.958C125.942 111.958 128.185 109.721 128.185 106.963C128.185 104.204 125.942 101.968 123.176 101.968C120.409 101.968 118.166 104.204 118.166 106.963C118.166 109.721 120.409 111.958 123.176 111.958Z" fill="#F7E8A6"/>
<path d="M131.785 131.93C134.552 131.93 136.795 129.694 136.795 126.935C136.795 124.177 134.552 121.94 131.785 121.94C129.018 121.94 126.775 124.177 126.775 126.935C126.775 129.694 129.018 131.93 131.785 131.93Z" fill="#F7E8A6"/>
<path d="M116.308 62.402L110.643 69.8512C110.213 69.6684 109.751 69.5727 109.283 69.5697C108.816 69.5667 108.352 69.6564 107.92 69.8336C107.487 70.0108 107.094 70.272 106.764 70.602C106.434 70.9319 106.173 71.3241 105.996 71.7556L96.8383 70.7449C96.6824 70.7272 96.5245 70.751 96.3809 70.814C96.2373 70.877 96.113 70.9768 96.0208 71.1034C95.9286 71.23 95.8717 71.3787 95.856 71.5343C95.8403 71.69 95.8664 71.847 95.9315 71.9893L101.627 84.5639C101.691 84.705 101.791 84.8269 101.916 84.9175C102.042 85.008 102.189 85.0641 102.344 85.0801C102.498 85.0962 102.654 85.0715 102.795 85.0087C102.937 84.9458 103.06 84.847 103.151 84.7221L108.323 77.6751C108.788 77.9019 109.297 78.0241 109.814 78.0328C110.331 78.0416 110.844 77.9368 111.316 77.7259C111.788 77.515 112.208 77.2031 112.546 76.8123C112.884 76.4215 113.131 75.9615 113.271 75.4647L122.135 76.5819C122.289 76.6018 122.445 76.5811 122.588 76.522C122.731 76.4628 122.856 76.3672 122.951 76.2447C123.045 76.1223 123.106 75.9772 123.127 75.8241C123.148 75.6709 123.128 75.515 123.069 75.3719L117.835 62.5842C117.775 62.4408 117.677 62.316 117.552 62.2225C117.427 62.1289 117.28 62.0699 117.125 62.0514C116.97 62.0329 116.812 62.0556 116.669 62.1172C116.526 62.1787 116.401 62.277 116.308 62.402Z" fill="#FC543D"/>
<path d="M90.4229 58.1189C91.6435 58.1189 92.633 57.1323 92.633 55.9154C92.633 54.6984 91.6435 53.7119 90.4229 53.7119C89.2024 53.7119 88.2129 54.6984 88.2129 55.9154C88.2129 57.1323 89.2024 58.1189 90.4229 58.1189Z" fill="#553EF9"/>
<path d="M108.599 49.6894C109.819 49.6894 110.809 48.7029 110.809 47.4859C110.809 46.269 109.819 45.2825 108.599 45.2825C107.378 45.2825 106.389 46.269 106.389 47.4859C106.389 48.7029 107.378 49.6894 108.599 49.6894Z" fill="#553EF9"/>
<path d="M58.3127 228.02C58.3127 228.02 57.0715 239.261 63.0982 247.15" stroke="#F4D34D" stroke-width="5" stroke-miterlimit="10"/>
<path d="M63.7285 272.708L78.0955 280.711C78.4433 280.904 78.8434 280.982 79.2385 280.935C79.6336 280.887 80.0035 280.716 80.2952 280.446L93.4865 268.274C93.7678 268.015 93.9631 267.676 94.0463 267.303C94.1294 266.93 94.0965 266.541 93.952 266.187L87.6287 250.649L63.7285 272.708Z" fill="#FCBDB6"/>
<path d="M73.6247 243.648L58.5045 257.603C56.5356 259.42 56.417 262.485 58.2395 264.448C60.0621 266.411 63.1357 266.529 65.1046 264.712L80.2249 250.757C82.1938 248.94 82.3124 245.875 80.4898 243.912C78.6672 241.949 75.5936 241.831 73.6247 243.648Z" fill="#F4D34D"/>
<path d="M81.3742 246.848L60.8267 265.812C58.8578 267.629 58.7392 270.693 60.5618 272.656C62.3844 274.62 65.458 274.738 67.4269 272.921L87.9744 253.957C89.9433 252.139 90.0619 249.075 88.2393 247.112C86.4167 245.149 83.3431 245.031 81.3742 246.848Z" fill="#A6B5FF"/>
<path d="M64.4058 253.407C67.2469 253.407 69.55 251.11 69.55 248.278C69.55 245.445 67.2469 243.149 64.4058 243.149C61.5648 243.149 59.2617 245.445 59.2617 248.278C59.2617 251.11 61.5648 253.407 64.4058 253.407Z" fill="#FC543D"/>
<path d="M361.69 236.59C370.247 236.59 377.184 229.673 377.184 221.141C377.184 212.609 370.247 205.693 361.69 205.693C353.132 205.693 346.195 212.609 346.195 221.141C346.195 229.673 353.132 236.59 361.69 236.59Z" fill="#D9E0F9"/>
<path d="M295.586 290.989C328.709 290.989 355.561 264.218 355.561 231.193C355.561 198.168 328.709 171.396 295.586 171.396C262.463 171.396 235.611 198.168 235.611 231.193C235.611 264.218 262.463 290.989 295.586 290.989Z" fill="#D9E0F9"/>
<path d="M332.976 192.266C352.675 192.266 368.644 176.345 368.644 156.705C368.644 137.065 352.675 121.143 332.976 121.143C313.277 121.143 297.309 137.065 297.309 156.705C297.309 176.345 313.277 192.266 332.976 192.266Z" fill="#D9E0F9"/>
<path d="M324.143 122.233L372.498 84.8971C372.578 84.8345 372.675 84.7969 372.776 84.7891C372.878 84.7813 372.979 84.8037 373.068 84.8534C373.156 84.9031 373.228 84.9778 373.274 85.0682C373.32 85.1586 373.338 85.2606 373.326 85.3612L366.527 145.591C366.527 145.591 335.445 150.764 324.143 122.233Z" fill="#F4D34D"/>
<path d="M319.456 149.657C322.16 149.657 324.352 147.472 324.352 144.776C324.352 142.08 322.16 139.895 319.456 139.895C316.753 139.895 314.561 142.08 314.561 144.776C314.561 147.472 316.753 149.657 319.456 149.657Z" fill="white"/>
<path d="M319.456 147.915C321.195 147.915 322.604 146.51 322.604 144.776C322.604 143.043 321.195 141.638 319.456 141.638C317.718 141.638 316.309 143.043 316.309 144.776C316.309 146.51 317.718 147.915 319.456 147.915Z" fill="#A6B5FF"/>
<path d="M340.228 160.733C342.932 160.733 345.124 158.548 345.124 155.852C345.124 153.156 342.932 150.971 340.228 150.971C337.524 150.971 335.332 153.156 335.332 155.852C335.332 158.548 337.524 160.733 340.228 160.733Z" fill="white"/>
<path d="M340.228 158.99C341.966 158.99 343.376 157.585 343.376 155.852C343.376 154.119 341.966 152.713 340.228 152.713C338.489 152.713 337.08 154.119 337.08 155.852C337.08 157.585 338.489 158.99 340.228 158.99Z" fill="#A6B5FF"/>
<path d="M325.945 172.222C326.96 172.222 327.783 171.401 327.783 170.389C327.783 169.377 326.96 168.557 325.945 168.557C324.93 168.557 324.107 169.377 324.107 170.389C324.107 171.401 324.93 172.222 325.945 172.222Z" fill="#A6B5FF"/>
<path d="M318.906 171.593C319.921 171.593 320.744 170.772 320.744 169.76C320.744 168.749 319.921 167.928 318.906 167.928C317.891 167.928 317.068 168.749 317.068 169.76C317.068 170.772 317.891 171.593 318.906 171.593Z" fill="#A6B5FF"/>
<path d="M313.523 168.282C314.538 168.282 315.361 167.462 315.361 166.45C315.361 165.438 314.538 164.618 313.523 164.618C312.508 164.618 311.686 165.438 311.686 166.45C311.686 167.462 312.508 168.282 313.523 168.282Z" fill="#A6B5FF"/>
<path d="M310.697 162.335C311.712 162.335 312.535 161.515 312.535 160.503C312.535 159.491 311.712 158.67 310.697 158.67C309.682 158.67 308.859 159.491 308.859 160.503C308.859 161.515 309.682 162.335 310.697 162.335Z" fill="#A6B5FF"/>
<path d="M326.045 153.889L295.625 147.419C295.561 147.414 295.498 147.431 295.445 147.466C295.393 147.501 295.354 147.554 295.335 147.614C295.316 147.675 295.318 147.74 295.342 147.799C295.365 147.858 295.408 147.907 295.463 147.938L323.538 162.902C324.183 163.246 325.4 163.658 325.921 163.184C326.986 162.215 328.582 159.551 328.679 155.529C328.71 154.576 327.021 153.92 326.045 153.889Z" fill="#FC543D"/>
<path d="M266.582 189.564C275.14 189.564 282.077 182.648 282.077 174.116C282.077 165.584 275.14 158.667 266.582 158.667C258.025 158.667 251.088 165.584 251.088 174.116C251.088 182.648 258.025 189.564 266.582 189.564Z" fill="#D9E0F9"/>
<path d="M299.435 162.641C305.821 168.664 321.977 179.049 350.166 186.938C351.097 187.2 351.918 187.752 352.51 188.513C353.102 189.275 353.434 190.206 353.456 191.17L353.818 205.872C353.834 206.517 353.712 207.158 353.458 207.752C353.205 208.346 352.827 208.879 352.349 209.315C351.872 209.75 351.306 210.079 350.69 210.278C350.075 210.477 349.423 210.542 348.78 210.468C336.616 209.093 305.41 203.359 282.186 180.248C281.376 179.449 280.898 178.375 280.846 177.24C280.795 176.105 281.173 174.992 281.907 174.123L292.871 163.016C293.267 162.546 293.756 162.163 294.306 161.888C294.857 161.613 295.457 161.454 296.072 161.419C296.687 161.383 297.302 161.474 297.88 161.684C298.458 161.894 298.988 162.22 299.435 162.641Z" fill="#A6B5FF"/>
<path d="M286.169 171.465C272.264 173.284 258.704 183.153 248.319 192.555C238.727 201.235 229.211 210.623 217.43 215.765C217.067 215.926 216.743 216.163 216.479 216.46C216.216 216.757 216.019 217.106 215.903 217.485C215.787 217.864 215.753 218.264 215.805 218.657C215.857 219.05 215.992 219.427 216.203 219.763L230.683 242.984C230.895 243.324 231.179 243.615 231.515 243.836C231.85 244.057 232.23 244.202 232.627 244.263C233.025 244.323 233.431 244.297 233.817 244.186C234.204 244.075 234.561 243.882 234.866 243.62C241.296 238.089 258.835 222.695 270.147 209.932C284.211 194.05 303.277 190.881 303.277 190.881L286.169 171.465Z" fill="#A6B5FF"/>
</svg>
