<svg width="24" height="18" viewBox="0 0 24 18" fill="none" xmlns="http://www.w3.org/2000/svg">
<path d="M7.47227 8.62495C8.81069 8.62495 9.8957 7.53979 9.8957 6.20151C9.8957 4.86309 8.81069 3.77808 7.47227 3.77808C6.13384 3.77808 5.04883 4.86309 5.04883 6.20151C5.05059 7.53921 6.13457 8.62319 7.47227 8.62495ZM7.47227 4.72026C8.29287 4.72026 8.9582 5.38545 8.9582 6.2062C8.9582 7.02681 8.29287 7.69214 7.47227 7.69214C6.65151 7.69214 5.98633 7.02681 5.98633 6.2062C5.98662 5.3856 6.65166 4.72056 7.47227 4.72026Z" fill="#212121"/>
<path d="M7.47188 9.52036C6.48032 9.51304 5.52861 9.91103 4.8375 10.6219C4.13438 11.3391 3.75 12.3141 3.75 13.3735C3.75073 13.632 3.96021 13.8415 4.21875 13.8422H10.725C10.9835 13.8415 11.193 13.632 11.1938 13.3735C11.1938 12.3141 10.8094 11.3391 10.1063 10.6219C9.41514 9.91103 8.46357 9.51304 7.47188 9.52036ZM4.72031 12.9047C4.80059 12.2918 5.07686 11.7214 5.50781 11.2782C6.02651 10.7533 6.73389 10.4579 7.47188 10.4579C8.20986 10.4579 8.91724 10.7533 9.43594 11.2782C9.86602 11.7219 10.1423 12.2921 10.2234 12.9047H4.72031Z" fill="#212121"/>
<path d="M20.9062 0.515625H3.09375C1.79956 0.516211 0.750586 1.56519 0.75 2.85938V14.7656C0.750586 16.0598 1.79956 17.1088 3.09375 17.1094H20.9062C22.2004 17.1088 23.2494 16.0598 23.25 14.7656V2.85938C23.2494 1.56519 22.2004 0.516211 20.9062 0.515625ZM22.3125 14.7656C22.3103 15.5413 21.6819 16.1697 20.9062 16.1719H3.09375C2.31812 16.1697 1.6897 15.5413 1.6875 14.7656V2.85938C1.6897 2.08374 2.31812 1.45532 3.09375 1.45313H20.9062C21.6819 1.45532 22.3103 2.08374 22.3125 2.85938V14.7656Z" fill="#212121"/>
<path d="M19.7529 8.34375H14.292C14.0332 8.34375 13.8232 8.55352 13.8232 8.8125C13.8232 9.07148 14.0332 9.28125 14.292 9.28125H19.7529C20.0118 9.28125 20.2217 9.07148 20.2217 8.8125C20.2217 8.55352 20.0118 8.34375 19.7529 8.34375Z" fill="#212121"/>
<path d="M19.7529 11.3438H14.292C14.0332 11.3438 13.8232 11.5535 13.8232 11.8125C13.8232 12.0715 14.0332 12.2813 14.292 12.2813H19.7529C20.0118 12.2813 20.2217 12.0715 20.2217 11.8125C20.2217 11.5535 20.0118 11.3438 19.7529 11.3438Z" fill="#212121"/>
<path d="M19.7529 5.34375H14.292C14.0332 5.34375 13.8232 5.55352 13.8232 5.8125C13.8232 6.07148 14.0332 6.28125 14.292 6.28125H19.7529C20.0118 6.28125 20.2217 6.07148 20.2217 5.8125C20.2217 5.55352 20.0118 5.34375 19.7529 5.34375Z" fill="#212121"/>
</svg>
