<svg width="10" height="10" viewBox="0 0 10 10" fill="none" xmlns="http://www.w3.org/2000/svg">
<path d="M1.08882 1.08882C1.31663 0.861018 1.68597 0.861018 1.91378 1.08882L5.0013 4.17635L8.08883 1.08882C8.31662 0.861018 8.68599 0.861018 8.91378 1.08882C9.14157 1.31663 9.14157 1.68597 8.91378 1.91378L5.82625 5.0013L8.91378 8.08883C9.14157 8.31662 9.14157 8.68599 8.91378 8.91378C8.68599 9.14157 8.31662 9.14157 8.08883 8.91378L5.0013 5.82625L1.91378 8.91378C1.68597 9.14157 1.31663 9.14157 1.08882 8.91378C0.861018 8.68599 0.861018 8.31662 1.08882 8.08883L4.17635 5.0013L1.08882 1.91378C0.861018 1.68597 0.861018 1.31663 1.08882 1.08882Z" fill="#EB5757"/>
</svg>
