<?xml version="1.0" encoding="iso-8859-1"?>
<!-- Generator: Adobe Illustrator 19.0.0, SVG Export Plug-In . SVG Version: 6.00 Build 0)  -->
<svg version="1.1" id="Capa_1" xmlns="http://www.w3.org/2000/svg" xmlns:xlink="http://www.w3.org/1999/xlink" x="0px" y="0px"
	 viewBox="0 0 508 508" style="enable-background:new 0 0 508 508;" xml:space="preserve">
<g>
	<g>
		<path d="M293.306,406.5h-40.9c-7.8,0-14.1,6.3-14.1,14.1c0,7.8,6.3,14.1,14.1,14.1h40.9c7.8,0,14.1-6.3,14.1-14.1
			C307.406,412.8,301.106,406.5,293.306,406.5z"/>
	</g>
</g>
<g>
	<g>
		<path d="M495.406,145.6l-133-133c-16.8-16.8-44.1-16.8-60.9,0L80.306,234h-37.3c-23.7,0-43,19.3-43,43v188c0,23.7,19.3,43,43,43
			h304.4c23.7,0,43-19.3,43-43V311.4l104.9-104.9C512.206,189.7,512.206,162.4,495.406,145.6z M321.506,32.6c5.8-5.8,15.2-5.8,21,0
			l23,23L187.206,234h-67.1L321.506,32.6z M28.206,277c0-8.2,6.6-14.8,14.8-14.8h304.4c8.2,0,14.8,6.6,14.8,14.8v32.6h-334V277z
			 M362.306,465.1L362.306,465.1c0,8.2-6.6,14.8-14.8,14.8h-304.5c-8.2,0-14.8-6.6-14.8-14.8V337.8h334.1V465.1z M475.506,186.6
			l-85.3,85.3c-2.6-21.3-20.7-37.9-42.7-37.9h-120.3l158.3-158.4l90,90C481.206,171.4,481.206,180.8,475.506,186.6z"/>
	</g>
</g>
<g>
</g>
<g>
</g>
<g>
</g>
<g>
</g>
<g>
</g>
<g>
</g>
<g>
</g>
<g>
</g>
<g>
</g>
<g>
</g>
<g>
</g>
<g>
</g>
<g>
</g>
<g>
</g>
<g>
</g>
</svg>
