<svg width="18" height="24" viewBox="0 0 18 24" fill="none" xmlns="http://www.w3.org/2000/svg">
<path d="M13.0778 8.54712H4.92166C4.87525 8.54709 4.8293 8.55621 4.78643 8.57396C4.74355 8.5917 4.70459 8.61773 4.67178 8.65054C4.63897 8.68335 4.61294 8.72231 4.5952 8.76518C4.57745 8.80806 4.56833 8.85401 4.56836 8.90042V14.4339C4.56839 14.4803 4.57755 14.5262 4.59531 14.569C4.61308 14.6118 4.63912 14.6507 4.67192 14.6835C4.70473 14.7163 4.74367 14.7423 4.78652 14.76C4.82937 14.7777 4.87529 14.7868 4.92166 14.7868H13.0778C13.1242 14.7868 13.1702 14.7777 13.213 14.7599C13.2559 14.7422 13.2949 14.7162 13.3277 14.6834C13.3605 14.6505 13.3865 14.6116 13.4043 14.5687C13.422 14.5258 13.4311 14.4799 13.4311 14.4335V8.90042C13.4311 8.85401 13.422 8.80806 13.4043 8.76518C13.3865 8.72231 13.3605 8.68335 13.3277 8.65054C13.2949 8.61773 13.2559 8.5917 13.213 8.57396C13.1702 8.55621 13.1242 8.54709 13.0778 8.54712ZM12.7241 14.0802H5.27455V9.25372H12.7241V14.0802Z" fill="#212121"/>
<path d="M6.64797 16.4563H4.92166C4.82796 16.4563 4.73809 16.4935 4.67184 16.5598C4.60558 16.626 4.56836 16.7159 4.56836 16.8096C4.56836 16.9033 4.60558 16.9932 4.67184 17.0594C4.73809 17.1257 4.82796 17.1629 4.92166 17.1629H6.64757C6.74127 17.1629 6.83113 17.1257 6.89739 17.0594C6.96364 16.9932 7.00087 16.9033 7.00087 16.8096C7.00087 16.7159 6.96364 16.626 6.89739 16.5598C6.83113 16.4935 6.74127 16.4563 6.64757 16.4563H6.64797Z" fill="#212121"/>
<path d="M9.86268 16.4563H8.13699C8.04329 16.4563 7.95342 16.4935 7.88717 16.5598C7.82091 16.626 7.78369 16.7159 7.78369 16.8096C7.78369 16.9033 7.82091 16.9932 7.88717 17.0594C7.95342 17.1257 8.04329 17.1629 8.13699 17.1629H9.86268C9.95638 17.1629 10.0462 17.1257 10.1125 17.0594C10.1788 16.9932 10.216 16.9033 10.216 16.8096C10.216 16.7159 10.1788 16.626 10.1125 16.5598C10.0462 16.4935 9.95638 16.4563 9.86268 16.4563Z" fill="#212121"/>
<path d="M13.0781 16.4563H11.3518C11.2581 16.4563 11.1683 16.4935 11.102 16.5598C11.0358 16.626 10.9985 16.7159 10.9985 16.8096C10.9985 16.9033 11.0358 16.9932 11.102 17.0594C11.1683 17.1257 11.2581 17.1629 11.3518 17.1629H13.0781C13.1718 17.1629 13.2617 17.1257 13.328 17.0594C13.3942 16.9932 13.4314 16.9033 13.4314 16.8096C13.4314 16.7159 13.3942 16.626 13.328 16.5598C13.2617 16.4935 13.1718 16.4563 13.0781 16.4563Z" fill="#212121"/>
<path d="M6.64797 18.7144H4.92166C4.82796 18.7144 4.73809 18.7516 4.67184 18.8178C4.60558 18.8841 4.56836 18.974 4.56836 19.0677C4.56836 19.1614 4.60558 19.2512 4.67184 19.3175C4.73809 19.3837 4.82796 19.421 4.92166 19.421H6.64757C6.74127 19.421 6.83113 19.3837 6.89739 19.3175C6.96364 19.2512 7.00087 19.1614 7.00087 19.0677C7.00087 18.974 6.96364 18.8841 6.89739 18.8178C6.83113 18.7516 6.74127 18.7144 6.64757 18.7144H6.64797Z" fill="#212121"/>
<path d="M9.86268 18.7144H8.13699C8.04329 18.7144 7.95342 18.7516 7.88717 18.8178C7.82091 18.8841 7.78369 18.974 7.78369 19.0677C7.78369 19.1614 7.82091 19.2512 7.88717 19.3175C7.95342 19.3837 8.04329 19.421 8.13699 19.421H9.86268C9.95638 19.421 10.0462 19.3837 10.1125 19.3175C10.1788 19.2512 10.216 19.1614 10.216 19.0677C10.216 18.974 10.1788 18.8841 10.1125 18.8178C10.0462 18.7516 9.95638 18.7144 9.86268 18.7144Z" fill="#212121"/>
<path d="M13.0781 18.7144H11.3518C11.2581 18.7144 11.1683 18.7516 11.102 18.8178C11.0358 18.8841 10.9985 18.974 10.9985 19.0677C10.9985 19.1614 11.0358 19.2512 11.102 19.3175C11.1683 19.3837 11.2581 19.421 11.3518 19.421H13.0781C13.1718 19.421 13.2617 19.3837 13.328 19.3175C13.3942 19.2512 13.4314 19.1614 13.4314 19.0677C13.4314 18.974 13.3942 18.8841 13.328 18.8178C13.2617 18.7516 13.1718 18.7144 13.0781 18.7144Z" fill="#212121"/>
<path d="M6.64797 20.9724H4.92166C4.82796 20.9724 4.73809 21.0096 4.67184 21.0759C4.60558 21.1421 4.56836 21.232 4.56836 21.3257C4.56836 21.4194 4.60558 21.5093 4.67184 21.5755C4.73809 21.6418 4.82796 21.679 4.92166 21.679H6.64757C6.74127 21.679 6.83113 21.6418 6.89739 21.5755C6.96364 21.5093 7.00087 21.4194 7.00087 21.3257C7.00087 21.232 6.96364 21.1421 6.89739 21.0759C6.83113 21.0096 6.74127 20.9724 6.64757 20.9724H6.64797Z" fill="#212121"/>
<path d="M9.86268 20.9724H8.13699C8.04329 20.9724 7.95342 21.0096 7.88717 21.0759C7.82091 21.1421 7.78369 21.232 7.78369 21.3257C7.78369 21.4194 7.82091 21.5093 7.88717 21.5755C7.95342 21.6418 8.04329 21.679 8.13699 21.679H9.86268C9.95638 21.679 10.0462 21.6418 10.1125 21.5755C10.1788 21.5093 10.216 21.4194 10.216 21.3257C10.216 21.232 10.1788 21.1421 10.1125 21.0759C10.0462 21.0096 9.95638 20.9724 9.86268 20.9724Z" fill="#212121"/>
<path d="M13.0781 20.9724H11.3518C11.2581 20.9724 11.1683 21.0096 11.102 21.0759C11.0358 21.1421 10.9985 21.232 10.9985 21.3257C10.9985 21.4194 11.0358 21.5093 11.102 21.5755C11.1683 21.6418 11.2581 21.679 11.3518 21.679H13.0781C13.1718 21.679 13.2617 21.6418 13.328 21.5755C13.3942 21.5093 13.4314 21.4194 13.4314 21.3257C13.4314 21.232 13.3942 21.1421 13.328 21.0759C13.2617 21.0096 13.1718 20.9724 13.0781 20.9724Z" fill="#212121"/>
<path d="M16.9385 9.66724L15.431 8.70647V6.45223C15.4305 5.98434 15.2445 5.53574 14.9136 5.20488C14.5828 4.87401 14.1342 4.68789 13.6663 4.68735H13.3189V0.353298C13.3189 0.259597 13.2817 0.169735 13.2154 0.103478C13.1492 0.0372223 13.0593 0 12.9656 0H5.03436C4.94066 0 4.8508 0.0372223 4.78454 0.103478C4.71829 0.169735 4.68106 0.259597 4.68106 0.353298V4.68735H4.33362C3.86573 4.68789 3.41716 4.87401 3.08633 5.20488C2.7555 5.53574 2.56943 5.98434 2.56895 6.45223V8.70647L1.06148 9.66724C1.01136 9.69915 0.970106 9.74319 0.941523 9.79527C0.91294 9.84736 0.897953 9.90581 0.897949 9.96522V15.7448C0.897931 15.8042 0.91291 15.8626 0.941497 15.9146C0.970083 15.9667 1.01135 16.0107 1.06148 16.0426L2.56895 17.0033V22.2362C2.56948 22.704 2.75558 23.1525 3.08641 23.4833C3.41724 23.8141 3.86578 24.0002 4.33362 24.0006H13.6663C14.1342 24.0002 14.5827 23.8141 14.9135 23.4833C15.2444 23.1525 15.4305 22.704 15.431 22.2362V17.0033L16.9385 16.0426C16.9886 16.0107 17.0299 15.9667 17.0585 15.9146C17.087 15.8626 17.102 15.8042 17.102 15.7448V9.96522C17.102 9.90581 17.087 9.84736 17.0584 9.79527C17.0299 9.74319 16.9886 9.69915 16.9385 9.66724ZM5.38766 0.706596H12.6123V6.54974H5.38766V0.706596ZM1.60454 15.551V10.159L2.56895 9.54429V16.1661L1.60454 15.551ZM14.7244 22.2362C14.7241 22.5167 14.6125 22.7856 14.4141 22.9839C14.2158 23.1822 13.9468 23.2938 13.6663 23.294H4.33362C4.05312 23.2938 3.78418 23.1822 3.58581 22.9839C3.38745 22.7856 3.27586 22.5167 3.27554 22.2362V6.45223C3.27586 6.17169 3.38744 5.90273 3.58579 5.70434C3.78414 5.50595 4.05308 5.39432 4.33362 5.39395H4.68106V6.54974H4.31888C4.22518 6.54974 4.13532 6.58696 4.06906 6.65322C4.00281 6.71947 3.96558 6.80934 3.96558 6.90304C3.96558 6.99674 4.00281 7.0866 4.06906 7.15286C4.13532 7.21911 4.22518 7.25633 4.31888 7.25633H13.6811C13.7748 7.25633 13.8646 7.21911 13.9309 7.15286C13.9971 7.0866 14.0344 6.99674 14.0344 6.90304C14.0344 6.80934 13.9971 6.71947 13.9309 6.65322C13.8646 6.58696 13.7748 6.54974 13.6811 6.54974H13.3189V5.39395H13.6663C13.9469 5.39432 14.2158 5.50595 14.4142 5.70434C14.6125 5.90273 14.7241 6.17169 14.7244 6.45223V22.2362ZM16.3954 15.5504L15.431 16.1655V9.54369L16.3954 10.1584V15.5504Z" fill="#212121"/>
</svg>
