<svg width="24" height="22" viewBox="0 0 24 22" fill="none" xmlns="http://www.w3.org/2000/svg">
<path d="M10.9997 21.9993C4.9349 21.9993 0 17.0645 0 10.9997C0 4.9349 4.9349 0 10.9997 0C13.1087 0 15.1605 0.600933 16.9334 1.7389C17.2815 1.96301 17.3835 2.42699 17.1594 2.77598C16.9345 3.12496 16.4715 3.22585 16.1225 3.00192C14.5925 2.01886 12.8206 1.49995 10.9997 1.49995C5.76178 1.49995 1.49995 5.76178 1.49995 10.9997C1.49995 16.2375 5.76178 20.4993 10.9997 20.4993C16.2375 20.4993 20.4993 16.2375 20.4993 10.9997C20.4993 10.6866 20.4843 10.3766 20.4554 10.0718C20.4154 9.6587 20.7174 9.29268 21.1293 9.25276C21.5433 9.21468 21.9083 9.51478 21.9484 9.92675C21.9822 10.2798 21.9993 10.6377 21.9993 10.9997C21.9993 17.0645 17.0645 21.9993 10.9997 21.9993Z" fill="white"/>
<path d="M12.2495 13.4993C12.0576 13.4993 11.8655 13.4262 11.7196 13.2794L7.21972 8.77954C6.92676 8.4864 6.92676 8.01144 7.21972 7.71848C7.51268 7.42552 7.98764 7.42552 8.2806 7.71848L12.2506 11.6884L22.7191 1.21972C23.0123 0.92676 23.4872 0.92676 23.7802 1.21972C24.0731 1.51268 24.0731 1.98764 23.7802 2.2806L12.7805 13.2803C12.6334 13.4262 12.4415 13.4993 12.2495 13.4993Z" fill="white"/>
</svg>
