<?xml version="1.0" encoding="iso-8859-1"?>
<!-- Generator: Adobe Illustrator 16.0.0, SVG Export Plug-In . SVG Version: 6.00 Build 0)  -->
<!DOCTYPE svg PUBLIC "-//W3C//DTD SVG 1.1//EN" "http://www.w3.org/Graphics/SVG/1.1/DTD/svg11.dtd">
<svg version="1.1" id="Capa_1" xmlns="http://www.w3.org/2000/svg" xmlns:xlink="http://www.w3.org/1999/xlink" x="0px" y="0px"
	 width="49.356px" height="49.355px" viewBox="0 0 49.356 49.355" style="enable-background:new 0 0 49.356 49.355;"
	 xml:space="preserve">
<g>
	<g>
		<path d="M41.386,49.355c1.103,0,2-0.896,2-2V11.701c0-0.844-0.46-1.857-1.093-2.412l-9.559-8.383C32.134,0.381,31.12,0,30.323,0
			H7.969c-1.103,0-2,0.896-2,2v45.354c0,1.104,0.897,2,2,2L41.386,49.355L41.386,49.355z M32.303,4.52l5.881,5.158h-5.882
			L32.303,4.52z M8.969,3h20.333v7.678c0,1.104,0.897,2,2,2h9.084v33.678H8.969V3L8.969,3z"/>
		<path d="M11.771,21.746c0.023-0.028,2.341-2.798,4.951-2.882c1.109-0.024,2.138,0.438,3.05,1.406
			c1.985,2.109,5.794,3.137,9.287,3.137c1.666,0,3.26-0.234,4.549-0.696c2.194-0.785,2.723-1.947,2.778-2.783
			c0.019-0.275-0.19-0.514-0.465-0.532c-0.276-0.017-0.515,0.189-0.533,0.466c-0.069,1.025-1.356,1.636-2.117,1.908
			c-3.629,1.301-10.135,0.615-12.77-2.185c-1.117-1.186-2.396-1.74-3.811-1.721c-3.056,0.1-5.582,3.116-5.688,3.245
			c-0.176,0.213-0.146,0.528,0.067,0.704C11.281,21.989,11.595,21.959,11.771,21.746z"/>
		<path d="M11.771,29.062c0.023-0.028,2.341-2.798,4.951-2.882c1.109-0.025,2.138,0.438,3.05,1.406
			c1.985,2.109,5.795,3.137,9.287,3.137c1.666,0,3.26-0.234,4.549-0.695c2.193-0.785,2.721-1.947,2.777-2.783
			c0.02-0.274-0.189-0.514-0.465-0.531c-0.276-0.023-0.514,0.189-0.533,0.466c-0.068,1.024-1.355,1.635-2.116,1.908
			C29.643,30.386,23.136,29.701,20.5,26.9c-1.117-1.186-2.396-1.738-3.811-1.721c-3.056,0.1-5.582,3.116-5.688,3.245
			c-0.176,0.213-0.146,0.528,0.067,0.704C11.281,29.305,11.595,29.275,11.771,29.062z"/>
		<path d="M11.771,36.367c0.023-0.028,2.341-2.799,4.951-2.883c1.109-0.033,2.138,0.438,3.05,1.406
			c1.985,2.109,5.794,3.137,9.287,3.137c1.666,0,3.26-0.233,4.549-0.695c2.194-0.785,2.723-1.947,2.778-2.783
			c0.019-0.275-0.19-0.514-0.465-0.532c-0.276-0.021-0.515,0.19-0.533,0.466c-0.069,1.025-1.356,1.637-2.117,1.908
			c-3.629,1.301-10.135,0.615-12.77-2.186c-1.117-1.187-2.396-1.741-3.811-1.721c-3.056,0.101-5.582,3.116-5.688,3.245
			c-0.176,0.214-0.146,0.528,0.067,0.704C11.281,36.611,11.595,36.58,11.771,36.367z"/>
	</g>
</g>
<g>
</g>
<g>
</g>
<g>
</g>
<g>
</g>
<g>
</g>
<g>
</g>
<g>
</g>
<g>
</g>
<g>
</g>
<g>
</g>
<g>
</g>
<g>
</g>
<g>
</g>
<g>
</g>
<g>
</g>
</svg>
