<?xml version="1.0" encoding="iso-8859-1"?>
<!-- Generator: Adobe Illustrator 19.0.0, SVG Export Plug-In . SVG Version: 6.00 Build 0)  -->
<svg version="1.1" id="Capa_1" xmlns="http://www.w3.org/2000/svg" xmlns:xlink="http://www.w3.org/1999/xlink" x="0px" y="0px"
	 viewBox="0 0 512 512" style="enable-background:new 0 0 512 512;" xml:space="preserve">
<g>
	<g>
		<g>
			<path style="fill:#007AFF;" d="M490.771,298.667l20.833-156.177c0.271-2.094,0.396-4.208,0.396-6.323c0-17.007-8.471-31.999-21.333-41.232V42.667
				C490.667,19.135,471.521,0,448,0H64C40.479,0,21.333,19.135,21.333,42.667v52.268C8.471,104.168,0,119.16,0,136.167
				c0,2.115,0.125,4.229,0.396,6.385l20.833,156.115L0.396,454.844C0.125,456.938,0,459.052,0,461.167
				C0,489.198,22.813,512,50.833,512h410.333C489.188,512,512,489.198,512,461.167c0-2.115-0.125-4.229-0.396-6.385L490.771,298.667
				z M256,352c0,35.292-28.708,64-64,64s-64-28.708-64-64c0-5.896,4.771-10.667,10.667-10.667c5.896,0,10.667,4.771,10.667,10.667
				c0,23.531,19.146,42.667,42.667,42.667s42.667-19.135,42.667-42.667S215.521,309.333,192,309.333
				c-5.896,0-10.667-4.771-10.667-10.667c0-5.896,4.771-10.667,10.667-10.667c23.521,0,42.667-19.135,42.667-42.667
				S215.521,202.667,192,202.667s-42.667,19.135-42.667,42.667c0,5.896-4.771,10.667-10.667,10.667
				c-5.896,0-10.667-4.771-10.667-10.667c0-35.292,28.708-64,64-64s64,28.708,64,64c0,22.264-11.454,41.865-28.751,53.333
				C244.546,310.135,256,329.736,256,352z M384,405.333c0,5.896-4.771,10.667-10.667,10.667c-5.896,0-10.667-4.771-10.667-10.667
				V211.927l-47.417,31.615c-4.875,3.229-11.521,1.938-14.792-2.958c-3.271-4.906-1.938-11.521,2.958-14.792l64-42.667
				c3.292-2.177,7.479-2.385,10.958-0.531c3.458,1.854,5.625,5.469,5.625,9.406V405.333z M448,85.333H64V42.667h384V85.333z"/>
			<circle cx="138.667" cy="64" r="10.667"/>
			<circle cx="373.333" cy="64" r="10.667"/>
		</g>
	</g>
</g>
<g>
</g>
<g>
</g>
<g>
</g>
<g>
</g>
<g>
</g>
<g>
</g>
<g>
</g>
<g>
</g>
<g>
</g>
<g>
</g>
<g>
</g>
<g>
</g>
<g>
</g>
<g>
</g>
<g>
</g>
</svg>
