<svg width="8" height="8" viewBox="0 0 8 8" fill="none" xmlns="http://www.w3.org/2000/svg">
<path d="M4 8C6.20248 8 8 6.20236 8 4C8 1.7975 6.20236 0 4 0C1.79752 0 0 1.79764 0 4C0 6.2025 1.79764 8 4 8ZM5.18667 7.32589C5.41331 7.03628 5.58703 6.69084 5.71752 6.34359H6.63886C6.24845 6.78281 5.75052 7.12409 5.18667 7.32589ZM6.99098 5.875H5.86905C6.00736 5.37206 6.0885 4.81444 6.10575 4.23438H7.52328C7.48378 4.83419 7.29391 5.39352 6.99098 5.875ZM6.99098 2.125C7.29391 2.60648 7.48378 3.16581 7.52328 3.76562H6.10575C6.0885 3.18556 6.00736 2.62794 5.86905 2.125H6.99098ZM6.63884 1.65625H5.7175C5.58706 1.3093 5.41336 0.963813 5.18666 0.674109C5.75052 0.875906 6.24845 1.21719 6.63884 1.65625ZM4.23438 0.508844C4.69431 0.664734 5.02427 1.21173 5.21298 1.65625H4.23438V0.508844ZM4.23438 2.125H5.38167C5.5307 2.61841 5.61837 3.17817 5.63683 3.76562H4.23438V2.125ZM4.23438 4.23422H5.63683C5.61837 4.82183 5.5307 5.38159 5.38167 5.875H4.23438V4.23422ZM4.23438 6.34359H5.21298C5.02395 6.78902 4.69394 7.33541 4.23438 7.49116V6.34359ZM1.36116 6.34375H2.2825C2.41294 6.6907 2.58664 7.03619 2.81334 7.32589C2.24948 7.12411 1.75155 6.78281 1.36116 6.34375ZM3.76562 7.49116C3.30608 7.33541 2.97608 6.78908 2.78702 6.34375H3.76562V7.49116ZM3.76562 5.875H2.61833C2.4693 5.38159 2.38162 4.82183 2.36317 4.23438H3.76562V5.875ZM3.76562 3.76562H2.36317C2.38162 3.17817 2.4693 2.61841 2.61833 2.125H3.76562V3.76562ZM3.76562 0.508844V1.65625H2.78702C2.97606 1.21097 3.30605 0.664609 3.76562 0.508844ZM2.81333 0.674109C2.58669 0.963719 2.41298 1.30914 2.28248 1.65625H1.36116C1.75155 1.21719 2.24948 0.875891 2.81333 0.674109ZM1.00902 2.12484H2.13095C1.99264 2.62794 1.9115 3.18556 1.89425 3.76562H0.476719C0.516219 3.16581 0.706094 2.60648 1.00902 2.12484ZM0.476719 4.23438H1.89425C1.9115 4.81444 1.99264 5.37206 2.13095 5.875H1.00902C0.706094 5.39352 0.516219 4.83419 0.476719 4.23438Z" fill="white"/>
</svg>
