<svg width="8" height="8" viewBox="0 0 8 8" fill="none" xmlns="http://www.w3.org/2000/svg">
<path d="M8 0.46875C8 0.210281 7.78973 0 7.53127 0H1.40625C0.97547 0 0.625 0.35047 0.625 0.78125V0.96875H0.5C0.224313 0.96875 0 1.19305 0 1.46875C0 1.74445 0.224313 1.96875 0.5 1.96875H0.625V2.65625H0.5C0.224297 2.65625 0 2.88055 0 3.15625C0 3.43197 0.224313 3.65627 0.5 3.65627H0.625V4.34373H0.5C0.224297 4.34373 0 4.56803 0 4.84373C0 5.11947 0.224313 5.34373 0.5 5.34373H0.625V6.03127H0.5C0.224297 6.03127 0 6.25553 0 6.53127C0 6.80697 0.224313 7.03127 0.5 7.03127H0.625V7.21873C0.625 7.64953 0.97547 8 1.40625 8H7.53127C7.78973 8 8 7.78973 8 7.53127V6.61877C8 6.49877 7.95467 6.38923 7.88027 6.30627C7.95463 6.22327 8 6.11373 8 5.99377V5.08127C8 4.96127 7.95467 4.85177 7.88027 4.76877C7.95463 4.68577 8 4.57623 8 4.45627V3.54377C8 3.42377 7.95467 3.31425 7.88027 3.23125C7.95463 3.14825 8 3.03872 8 2.91875V2.00625C8 1.88628 7.95467 1.77675 7.88027 1.69375C7.95463 1.61075 8 1.50122 8 1.38125V0.46875ZM7.6875 0.46875V1.38125C7.6875 1.46741 7.6174 1.5375 7.53127 1.5375H7.0625V0.78125C7.0625 0.605517 7.00413 0.443157 6.90583 0.3125H7.53127C7.6174 0.3125 7.6875 0.382593 7.6875 0.46875ZM7.6875 2.00625V2.91875C7.6875 3.00491 7.6174 3.075 7.53127 3.075H7.0625V1.85H7.53127C7.6174 1.85 7.6875 1.92009 7.6875 2.00625ZM7.6875 3.54377V4.45627C7.6875 4.5424 7.6174 4.6125 7.53127 4.6125H7.0625V3.3875H7.53127C7.6174 3.3875 7.6875 3.4576 7.6875 3.54377ZM7.6875 5.08127V5.99377C7.6875 6.0799 7.6174 6.15 7.53127 6.15H7.0625V4.925H7.53127C7.6174 4.925 7.6875 4.9951 7.6875 5.08127ZM0.3125 1.46875C0.3125 1.36536 0.39661 1.28125 0.5 1.28125H1.1875C1.29089 1.28125 1.375 1.36536 1.375 1.46875C1.375 1.57214 1.29089 1.65625 1.1875 1.65625H0.5C0.39661 1.65625 0.3125 1.57214 0.3125 1.46875ZM0.3125 3.15625C0.3125 3.05286 0.39661 2.96875 0.5 2.96875H1.1875C1.29089 2.96875 1.375 3.05286 1.375 3.15625C1.375 3.25964 1.29089 3.34373 1.1875 3.34373H0.5C0.39661 3.34373 0.3125 3.25964 0.3125 3.15625ZM0.3125 4.84373C0.3125 4.74037 0.39661 4.65627 0.5 4.65627H1.1875C1.29089 4.65627 1.375 4.74037 1.375 4.84373C1.375 4.94713 1.29089 5.03127 1.1875 5.03127H0.5C0.39661 5.03127 0.3125 4.94713 0.3125 4.84373ZM0.3125 6.53127C0.3125 6.42787 0.39661 6.34373 0.5 6.34373H1.1875C1.29089 6.34373 1.375 6.42787 1.375 6.53127C1.375 6.63463 1.29089 6.71873 1.1875 6.71873H0.5C0.39661 6.71873 0.3125 6.63463 0.3125 6.53127ZM1.40625 7.6875C1.14778 7.6875 0.9375 7.47723 0.9375 7.21873V7.03127H1.1875C1.4632 7.03127 1.6875 6.80697 1.6875 6.53127C1.6875 6.25553 1.4632 6.03127 1.1875 6.03127H0.9375V5.34373H1.1875C1.4632 5.34373 1.6875 5.11947 1.6875 4.84373C1.6875 4.56803 1.4632 4.34373 1.1875 4.34373H0.9375V3.65627H1.1875C1.4632 3.65627 1.6875 3.43197 1.6875 3.15625C1.6875 2.88055 1.4632 2.65625 1.1875 2.65625H0.9375V1.96875H1.1875C1.4632 1.96875 1.6875 1.74445 1.6875 1.46875C1.6875 1.19305 1.4632 0.96875 1.1875 0.96875H0.9375V0.78125C0.9375 0.52278 1.14778 0.3125 1.40625 0.3125H6.28127C6.53973 0.3125 6.75 0.52278 6.75 0.78125V7.21873C6.75 7.47723 6.53973 7.6875 6.28127 7.6875H1.40625ZM7.6875 7.53127C7.6875 7.6174 7.6174 7.6875 7.53127 7.6875H6.90583C7.00413 7.55683 7.0625 7.3945 7.0625 7.21873V6.4625H7.53127C7.6174 6.4625 7.6875 6.5326 7.6875 6.61877V7.53127Z" fill="white"/>
<path d="M4.5746 3.90367C4.70277 3.76443 4.78127 3.57873 4.78127 3.375V3.25C4.78127 2.81922 4.43077 2.46875 4 2.46875C3.56923 2.46875 3.21875 2.81922 3.21875 3.25V3.375C3.21875 3.57873 3.2972 3.76443 3.4254 3.90367C2.90756 4.06817 2.53125 4.5534 2.53125 5.125V5.375C2.53125 5.4613 2.6012 5.53127 2.6875 5.53127H3.29886C3.38513 5.53127 3.4551 5.4613 3.4551 5.375C3.4551 5.2887 3.38513 5.21873 3.29886 5.21873H2.84375V5.125C2.84375 4.59083 3.27834 4.15627 3.8125 4.15627H3.84373V4.40887C3.84373 4.49517 3.9137 4.5651 4 4.5651C4.08627 4.5651 4.15627 4.49517 4.15627 4.40887V4.15627H4.1875C4.72167 4.15627 5.15627 4.59083 5.15627 5.125V5.21873H4.7051C4.6188 5.21873 4.54887 5.2887 4.54887 5.375C4.54887 5.4613 4.6188 5.53127 4.7051 5.53127H5.3125C5.39877 5.53127 5.46873 5.4613 5.46873 5.375V5.125C5.46873 4.5534 5.09243 4.06817 4.5746 3.90367ZM3.53127 3.25C3.53127 2.99153 3.74153 2.78125 4 2.78125C4.25847 2.78125 4.46873 2.99153 4.46873 3.25V3.375C4.46873 3.63347 4.25847 3.84373 4 3.84373C3.74153 3.84373 3.53127 3.63347 3.53127 3.375V3.25Z" fill="white"/>
<path d="M4.00194 5.21875C3.96084 5.21875 3.92054 5.23548 3.8913 5.26455C3.86224 5.29362 3.8457 5.33392 3.8457 5.37502C3.8457 5.41612 3.86224 5.45642 3.8913 5.48548C3.92054 5.51455 3.96084 5.53128 4.00194 5.53128C4.04304 5.53128 4.08334 5.51455 4.1124 5.48548C4.14147 5.45642 4.1582 5.41612 4.1582 5.37502C4.1582 5.33392 4.14147 5.29362 4.1124 5.26455C4.08334 5.23548 4.04304 5.21875 4.00194 5.21875Z" fill="white"/>
</svg>
