<svg width="100" height="100" viewBox="0 0 100 100" fill="none" xmlns="http://www.w3.org/2000/svg">
<g clip-path="url(#clip0_269_9670)">
<path d="M54.0786 16.2501C39.7869 16.2501 28.1577 27.771 28.1577 41.9418C28.1577 43.3251 27.7619 44.6793 27.0077 45.8585L20.6494 55.8501C20.2244 56.521 19.9994 57.2918 19.9994 58.071C19.9994 60.3626 21.8702 62.2293 24.1702 62.2293H28.1536V68.8335C28.1536 72.6085 31.2452 75.6835 35.0452 75.6835C35.7952 75.6835 36.5077 75.571 37.0494 75.3751L41.7452 73.9668V80.9418C41.7452 82.496 43.0036 83.7543 44.5577 83.7543H69.0286C70.5827 83.7543 71.8411 82.496 71.8411 80.9418V67.4168C71.8411 63.5626 73.0286 59.8543 75.2744 56.696C78.3619 52.346 79.9952 47.2418 79.9952 41.9293C79.9994 27.771 68.3702 16.2501 54.0786 16.2501Z" fill="#FFCC80"/>
<path d="M71.1464 87.5H43.9589C42.2339 87.5 40.8339 86.1 40.8339 84.375V76.625L35.6172 78.1917C35.0131 78.4083 34.2214 78.5333 33.3881 78.5333C29.1672 78.5333 25.7297 75.1208 25.7297 70.925V63.5875H21.3006C18.7464 63.5875 16.6672 61.5167 16.6672 58.9667C16.6672 58.1 16.9172 57.2458 17.3881 56.4958L24.4547 45.3958C25.2922 44.0875 25.7339 42.5792 25.7297 41.0417C25.7297 25.3 38.6506 12.5 54.5297 12.5C70.4089 12.5 83.3339 25.3 83.3339 41.0333C83.3339 46.9333 81.5214 52.6042 78.0881 57.4417C75.5922 60.9542 74.2714 65.075 74.2714 69.3542V84.375C74.2714 86.1 72.8714 87.5 71.1464 87.5ZM47.0839 81.25H68.0214V69.3542C68.0214 63.7667 69.7422 58.3958 72.9922 53.8167C75.6672 50.05 77.0797 45.6292 77.0797 41.0333C77.0797 28.75 66.9631 18.75 54.5256 18.75C42.0881 18.75 31.9797 28.7458 31.9797 41.0375C31.9797 43.7667 31.2006 46.4375 29.7256 48.7583L24.2589 57.3417H28.8506C30.5756 57.3417 31.9756 58.7417 31.9756 60.4667V70.9292C31.9756 71.6792 32.6047 72.2875 33.3839 72.2875C33.4256 72.275 33.7714 72.225 33.8131 72.2125L43.0547 69.4333C44.0047 69.15 45.0256 69.3292 45.8172 69.9167C46.6089 70.5083 47.0797 71.4333 47.0797 72.425V81.25H47.0839Z" fill="black"/>
<path d="M97.9161 47.9167H2.08276C0.357764 47.9167 -1.04224 46.5167 -1.04224 44.7917C-1.04224 43.0667 0.357764 41.6667 2.08276 41.6667H97.9161C99.6411 41.6667 101.041 43.0667 101.041 44.7917C101.041 46.5167 99.6411 47.9167 97.9161 47.9167Z" fill="black"/>
<path d="M3.125 27.0833C1.4 27.0833 0 25.6833 0 23.9583V11.4583C0 5.1375 5.1375 0 11.4583 0H23.9583C25.6833 0 27.0833 1.4 27.0833 3.125C27.0833 4.85 25.6833 6.25 23.9583 6.25H11.4583C8.5875 6.25 6.25 8.5875 6.25 11.4583V23.9583C6.25 25.6833 4.85 27.0833 3.125 27.0833Z" fill="black"/>
<path d="M23.9583 100H11.4583C5.1375 100 0 94.8627 0 88.5419V76.0419C0 74.3169 1.4 72.9169 3.125 72.9169C4.85 72.9169 6.25 74.3169 6.25 76.0419V88.5419C6.25 91.4127 8.5875 93.7502 11.4583 93.7502H23.9583C25.6833 93.7502 27.0833 95.1502 27.0833 96.8752C27.0833 98.6002 25.6833 100 23.9583 100Z" fill="black"/>
<path d="M96.8756 27.0833C95.1506 27.0833 93.7506 25.6833 93.7506 23.9583V11.4583C93.7506 8.5875 91.4131 6.25 88.5422 6.25H76.0422C74.3172 6.25 72.9172 4.85 72.9172 3.125C72.9172 1.4 74.3172 0 76.0422 0H88.5422C94.8631 0 100.001 5.1375 100.001 11.4583V23.9583C100.001 25.6833 98.6006 27.0833 96.8756 27.0833Z" fill="black"/>
<path d="M88.5422 100H76.0422C74.3172 100 72.9172 98.6002 72.9172 96.8752C72.9172 95.1502 74.3172 93.7502 76.0422 93.7502H88.5422C91.4131 93.7502 93.7506 91.4127 93.7506 88.5419V76.0419C93.7506 74.3169 95.1506 72.9169 96.8756 72.9169C98.6006 72.9169 100.001 74.3169 100.001 76.0419V88.5419C100.001 94.8627 94.8631 100 88.5422 100Z" fill="black"/>
</g>
<defs>
<clipPath id="clip0_269_9670">
<rect width="100" height="100" fill="white"/>
</clipPath>
</defs>
</svg>
