<svg id="Capa_1" enable-background="new 0 0 512 512" height="512" viewBox="0 0 512 512" width="512" xmlns="http://www.w3.org/2000/svg"><g><path style="fill:#AEAEB2;" d="m477.222 405v-202.419c0-37.14-30.108-67.247-67.247-67.247-2.064 29.669-12.497 57.711-30.497 81.675-20.471 27.254-82.94 96.951-89.998 104.811l-33.48 37.275-33.481-37.278c-7.054-7.856-69.511-77.537-89.996-104.809-18-23.963-28.433-52.005-30.498-81.675-37.14 0-67.247 30.108-67.247 67.247v202.42z"/><path style="fill:#AEAEB2;" d="m377.662 435v77h71.838c34.462 0 62.5-28.037 62.5-62.5v-14.5z"/><path style="fill:#AEAEB2;" d="m164.338 435h183.324v77h-183.324z"/><path style="fill:#AEAEB2;" d="m134.338 435h-134.338v14.5c0 34.463 28.037 62.5 62.5 62.5h71.838z"/><path style="fill:#AEAEB2;" d="m156.51 198.99c20.116 26.78 85.555 99.692 88.33 102.783l11.16 12.425 11.16-12.426c2.775-3.091 68.215-76.003 88.33-102.782 16.272-21.662 24.872-47.468 24.872-74.628 0-68.573-55.789-124.362-124.362-124.362-68.574 0-124.363 55.789-124.363 124.363 0 27.16 8.601 52.966 24.873 74.627zm99.49-134.808c9.522 0 17.241 7.719 17.241 17.241s-7.719 17.241-17.241 17.241-17.241-7.719-17.241-17.241 7.719-17.241 17.241-17.241zm-14.963 55.417h30v93.735h-30z"/></g></svg>