<svg id="_x31__px" height="512" viewBox="0 0 24 24" width="512" xmlns="http://www.w3.org/2000/svg"><path d="m18.5 24h-10c-.276 0-.5-.224-.5-.5v-3c0-.827-.673-1.5-1.5-1.5h-3c-.276 0-.5-.224-.5-.5v-16c0-1.378 1.122-2.5 2.5-2.5h13c1.378 0 2.5 1.122 2.5 2.5v19c0 1.378-1.122 2.5-2.5 2.5zm-9.5-1h9.5c.827 0 1.5-.673 1.5-1.5v-19c0-.827-.673-1.5-1.5-1.5h-13c-.827 0-1.5.673-1.5 1.5v15.5h2.5c1.378 0 2.5 1.122 2.5 2.5z"/><path d="m8.5 24c-.13 0-.258-.051-.354-.146l-5-5c-.143-.143-.186-.358-.108-.545.077-.187.26-.309.462-.309h3c1.378 0 2.5 1.122 2.5 2.5v3c0 .202-.122.385-.309.462-.062.026-.127.038-.191.038zm-3.793-5 3.293 3.293v-1.793c0-.827-.673-1.5-1.5-1.5z"/><path d="m16.5 7h-9c-.827 0-1.5-.673-1.5-1.5v-1c0-.827.673-1.5 1.5-1.5h9c.827 0 1.5.673 1.5 1.5v1c0 .827-.673 1.5-1.5 1.5zm-9-3c-.276 0-.5.224-.5.5v1c0 .276.224.5.5.5h9c.276 0 .5-.224.5-.5v-1c0-.276-.224-.5-.5-.5z"/><path d="m16.5 10h-9c-.276 0-.5-.224-.5-.5s.224-.5.5-.5h9c.276 0 .5.224.5.5s-.224.5-.5.5z"/><path d="m16.5 13h-9c-.276 0-.5-.224-.5-.5s.224-.5.5-.5h9c.276 0 .5.224.5.5s-.224.5-.5.5z"/><path d="m16.5 16h-9c-.276 0-.5-.224-.5-.5s.224-.5.5-.5h9c.276 0 .5.224.5.5s-.224.5-.5.5z"/></svg>