<svg width="31" height="16" viewBox="0 0 31 16" fill="none" xmlns="http://www.w3.org/2000/svg">
<path d="M0.316059 13.7705C-0.0868534 14.1482 -0.107267 14.781 0.270463 15.1839C0.648193 15.5869 1.28103 15.6073 1.68394 15.2295L0.316059 13.7705ZM9 7L9.54499 6.16156C9.15909 5.91073 8.65183 5.95568 8.31606 6.27046L9 7ZM19 13.5L18.455 14.3384C18.8763 14.6123 19.4354 14.531 19.7612 14.1485L19 13.5ZM30.5 0L19.6203 3.86851L28.4104 11.3564L30.5 0ZM1.68394 15.2295L9.68394 7.72954L8.31606 6.27046L0.316059 13.7705L1.68394 15.2295ZM8.45501 7.83844L18.455 14.3384L19.545 12.6616L9.54499 6.16156L8.45501 7.83844ZM19.7612 14.1485L25.425 7.49966L23.9026 6.20272L18.2388 12.8515L19.7612 14.1485Z" fill="#40A557"/>
</svg>
