<svg height="473pt" viewBox="0 -35 473.00131 473" width="473pt" xmlns="http://www.w3.org/2000/svg"><path d="m425.5 49h-72.5v-20.613281c-.136719-15.59375-12.722656-28.214844-28.316406-28.386719h-175.367188c-15.59375.171875-28.179687 12.792969-28.316406 28.386719v20.613281h-72.5c-26.46875 0-48.5 21.414062-48.5 47.878906v256.738282c0 26.464843 22.03125 48.382812 48.5 48.382812h377c26.46875 0 47.5-21.917969 47.5-48.382812v-256.738282c.09375-12.660156-4.867188-24.835937-13.785156-33.824218-8.917969-8.988282-21.054688-14.046876-33.714844-14.054688zm-288.5-20.613281c.125-6.761719 5.554688-12.222657 12.316406-12.386719h175.367188c6.761718.164062 12.191406 5.625 12.316406 12.386719v101.5c-.148438 6.707031-5.605469 12.078125-12.316406 12.113281h-57.683594c-1.8125-.019531-3.574219.578125-5 1.695312l-47 37.511719v-31.320312c-.003906-2.109375-.851562-4.132813-2.355469-5.613281-1.5-1.480469-3.535156-2.300782-5.644531-2.273438h-57.683594c-6.707031-.035156-12.167968-5.40625-12.316406-12.113281zm320 325.230469c0 17.644531-13.855469 32.382812-31.5 32.382812h-377c-17.644531 0-32.5-14.738281-32.5-32.382812v-219.046876l192.253906 123.203126c15.566406 9.953124 35.46875 10.089843 51.171875.34375l197.574219-123.132813zm0-237.484376-205.90625 128.402344c-10.542969 6.496094-23.871094 6.40625-34.324219-.230468l-200.769531-128.742188v-18.683594c0-17.644531 14.855469-31.878906 32.5-31.878906h72.5v64.886719c.15625 15.539062 12.773438 28.070312 28.316406 28.113281h49.683594v39.839844c.019531 3.070312 1.777344 5.859375 4.539062 7.199218 2.757813 1.335938 6.039063.992188 8.460938-.890624l57.804688-46.148438h54.878906c15.542968-.042969 28.160156-12.574219 28.316406-28.113281v-64.886719h72.5c8.417969.003906 16.488281 3.375 22.40625 9.363281s9.191406 14.097657 9.09375 22.515625zm0 0"/></svg>