<svg width="19" height="24" viewBox="0 0 19 24" fill="none" xmlns="http://www.w3.org/2000/svg">
<path d="M17.222 24C17.7583 24 18.1945 23.5643 18.1945 23.0275V5.68988C18.1945 5.27947 17.9708 4.78687 17.663 4.51699L13.0148 0.440563C12.7231 0.18527 12.23 0 11.8425 0H0.972526C0.436178 0 0 0.435701 0 0.972546V23.027C0 23.5638 0.436178 23.9995 0.972526 23.9995L17.222 24ZM12.8053 2.19795L15.665 4.70615H12.8048L12.8053 2.19795ZM1.45879 1.45882H11.346V5.19242C11.346 5.72927 11.7822 6.16497 12.3185 6.16497H16.7357V22.5417H1.45879V1.45882Z" fill="#4F4F4F"/>
<path d="M2.82226 10.5754C2.83344 10.5618 3.9606 9.21485 5.22975 9.174C5.76901 9.16233 6.26938 9.38699 6.71285 9.8577C7.67808 10.8833 9.53026 11.3831 11.2288 11.3831C12.0389 11.3831 12.814 11.2694 13.4408 11.0447C14.5076 10.663 14.7649 10.0979 14.7916 9.6914C14.8009 9.55767 14.6992 9.44145 14.5655 9.4327C14.4313 9.42443 14.3151 9.52461 14.3063 9.6593C14.2728 10.1577 13.647 10.4548 13.2769 10.5871C11.5123 11.2198 8.34864 10.8862 7.06734 9.5246C6.52418 8.94789 5.90225 8.67849 5.21419 8.68773C3.72817 8.73636 2.49987 10.203 2.44832 10.2657C2.36274 10.3693 2.37733 10.5224 2.4809 10.608C2.58399 10.6936 2.73668 10.679 2.82226 10.5754Z" fill="#4F4F4F"/>
<path d="M2.82079 14.1325C2.83198 14.1189 3.95913 12.7719 5.22828 12.7311C5.76754 12.7189 6.26791 12.9441 6.71138 13.4148C7.67661 14.4403 9.52927 14.9402 11.2273 14.9402C12.0374 14.9402 12.8125 14.8264 13.4393 14.6023C14.5057 14.2205 14.7624 13.6555 14.7897 13.249C14.7994 13.1157 14.6978 12.999 14.5636 12.9908C14.4293 12.9796 14.3136 13.0827 14.3044 13.2174C14.2713 13.7153 13.6455 14.0124 13.2754 14.1452C11.5113 14.7763 8.34717 14.4433 7.06538 13.0812C6.52222 12.5045 5.90029 12.2361 5.21223 12.2443C3.72621 12.293 2.49791 13.7596 2.44637 13.8223C2.36079 13.9259 2.37537 14.079 2.47895 14.1646C2.58252 14.2507 2.73521 14.2361 2.82079 14.1325Z" fill="#4F4F4F"/>
<path d="M2.82226 17.6834C2.83344 17.6698 3.9606 16.3223 5.22975 16.2814C5.76901 16.2654 6.26938 16.4944 6.71285 16.9651C7.67808 17.9907 9.53026 18.4906 11.2288 18.4906C12.0389 18.4906 12.814 18.3773 13.4408 18.1526C14.5076 17.7709 14.7649 17.2059 14.7916 16.7993C14.8009 16.6656 14.6992 16.5494 14.5655 16.5406C14.4313 16.5304 14.3151 16.633 14.3063 16.7672C14.2728 17.2657 13.647 17.5633 13.2769 17.695C11.5123 18.3277 8.34864 17.9941 7.06734 16.6321C6.52418 16.0548 5.90225 15.7855 5.21419 15.7952C3.72817 15.8443 2.49987 17.3104 2.44832 17.3731C2.36274 17.4772 2.37733 17.6299 2.4809 17.7155C2.58399 17.802 2.73668 17.787 2.82226 17.6834Z" fill="#4F4F4F"/>
</svg>
