<svg width="34" height="36" viewBox="0 0 34 36" fill="none" xmlns="http://www.w3.org/2000/svg">
<path d="M4.92188 10.2656H11.9531C12.3415 10.2656 12.6562 9.95084 12.6562 9.5625C12.6562 9.17416 12.3415 8.85938 11.9531 8.85938H4.92188C4.53354 8.85938 4.21875 9.17416 4.21875 9.5625C4.21875 9.95084 4.53354 10.2656 4.92188 10.2656Z" fill="black"/>
<path d="M17.5781 13.0781H4.92188C4.53354 13.0781 4.21875 13.3929 4.21875 13.7812C4.21875 14.1696 4.53354 14.4844 4.92188 14.4844H17.5781C17.9665 14.4844 18.2812 14.1696 18.2812 13.7812C18.2812 13.3929 17.9665 13.0781 17.5781 13.0781Z" fill="black"/>
<path d="M17.5781 17.2969H4.92188C4.53354 17.2969 4.21875 17.6117 4.21875 18C4.21875 18.3883 4.53354 18.7031 4.92188 18.7031H17.5781C17.9665 18.7031 18.2812 18.3883 18.2812 18C18.2812 17.6117 17.9665 17.2969 17.5781 17.2969Z" fill="black"/>
<path d="M17.5781 21.5156H4.92188C4.53354 21.5156 4.21875 21.8304 4.21875 22.2188C4.21875 22.6071 4.53354 22.9219 4.92188 22.9219H17.5781C17.9665 22.9219 18.2812 22.6071 18.2812 22.2188C18.2812 21.8304 17.9665 21.5156 17.5781 21.5156Z" fill="black"/>
<path d="M10.5469 25.7344H4.92188C4.53354 25.7344 4.21875 26.0492 4.21875 26.4375C4.21875 26.8258 4.53354 27.1406 4.92188 27.1406H10.5469C10.9352 27.1406 11.25 26.8258 11.25 26.4375C11.25 26.0492 10.9352 25.7344 10.5469 25.7344Z" fill="black"/>
<path d="M17.5781 25.7344H14.7656C14.3773 25.7344 14.0625 26.0492 14.0625 26.4375C14.0625 26.8258 14.3773 27.1406 14.7656 27.1406H17.5781C17.9665 27.1406 18.2812 26.8258 18.2812 26.4375C18.2812 26.0492 17.9665 25.7344 17.5781 25.7344Z" fill="black"/>
<path d="M14.7656 0C14.1339 0 1.39113 0 0.703125 0C0.314789 0 0 0.314789 0 0.703125V35.2969C0 35.6851 0.314789 36 0.703125 36H21.7969C22.1852 36 22.5 35.6851 22.5 35.2969C22.5 32.8544 22.5 8.91492 22.5 7.73438C22.5 3.46964 19.0304 0 14.7656 0ZM21.0938 34.5938H1.40625V1.40625H13.3594C14.5225 1.40625 15.4688 2.35252 15.4688 3.51562V6.32812C15.4688 6.71646 15.7835 7.03125 16.1719 7.03125H18.9844C20.1475 7.03125 21.0938 7.97752 21.0938 9.14062V34.5938Z" fill="black"/>
<path d="M28.125 0C27.7367 0 27.4219 0.314789 27.4219 0.703125V2.8125C26.2588 2.8125 25.3125 3.75877 25.3125 4.92188V27.8438C25.3125 30.0948 26.0029 32.1505 27.4219 34.1207V35.2969C27.4219 35.6851 27.7367 36 28.125 36C28.5133 36 28.8281 35.6851 28.8281 35.2969V34.1207C30.2471 32.1505 30.9375 30.0948 30.9375 27.8438C30.9375 27.1004 30.9375 8.06674 30.9375 7.03125H31.6406C32.0283 7.03125 32.3438 7.34667 32.3438 7.73438V15.1875C32.3438 15.5758 32.6585 15.8906 33.0469 15.8906C33.4352 15.8906 33.75 15.5758 33.75 15.1875V7.73438C33.75 6.57127 32.8037 5.625 31.6406 5.625H30.9375V4.92188C30.9375 3.75877 29.9912 2.8125 28.8281 2.8125V0.703125C28.8281 0.314789 28.5133 0 28.125 0ZM29.5312 27.1406H26.7188V21.5156H29.5312V27.1406ZM29.5312 4.92188V20.1094H26.7188V4.92188C26.7188 4.53417 27.0342 4.21875 27.4219 4.21875H28.8281C29.2158 4.21875 29.5312 4.53417 29.5312 4.92188Z" fill="black"/>
</svg>
