<svg id="Capa_1" enable-background="new 0 0 512 512" height="512" viewBox="0 0 512 512" width="512" xmlns="http://www.w3.org/2000/svg"><g><path d="m86 146h100c5.523 0 10-4.477 10-10s-4.477-10-10-10h-100c-5.523 0-10 4.477-10 10s4.477 10 10 10z"/><path d="m266 186h-180c-5.523 0-10 4.477-10 10s4.477 10 10 10h180c5.523 0 10-4.477 10-10s-4.477-10-10-10z"/><path d="m266 246h-180c-5.523 0-10 4.477-10 10s4.477 10 10 10h180c5.523 0 10-4.477 10-10s-4.477-10-10-10z"/><path d="m266 306h-180c-5.523 0-10 4.477-10 10s4.477 10 10 10h180c5.523 0 10-4.477 10-10s-4.477-10-10-10z"/><path d="m166 366h-80c-5.523 0-10 4.477-10 10s4.477 10 10 10h80c5.523 0 10-4.477 10-10s-4.477-10-10-10z"/><path d="m266 366h-40c-5.523 0-10 4.477-10 10s4.477 10 10 10h40c5.523 0 10-4.477 10-10s-4.477-10-10-10z"/><path d="m226 0c-8.984 0-190.215 0-200 0-5.523 0-10 4.477-10 10v492c0 5.522 4.477 10 10 10h300c5.523 0 10-4.478 10-10 0-34.737 0-375.21 0-392 0-60.654-49.346-110-110-110zm90 492h-280v-472h170c16.542 0 30 13.458 30 30v40c0 5.523 4.477 10 10 10h40c16.542 0 30 13.458 30 30z"/><path d="m416 0c-5.523 0-10 4.477-10 10v30c-16.542 0-30 13.458-30 30v326c0 32.015 9.819 61.251 30 89.272v16.728c0 5.522 4.477 10 10 10s10-4.478 10-10v-16.728c20.181-28.021 30-57.257 30-89.272 0-10.572 0-281.273 0-296h10c5.514 0 10 4.486 10 10v106c0 5.523 4.477 10 10 10s10-4.477 10-10v-106c0-16.542-13.458-30-30-30h-10v-10c0-16.542-13.458-30-30-30v-30c0-5.523-4.477-10-10-10zm20 386h-40v-80h40zm0-316v216h-40v-216c0-5.514 4.486-10 10-10h20c5.514 0 10 4.486 10 10z"/></g></svg>