<svg width="436" height="294" viewBox="0 0 436 294" fill="none" xmlns="http://www.w3.org/2000/svg">
<path d="M197.881 71.1772L183.354 67.1895L194.612 75.5287C187.084 85.477 179.262 96.1949 178.535 108.872C178.284 112.999 177.781 116.917 176.957 120.583L159.791 124.319L155.321 125.284L161.048 125.76L175.183 126.949C174.191 129.874 173.032 132.616 171.677 135.149C165.336 147.084 154.218 181.77 142.094 183.701C142.094 183.701 142.094 183.701 142.08 183.701C141.703 182.959 124.355 148.777 140.376 96.4887C142.513 89.5487 145.32 83.0844 148.603 77.1378C148.714 76.9279 148.812 76.746 148.924 76.5501C168.381 41.724 203.663 24.8497 208.496 42.6055C211.15 52.316 205.186 61.4667 197.881 71.1772Z" fill="#729C60"/>
<path d="M171.663 135.162C162.109 165.917 154.203 181.784 142.079 183.715C142.079 183.715 142.079 183.715 142.065 183.715C141.577 183.715 115.024 183.337 138.127 99.7767C140.068 92.7807 145.166 83.2941 148.602 77.1516C148.714 76.9417 148.812 76.7599 148.923 76.564C147.876 85.3649 147.401 98.4894 151.256 110.369C151.256 110.369 153.91 117.057 159.776 124.319L155.307 125.284L161.033 125.76C163.897 129.048 167.417 132.392 171.663 135.162Z" fill="#233E44"/>
<path d="M141.898 223.872C141.06 104.409 183.396 47.1953 205.842 38.2544" stroke="#9AC091" stroke-width="0.5" stroke-miterlimit="10"/>
<path d="M141.799 110.579L133.809 117.799L141.98 115.322C142.595 140.396 138.083 164.224 125.945 166.421C109.841 169.359 100.831 126.32 100.259 95.9991L111.768 99.0074L100.357 91.4517C100.412 89.5628 100.524 84.1059 100.664 82.4269C102.256 64.6011 108.248 46.4115 118.975 35.106C125.666 46.1876 131.365 58.9343 135.415 71.5691C138.823 82.1191 141.1 96.335 141.799 110.579Z" fill="#729C60"/>
<path d="M100.678 82.4133L135.443 71.5415C131.407 58.9347 125.666 46.174 118.989 35.0923C108.262 46.4118 102.256 64.6014 100.678 82.4133Z" fill="#233E44"/>
<path d="M120.959 41.1924C125.708 91.4936 127.733 187.171 124.842 221.703" stroke="#9AC091" stroke-width="0.5" stroke-miterlimit="10"/>
<path d="M100.65 82.4269C106.251 71.709 115.288 66.6719 124.996 63.1879L122.007 46.8732L129.019 61.8306C143.475 57.2832 158.644 54.9186 166.019 41.8501C167.765 38.7718 166.368 34.91 163.826 32.4195C161.452 30.0968 158.141 28.012 154.272 26.5848L137.064 31.7898L146.576 24.7378C128.739 22.5831 105.427 34.1125 100.65 82.4269Z" fill="#B4CAAD"/>
<path d="M110.121 183.813C100.944 187.577 85.5095 167.568 73.6371 141.347C72.9666 139.822 72.2822 138.283 71.6117 136.716C70.3407 133.708 69.1115 130.629 67.9522 127.495L75.3551 126.292L65.7034 121.213C60.5075 105.724 57.0994 89.6749 57.1133 75.9487L92.647 83.0707C101.097 96.9647 107.983 116.246 112.062 134.281L108.416 144.831L113.529 141.305C117.593 162.699 117.216 180.917 110.121 183.813Z" fill="#233E44"/>
<path d="M67.6318 83.896C93.7094 138.605 119.745 199.316 117.65 225.159" stroke="#9AC091" stroke-width="0.5" stroke-miterlimit="10"/>
<path d="M92.6612 83.0565C92.6612 83.0565 84.965 81.6573 76.9336 86.4426L64.5303 79.6285L74.1261 88.4154C71.8773 90.1924 69.6844 92.5011 67.673 95.5514C67.4356 95.9012 67.2121 96.223 66.9747 96.5728C64.0694 94.362 60.2423 91.6336 59.8791 91.3678L64.3348 100.225C50.1297 118.288 31.6784 122.248 36.0643 104.688C36.9582 101.092 37.7963 96.9646 39.207 92.3052L47.9507 86.2187L40.7714 87.408C41.2742 85.9389 41.4697 85.5611 41.9446 84.7495C46.1908 77.6976 54.1524 73.7658 62.3793 74.1436C72.6874 74.6193 87.6607 76.4803 92.6612 83.0565Z" fill="#B4CAAD"/>
<path d="M297.496 172.591H388.439C397.281 172.591 403.776 180.889 401.681 189.494L385.534 256.138H276.88L297.496 172.591Z" fill="#DAD5D5"/>
<path d="M389.32 256.151H50.7305V263.469H389.32V256.151Z" fill="#BCACAB"/>
<path d="M241.752 78.971C241.752 78.971 228.524 76.1726 231.695 64.979C234.866 53.7854 248.833 46.8734 258.513 48.5524C258.513 48.5524 258.694 44.2569 256.655 44.075C254.602 43.8931 259.267 42.0181 262.424 47.8108C262.424 47.8108 271.363 43.7112 276.028 52.6661C280.693 61.6209 279.003 84.204 279.003 84.204L241.752 78.971Z" fill="#3F2824"/>
<path d="M297.245 112.09L273.78 149.504L254.225 118.904L261.865 115.924V111.628C239.14 105.29 240.062 74.6892 240.062 74.6892C249.378 61.9985 260.748 66.8537 264.463 66.8537C267.704 66.8537 271.349 77.2218 272.271 79.9782C272.397 80.37 272.774 80.6219 273.193 80.5939L274.534 80.5099C275.037 80.4819 275.4 80.0342 275.344 79.5305C275.051 76.6901 275.386 74.6613 276.056 73.2201C278.166 68.7706 284.591 69.5962 285.973 74.3254C288.432 82.7067 279.73 87.5479 279.73 87.5479L286.812 107.514L297.245 112.09Z" fill="#F8A17C"/>
<path d="M239.056 232.281L233.525 248.932H196.189L199.542 212.413L239.936 224.824L239.056 232.281Z" fill="#D96A3F"/>
<path d="M210.338 248.932H165.432C165.432 248.932 160.767 220.444 178.841 224.544C178.841 224.544 180.881 221.032 184.819 221.032C188.758 221.032 189.582 224.824 189.582 224.824C189.582 224.824 193.424 221.759 196.915 223.508C200.421 225.257 208.886 232.281 210.338 248.932Z" fill="#F79A77"/>
<path d="M173.157 249.631C173.115 249.631 173.087 249.631 173.045 249.617C172.668 249.561 172.403 249.198 172.459 248.82C172.584 248.05 175.434 229.945 178.367 224.628C178.548 224.292 178.982 224.166 179.317 224.362C179.652 224.544 179.778 224.978 179.582 225.313C176.761 230.406 173.855 248.848 173.827 249.044C173.786 249.38 173.492 249.631 173.157 249.631Z" fill="#EF744E"/>
<path d="M185.113 249.632C184.764 249.632 184.457 249.366 184.415 249.002C183.828 242.789 189.457 226.951 189.709 226.279C189.834 225.915 190.239 225.733 190.603 225.859C190.966 225.985 191.161 226.391 191.022 226.755C190.966 226.923 185.253 242.971 185.812 248.876C185.854 249.254 185.56 249.604 185.183 249.632C185.155 249.632 185.127 249.632 185.113 249.632Z" fill="#EF744E"/>
<path d="M202.908 248.456C202.894 248.456 202.894 248.456 202.88 248.456C194.723 248.204 192.125 245.881 191.371 243.978C190.742 242.383 191.287 240.508 192.809 238.997C194.918 236.899 199.067 235.401 203.159 237.066C203.523 237.206 203.69 237.626 203.55 237.976C203.411 238.34 202.992 238.508 202.643 238.368C199.137 236.941 195.603 238.214 193.801 239.991C192.67 241.124 192.251 242.383 192.684 243.461C193.075 244.454 194.863 246.805 202.936 247.057C203.327 247.071 203.62 247.393 203.606 247.784C203.592 248.162 203.285 248.456 202.908 248.456Z" fill="#EF744E"/>
<path d="M257.2 79.6701C257.102 79.6701 257.018 79.6561 256.92 79.6142C256.571 79.4602 256.404 79.0545 256.557 78.7047C256.627 78.5368 258.359 74.647 266.097 76.2421C266.474 76.326 266.712 76.6898 266.642 77.0676C266.558 77.4454 266.195 77.6833 265.818 77.6133C259.295 76.2701 257.898 79.1384 257.842 79.2644C257.73 79.5162 257.479 79.6701 257.2 79.6701Z" fill="#3F2824"/>
<path d="M243.428 84.9033C243.079 84.9033 242.772 84.6374 242.73 84.2736C242.716 84.1897 242.534 82.1608 244.127 80.8735C245.649 79.6422 248.177 79.6003 251.655 80.7336C252.018 80.8596 252.228 81.2513 252.102 81.6151C251.976 81.9789 251.585 82.1748 251.222 82.0629C248.275 81.0974 246.138 81.0694 245.02 81.9509C244.015 82.7485 244.127 84.0777 244.127 84.1337C244.154 84.5115 243.875 84.8613 243.498 84.8893C243.47 84.8893 243.442 84.9033 243.428 84.9033Z" fill="#3F2824"/>
<path d="M257.409 98.2939C256.934 98.2939 256.501 98.2099 256.124 98C255.622 97.7202 255.021 97.1045 255.021 95.7753C255.021 91.8016 252.828 83.5323 252.814 83.4483C252.716 83.0705 252.94 82.6928 253.303 82.5948C253.68 82.4969 254.057 82.7208 254.155 83.0845C254.253 83.4343 256.418 91.6197 256.418 95.7613C256.418 96.5589 256.711 96.7128 256.795 96.7687C257.731 97.2864 260.315 96.1391 261.865 95.1736C262.186 94.9638 262.619 95.0617 262.829 95.3975C263.038 95.7193 262.941 96.1531 262.605 96.363C262.019 96.7408 259.421 98.2939 257.409 98.2939Z" fill="#EF744E"/>
<path d="M261.837 103.233C260.147 103.233 258.834 102.589 258.764 102.547C258.415 102.379 258.275 101.96 258.457 101.61C258.624 101.26 259.043 101.12 259.393 101.288C259.406 101.302 261.404 102.267 263.373 101.568C264.588 101.134 265.566 100.155 266.279 98.6295C266.446 98.2797 266.865 98.1258 267.2 98.2937C267.55 98.4616 267.703 98.8674 267.536 99.2172C266.656 101.106 265.413 102.337 263.82 102.897C263.122 103.149 262.451 103.233 261.837 103.233Z" fill="#EF744E"/>
<path d="M277.9 98.3218C277.886 98.6996 277.453 107.752 271.852 111.796C270.12 113.055 268.095 113.685 265.79 113.685C264.561 113.685 263.262 113.489 261.865 113.125V111.684C265.567 112.734 268.654 112.398 271.042 110.663C276.084 107.025 276.503 98.3498 276.503 98.2659C276.517 97.8741 276.88 97.5942 277.23 97.5942C277.621 97.6082 277.914 97.93 277.9 98.3218Z" fill="#EF744E"/>
<path d="M376.61 213.826L358.158 212.021L356.482 254.752L296.226 255.564L259.282 256.067L242.856 256.291L235.034 225.075L189.583 212.58L208.775 154.36C208.775 154.36 214.739 139.99 225.913 133.833C233.372 129.72 243.512 124.445 249.406 121.38C252.34 119.869 254.225 118.904 254.225 118.904L257.983 117.435L268.919 134.939L269.799 136.352L273.598 142.424L277.579 136.352L278.501 134.953L294.326 110.816L304.704 114.608C304.704 114.608 304.802 114.65 304.998 114.734C308.545 116.217 343.995 131.105 347.361 132.532C350.895 134.015 368.215 152.121 371.945 185.338C374.389 207.207 375.883 212.65 376.61 213.826Z" fill="white"/>
<path d="M259.24 256.096H242.758L234.992 225.103L189.541 212.609L208.733 154.388C208.733 154.388 214.697 140.018 225.871 133.862C230.76 131.161 236.808 127.957 242.059 125.215C242.52 124.977 242.967 124.739 243.414 124.501C245.635 123.354 247.674 122.29 249.364 121.409C249.686 128.657 250.384 143.516 251.306 160.908C251.348 161.384 251.362 161.86 251.39 162.349C252.968 191.453 255.203 227.118 257.563 245.938L254.477 245.966L254.491 247.365L257.745 247.337C258.248 251.101 258.737 254.081 259.24 256.096Z" fill="#843724"/>
<path d="M376.609 213.826L358.158 212.021L356.593 256.152H296.211C296.267 253.815 296.351 250.275 296.407 246.945L297.58 246.931L297.566 245.532L296.435 245.546C296.574 235.723 296.616 223.158 296.127 214.106C295.876 209.404 296.463 199.498 297.454 187.605H298.097V186.206H297.566C298.306 177.517 299.228 167.848 300.192 158.403C300.248 157.928 300.29 157.452 300.346 156.976C300.513 155.255 300.695 153.534 300.876 151.827L301.882 151.841L301.91 150.442L301.03 150.428C302.65 135.009 304.229 121.213 304.997 114.734C305.598 114.986 307.148 115.63 309.299 116.539C309.746 116.721 310.207 116.917 310.696 117.127C321.786 121.786 344.693 131.399 347.361 132.532C350.895 134.015 368.215 152.121 371.944 185.338C374.388 207.208 375.883 212.65 376.609 213.826Z" fill="#8A3727"/>
<path d="M250.892 90.1664C251.614 89.7491 251.767 88.6622 251.235 87.7387C250.702 86.8152 249.686 86.4048 248.965 86.8221C248.243 87.2394 248.09 88.3263 248.622 89.2498C249.154 90.1733 250.171 90.5837 250.892 90.1664Z" fill="#010101"/>
<path d="M264.163 84.9354C264.884 84.5181 265.037 83.4312 264.505 82.5077C263.973 81.5842 262.957 81.1738 262.235 81.5911C261.514 82.0084 261.36 83.0953 261.892 84.0188C262.425 84.9423 263.441 85.3527 264.163 84.9354Z" fill="#010101"/>
<path d="M251.389 162.349C251.334 162.349 251.306 162.335 251.25 162.321C245.104 160.95 237.869 158.809 238.386 156.417C238.819 154.416 241.626 129.006 242.059 125.215C242.52 124.977 242.967 124.739 243.414 124.501C243.484 124.613 243.512 124.753 243.498 124.893C243.358 126.11 240.229 154.486 239.754 156.711C239.992 157.592 245.355 159.551 251.306 160.908C251.348 161.384 251.361 161.86 251.389 162.349Z" fill="#63211A"/>
<path d="M315.571 155.549L300.388 158.404C300.346 158.404 300.304 158.418 300.262 158.418C300.234 158.418 300.22 158.418 300.192 158.404C300.248 157.928 300.29 157.452 300.346 156.976L314.02 154.416L309.257 116.903C309.243 116.777 309.257 116.651 309.299 116.54C309.746 116.721 310.207 116.917 310.696 117.127L315.571 155.549Z" fill="#63211A"/>
<path d="M326.843 208.047C326.507 208.047 326.2 207.795 326.158 207.445C325.362 202.17 330.684 163.203 330.907 161.538C330.963 161.16 331.312 160.88 331.689 160.936C332.067 160.992 332.332 161.342 332.29 161.719C332.234 162.125 326.773 202.142 327.541 207.221C327.597 207.599 327.332 207.963 326.954 208.019C326.913 208.047 326.885 208.047 326.843 208.047Z" fill="#63211A"/>
<path d="M236.71 185.142H207.196C205.897 185.142 204.85 184.093 204.85 182.791V165.987C204.85 164.686 205.897 163.636 207.196 163.636H236.71C238.009 163.636 239.056 164.686 239.056 165.987V182.791C239.056 184.093 238.009 185.142 236.71 185.142Z" fill="#FFD566"/>
<path d="M215.814 172.325H208.886C208.314 172.325 207.839 171.864 207.839 171.276V167.694C207.839 167.12 208.3 166.645 208.886 166.645H215.814C216.387 166.645 216.862 167.106 216.862 167.694V171.276C216.862 171.864 216.387 172.325 215.814 172.325Z" fill="white"/>
<path d="M367.712 237.29C366.12 259.649 332.64 250.387 332.64 250.387C332.64 250.387 311.046 240.494 291.868 232.057H292.72V230.658H288.725C285.359 229.189 282.105 227.776 279.116 226.502C275.372 224.893 272.034 223.508 269.38 222.445C266.014 221.101 263.723 220.29 263.025 220.248C258.779 220.038 217.225 206.732 214.459 201.401C211.694 196.084 219.083 195.874 219.083 195.874C219.083 195.874 210.311 190.823 211.414 186.681C212.797 181.448 239.294 189.703 240.565 190.109C239.587 189.605 222.211 180.846 218.496 177.237C214.669 173.515 219.348 171.598 219.348 171.598L239.545 176.285V169.247C239.545 169.247 247.507 171.92 253.247 174.466C256.209 175.781 261.852 181.224 266.628 186.205H265.986V187.605H267.955C271.824 191.69 274.827 195.118 274.827 195.118C275.26 195.664 276.755 196.308 279.06 197.021C281.658 197.833 285.317 198.728 289.675 199.68C316.13 205.444 368.341 213.014 368.341 213.014C368.341 213.014 369.319 214.931 367.712 237.29Z" fill="#F79B77"/>
<path d="M289.674 199.68L279.114 226.503C275.371 224.894 272.033 223.508 269.379 222.445L279.058 197.021C281.656 197.833 285.316 198.729 289.674 199.68Z" fill="#4D2C27"/>
<path d="M257.954 184.247C257.73 184.247 257.521 184.149 257.381 183.953C255.971 181.952 246.933 178.958 241.193 177.447C240.816 177.349 240.592 176.971 240.69 176.593C240.788 176.216 241.179 176.006 241.542 176.09C243.05 176.495 256.362 180.077 258.513 183.142C258.736 183.463 258.652 183.897 258.345 184.121C258.233 184.205 258.094 184.247 257.954 184.247Z" fill="#EF744E"/>
<path d="M243.009 203.038C242.953 203.038 242.884 203.024 242.828 203.01L222.756 197.693C222.379 197.595 222.156 197.217 222.253 196.84C222.351 196.462 222.728 196.238 223.105 196.336L243.177 201.653C243.554 201.751 243.778 202.129 243.68 202.506C243.596 202.828 243.317 203.038 243.009 203.038Z" fill="#EF744E"/>
<path d="M268.919 134.939L269.799 136.352L250.077 136.324V134.925L268.919 134.939Z" fill="#E0DEDF"/>
<path d="M302.624 134.981V136.38L277.58 136.352L278.502 134.953L302.624 134.981Z" fill="#E0DEDF"/>
<path d="M301.911 150.442L301.883 151.841L300.877 151.827C300.933 151.351 300.975 150.889 301.031 150.428L301.911 150.442Z" fill="#8A3727"/>
<path d="M301.031 150.428C300.975 150.89 300.933 151.351 300.877 151.827L250.789 151.03L250.817 149.63L301.031 150.428Z" fill="#E0DEDF"/>
<path d="M299.117 168.548H251.822V169.947H299.117V168.548Z" fill="#E0DEDF"/>
<path d="M298.097 186.206V187.605H297.454C297.482 187.143 297.524 186.681 297.566 186.206H298.097Z" fill="#8A3727"/>
<path d="M267.955 187.605H265.985V186.206H266.628C267.075 186.681 267.522 187.143 267.955 187.605Z" fill="#F79B77"/>
<path d="M297.566 186.206C297.524 186.681 297.482 187.143 297.455 187.605H267.955C267.522 187.143 267.075 186.681 266.628 186.206H297.566Z" fill="#E0DEDF"/>
<path d="M292.72 230.658V232.057H291.868C290.821 231.582 289.759 231.12 288.726 230.658H292.72Z" fill="#F79B77"/>
<path d="M291.868 232.057H256.083V230.658H288.725C289.759 231.12 290.821 231.582 291.868 232.057Z" fill="#E0DEDF"/>
<path d="M297.58 246.931L296.406 246.945C296.42 246.483 296.42 246.021 296.434 245.546L297.566 245.532L297.58 246.931Z" fill="#8A3727"/>
<path d="M257.786 247.309L254.532 247.337L254.518 245.938L257.604 245.91C257.674 246.385 257.73 246.861 257.786 247.309Z" fill="#843724"/>
<path d="M296.435 245.546C296.421 246.022 296.421 246.483 296.407 246.945L257.786 247.309C257.73 246.861 257.674 246.385 257.604 245.91L296.435 245.546Z" fill="#E0DEDF"/>
<path d="M279.297 219.045C283.864 219.045 287.566 215.337 287.566 210.762C287.566 206.187 283.864 202.479 279.297 202.479C274.73 202.479 271.028 206.187 271.028 210.762C271.028 215.337 274.73 219.045 279.297 219.045Z" fill="white"/>
<path d="M71.654 256.446L51.2892 176.719C51.0098 175.628 51.8339 174.564 52.9653 174.564H143.727C144.523 174.564 145.222 175.11 145.403 175.894L163.016 249.1H243.917C243.917 249.1 252.046 248.89 252.689 256.278L71.654 256.446Z" fill="#DBD5D5"/>
<path d="M159.943 249.631C159.636 249.631 159.343 249.421 159.273 249.099L141.855 178.818H55.0744C54.6833 178.818 54.376 178.51 54.376 178.118C54.376 177.726 54.6833 177.418 55.0744 177.418H142.945L160.628 248.764C160.726 249.141 160.488 249.519 160.125 249.617C160.055 249.617 159.999 249.631 159.943 249.631Z" fill="#C7ACB3"/>
<path d="M280.051 83.1405C279.688 83.1405 279.38 82.8607 279.352 82.4969C279.324 82.1191 279.604 81.7693 279.995 81.7413C280.079 81.7273 282.3 81.4475 282.76 77.7396C282.9 76.5923 282.705 75.7528 282.174 75.263C281.196 74.3536 279.297 74.6894 279.283 74.6894C278.905 74.7593 278.542 74.5215 278.458 74.1437C278.389 73.7659 278.626 73.4021 279.003 73.3182C279.115 73.2902 281.601 72.8284 283.124 74.2276C284.004 75.0532 284.353 76.2845 284.143 77.9075C283.543 82.7907 280.246 83.1126 280.107 83.1266C280.093 83.1405 280.079 83.1405 280.051 83.1405Z" fill="#EF744E"/>
<path d="M280.261 79.1388C280.079 79.1388 279.884 79.0689 279.758 78.915C279.493 78.6351 279.507 78.2014 279.786 77.9355C280.387 77.3619 281.909 76.5223 283.404 77.4038C283.739 77.5997 283.851 78.0335 283.655 78.3553C283.459 78.6911 283.026 78.803 282.705 78.6071C281.741 78.0475 280.792 78.915 280.75 78.9569C280.61 79.0829 280.442 79.1388 280.261 79.1388Z" fill="#EF744E"/>
</svg>
