<?xml version="1.0" encoding="iso-8859-1"?>
<!-- Generator: Adobe Illustrator 19.0.0, SVG Export Plug-In . SVG Version: 6.00 Build 0)  -->
<svg version="1.1" id="Layer_1" xmlns="http://www.w3.org/2000/svg" xmlns:xlink="http://www.w3.org/1999/xlink" x="0px" y="0px"
	 viewBox="0 0 511.999 511.999" style="enable-background:new 0 0 511.999 511.999;" xml:space="preserve">
<g>
	<g>
		<g>
			<path d="M48.032,384.251v127.748h415.936V384.251H48.032z M448.293,496.324H63.706v-96.399h384.587V496.324z"/>
			<rect x="127.914" y="440.288" width="16.01" height="15.675"/>
			<rect x="167.947" y="440.288" width="16.009" height="15.675"/>
			<rect x="207.969" y="440.288" width="16.011" height="15.675"/>
			<rect x="247.992" y="440.288" width="16.011" height="15.675"/>
			<rect x="288.025" y="440.288" width="16.011" height="15.675"/>
			<rect x="328.047" y="440.288" width="16.01" height="15.675"/>
			<rect x="368.069" y="440.288" width="16.01" height="15.675"/>
			<path d="M255.999,351.894c97.018,0,175.947-78.93,175.947-175.947S353.018,0,255.999,0S80.053,78.93,80.053,175.947
				C80.053,272.965,158.982,351.894,255.999,351.894z M312.204,326.039c-17.498,6.575-36.435,10.181-56.204,10.181
				c-19.767,0-38.707-3.606-56.205-10.181V207.801h112.409V326.039z M255.999,15.675c88.374,0,160.272,71.898,160.272,160.272
				c0,62.545-36.016,116.828-88.394,143.222V192.125H184.12v127.043c-52.377-26.394-88.393-80.678-88.393-143.222
				C95.727,87.573,167.625,15.675,255.999,15.675z"/>
			<path d="M255.999,175.779c21.977,0,39.858-17.88,39.858-39.858v-24.016c0-21.978-17.88-39.858-39.858-39.858
				c-21.978,0-39.858,17.88-39.858,39.858v24.016C216.142,157.899,234.022,175.779,255.999,175.779z M231.817,111.905
				c0-13.335,10.849-24.184,24.184-24.184c13.335,0,24.184,10.849,24.184,24.184v24.016c0,13.335-10.849,24.184-24.184,24.184
				c-13.335,0-24.184-10.849-24.184-24.184V111.905z"/>
			<rect x="248.159" y="223.979" width="15.675" height="16.01"/>
			<rect x="248.159" y="247.992" width="15.675" height="16.01"/>
			<rect x="248.159" y="272.006" width="15.675" height="16.01"/>
		</g>
	</g>
</g>
<g>
</g>
<g>
</g>
<g>
</g>
<g>
</g>
<g>
</g>
<g>
</g>
<g>
</g>
<g>
</g>
<g>
</g>
<g>
</g>
<g>
</g>
<g>
</g>
<g>
</g>
<g>
</g>
<g>
</g>
</svg>
