<svg id="Capa_1" enable-background="new 0 0 512 512" height="512" viewBox="0 0 512 512" width="512" xmlns="http://www.w3.org/2000/svg"><g><path d="m400.79 420.501c-4.142 0-7.5 3.358-7.5 7.5v19.751h-274.58v-297.491c0-4.142-3.358-7.5-7.5-7.5s-7.5 3.358-7.5 7.5v331.063c0 16.915 13.761 30.676 30.676 30.676h243.227c16.915 0 30.676-13.761 30.676-30.676v-53.323c.001-4.142-3.357-7.5-7.499-7.5zm-7.5 60.823c0 8.644-7.032 15.676-15.676 15.676h-243.228c-8.643 0-15.676-7.032-15.676-15.676v-18.571h274.58z"/><path d="m377.614 0h-243.228c-16.914 0-30.676 13.761-30.676 30.676v89.585c0 4.142 3.358 7.5 7.5 7.5s7.5-3.358 7.5-7.5v-89.585c0-8.644 7.032-15.676 15.676-15.676h41.486l9.254 22.036c3.237 7.71 10.733 12.692 19.095 12.692h103.558c8.362 0 15.857-4.982 19.095-12.692l9.253-22.036h41.487c8.644 0 15.676 7.032 15.676 15.676v367.326c0 4.142 3.358 7.5 7.5 7.5 4.143 0 7.5-3.358 7.5-7.5v-367.326c0-16.915-13.761-30.676-30.676-30.676zm-64.571 31.229c-.893 2.126-2.959 3.5-5.265 3.5h-103.557c-2.306 0-4.373-1.374-5.265-3.5l-6.815-16.229h127.717z"/><path d="m256 80.075c-29.181 0-52.921 23.74-52.921 52.921s23.74 52.921 52.921 52.921c29.182 0 52.922-23.74 52.922-52.921-.001-29.181-23.741-52.921-52.922-52.921zm0 90.842c-20.91 0-37.921-17.011-37.921-37.921s17.011-37.921 37.921-37.921 37.922 17.011 37.922 37.921c-.001 20.91-17.012 37.921-37.922 37.921z"/><path d="m242.934 148.735s4.59 5.323 10.584.733l24.082-20.975c3.124-2.72 3.45-7.458.729-10.581-2.719-3.126-7.457-3.452-10.58-.732l-18.416 16.04-4.398-5.069c-2.713-3.128-7.45-3.465-10.58-.75-3.128 2.714-3.464 7.451-.75 10.58l9.322 10.745c.002.002.007.009.009.011"/><path d="m183.538 243.222h-13.131c-11.028 0-20 8.972-20 20v13.13c0 11.028 8.972 20 20 20h13.131c11.028 0 20-8.972 20-20v-13.13c0-11.028-8.973-20-20-20zm5 33.131c0 2.757-2.243 5-5 5h-13.131c-2.757 0-5-2.243-5-5v-13.13c0-2.757 2.243-5 5-5h13.131c2.757 0 5 2.243 5 5z"/><path d="m282.565 263.222c0-11.028-8.972-20-20-20h-13.13c-11.028 0-20 8.972-20 20v13.13c0 11.028 8.972 20 20 20h13.13c11.028 0 20-8.972 20-20zm-15 13.131c0 2.757-2.243 5-5 5h-13.13c-2.757 0-5-2.243-5-5v-13.13c0-2.757 2.243-5 5-5h13.13c2.757 0 5 2.243 5 5z"/><path d="m361.593 263.222c0-11.028-8.972-20-20-20h-13.131c-11.028 0-20 8.972-20 20v13.13c0 11.028 8.972 20 20 20h13.131c11.028 0 20-8.972 20-20zm-15 13.131c0 2.757-2.243 5-5 5h-13.131c-2.757 0-5-2.243-5-5v-13.13c0-2.757 2.243-5 5-5h13.131c2.757 0 5 2.243 5 5z"/><path d="m150.407 341.645c0 11.028 8.972 20 20 20h13.131c11.028 0 20-8.972 20-20v-13.13c0-11.028-8.972-20-20-20h-13.131c-11.028 0-20 8.972-20 20zm15-13.13c0-2.757 2.243-5 5-5h13.131c2.757 0 5 2.243 5 5v13.13c0 2.757-2.243 5-5 5h-13.131c-2.757 0-5-2.243-5-5z"/><path d="m282.565 328.515c0-11.028-8.972-20-20-20h-13.13c-11.028 0-20 8.972-20 20v13.13c0 11.028 8.972 20 20 20h13.13c11.028 0 20-8.972 20-20zm-15 13.13c0 2.757-2.243 5-5 5h-13.13c-2.757 0-5-2.243-5-5v-13.13c0-2.757 2.243-5 5-5h13.13c2.757 0 5 2.243 5 5z"/><path d="m361.593 328.515c0-11.028-8.972-20-20-20h-13.131c-11.028 0-20 8.972-20 20v13.13c0 11.028 8.972 20 20 20h13.131c11.028 0 20-8.972 20-20zm-15 13.13c0 2.757-2.243 5-5 5h-13.131c-2.757 0-5-2.243-5-5v-13.13c0-2.757 2.243-5 5-5h13.131c2.757 0 5 2.243 5 5z"/><path d="m150.407 406.938c0 11.028 8.972 20 20 20h13.131c11.028 0 20-8.972 20-20v-13.13c0-11.028-8.972-20-20-20h-13.131c-11.028 0-20 8.972-20 20zm15-13.131c0-2.757 2.243-5 5-5h13.131c2.757 0 5 2.243 5 5v13.13c0 2.757-2.243 5-5 5h-13.131c-2.757 0-5-2.243-5-5z"/><path d="m262.565 373.807h-13.13c-11.028 0-20 8.972-20 20v13.13c0 11.028 8.972 20 20 20h13.13c11.028 0 20-8.972 20-20v-13.13c0-11.028-8.972-20-20-20zm5 33.131c0 2.757-2.243 5-5 5h-13.13c-2.757 0-5-2.243-5-5v-13.13c0-2.757 2.243-5 5-5h13.13c2.757 0 5 2.243 5 5z"/><path d="m341.593 373.807h-13.131c-11.028 0-20 8.972-20 20v13.13c0 11.028 8.972 20 20 20h13.131c11.028 0 20-8.972 20-20v-13.13c0-11.028-8.971-20-20-20zm5 33.131c0 2.757-2.243 5-5 5h-13.131c-2.757 0-5-2.243-5-5v-13.13c0-2.757 2.243-5 5-5h13.131c2.757 0 5 2.243 5 5z"/></g></svg>