<?xml version="1.0"?>
<svg xmlns="http://www.w3.org/2000/svg" id="Layer_1" data-name="Layer 1" viewBox="0 0 512 512" width="512" height="512"><title>Code   location</title><path d="M256,347.07c69.477,0,126-57.969,126-129.223S325.477,88.625,256,88.625,130,146.594,130,217.847,186.523,347.07,256,347.07Zm0-246.445c62.859,0,114,52.585,114,117.222S318.859,335.07,256,335.07,142,282.484,142,217.847,193.141,100.625,256,100.625Z"/><path d="M138.067,337.763,251.626,458.72a6,6,0,0,0,8.748,0L373.933,337.763c17.287-18.414,30.016-38.616,37.835-60.044a163.631,163.631,0,0,0,9.882-67.352A173.61,173.61,0,0,0,371.521,99.342a163.119,163.119,0,0,0-231.042,0A173.61,173.61,0,0,0,90.35,210.367a163.631,163.631,0,0,0,9.882,67.352C108.051,299.147,120.78,319.349,138.067,337.763Zm-35.745-126.6A161.624,161.624,0,0,1,148.98,107.812a151.118,151.118,0,0,1,214.04,0,161.624,161.624,0,0,1,46.658,103.355,151.7,151.7,0,0,1-9.184,62.438c-7.259,19.9-19.14,38.72-35.309,55.944L256,445.847,146.815,329.55c-16.169-17.225-28.05-36.048-35.309-55.945A151.7,151.7,0,0,1,102.322,211.167Z"/><path d="M183.24,220.2l34.66,29.516a6,6,0,0,0,7.78-9.136l-29.3-24.948,29.3-24.948a6,6,0,1,0-7.78-9.136l-34.66,29.516a6,6,0,0,0,0,9.136Z"/><path d="M285.642,249.037a6,6,0,0,0,8.458.678L328.76,220.2a6,6,0,0,0,0-9.136L294.1,181.547a6,6,0,0,0-7.78,9.136l29.3,24.948-29.3,24.948A6,6,0,0,0,285.642,249.037Z"/><path d="M242.486,273.155a5.994,5.994,0,0,0,7.108-4.634l21.6-102.568a6,6,0,1,0-11.742-2.474l-21.6,102.568A6,6,0,0,0,242.486,273.155Z"/></svg>
