<svg width="16" height="20" viewBox="0 0 16 20" fill="none" xmlns="http://www.w3.org/2000/svg">
<path d="M8 0C8.69038 0 9.25 0.55965 9.25 1.25V18.75C9.25 19.4404 8.69038 20 8 20C7.30963 20 6.75 19.4404 6.75 18.75V1.25C6.75 0.55965 7.30963 0 8 0ZM14.25 5C14.9404 5 15.5 5.55965 15.5 6.25V18.75C15.5 19.4404 14.9404 20 14.25 20C13.5596 20 13 19.4404 13 18.75V6.25C13 5.55965 13.5596 5 14.25 5ZM1.75 10C2.44035 10 3 10.5596 3 11.25V18.75C3 19.4404 2.44035 20 1.75 20C1.05965 20 0.5 19.4404 0.5 18.75V11.25C0.5 10.5596 1.05965 10 1.75 10Z" fill="white"/>
</svg>
