<svg height="471pt" viewBox="-31 0 471 471.92665" width="471pt" xmlns="http://www.w3.org/2000/svg"><path d="m48.613281 393.992188h.226563l141.246094-.800782c12.628906 32.84375 40.742187 57.269532 75.023437 65.1875 34.285156 7.917969 70.261719-1.703125 96.015625-25.679687l37.464844 37.46875c2.34375 2.34375 6.144531 2.34375 8.484375 0 2.34375-2.339844 2.34375-6.140625.003906-8.484375l-37.636719-37.632813c25.425782-29.617187 32.507813-70.8125 18.429688-107.21875s-47.03125-62.121093-85.769532-66.925781l-.773437-139.878906-.007813-1.722656c-.007812-1.59375-.648437-3.117188-1.78125-4.238282l-103.335937-102.132812c-.984375-.972656-2.273437-1.574219-3.648437-1.707032l-2.148438-.1992182c-.199219-.0195313-.402344-.0195313-.601562-.0273438l-142.855469.683594c-25.785157.152344-46.582031 21.148437-46.484375 46.929687l1.441406 299.894531c.152344 25.695313 21.011719 46.453126 46.707031 46.484376zm334.386719-38.898438c0 51.914062-42.082031 94-94 94-51.914062 0-94-42.085938-94-94 0-51.917969 42.085938-94 94-94 51.894531.058594 93.945312 42.109375 94 94.003906zm-102-252.480469-48.054688.230469h-.171874c-19.101563-.003906-34.609376-15.441406-34.703126-34.539062l-.230468-47.886719zm-258.488281-79.648437c6.464843-6.558594 15.28125-10.261719 24.492187-10.28125l138.792969-.667969.273437 56.347656c.125 25.707031 20.992188 46.480469 46.699219 46.484375h.230469l56.355469-.269531.742187 134.53125c-.363281 0-.730468-.011719-1.097656-.011719-32.714844.007813-63.589844 15.117188-83.667969 40.941406-20.082031 25.820313-27.121093 59.46875-19.070312 91.171876l-137.484375.78125c-19.164063.089843-34.777344-15.371094-34.871094-34.535157l-1.441406-299.902343c-.070313-9.207032 3.546875-18.0625 10.046875-24.589844zm0 0"/><path d="m165.78125 221.519531h-20.347656c-3.3125 0-6 2.6875-6 6s2.6875 6 6 6h20.347656c3.316406 0 6-2.6875 6-6s-2.683594-6-6-6zm0 0"/><path d="m66.996094 182.636719h168.9375c3.3125 0 6-2.6875 6-6s-2.6875-6-6-6h-168.9375c-3.316406 0-6 2.6875-6 6s2.683594 6 6 6zm0 0"/><path d="m66.996094 233.519531h52.65625c3.316406 0 6-2.6875 6-6s-2.683594-6-6-6h-52.65625c-3.316406 0-6 2.6875-6 6s2.683594 6 6 6zm0 0"/></svg>