<svg id="Capa_1" enable-background="new 0 0 512.003 512.003" height="512" viewBox="0 0 512.003 512.003" width="512" xmlns="http://www.w3.org/2000/svg"><g><path style="fill:#fff;" d="m181.002 425.002c0 13.807 11.193 25 25 25h100c13.807 0 25-11.193 25-25v-25h-150z"/><path style="fill:#fff;" d="m256.002 180.002c-34.159 0-62.248 26.486-64.81 60h129.619c-2.561-33.514-30.651-60-64.809-60z"/><path style="fill:#fff;" d="m256.002.002c-96.496 0-175 78.505-175 175 0 53.149 23.778 102.791 65.236 136.196 19.062 15.36 31.102 36.355 34.049 58.804h151.431c2.947-22.449 14.986-43.443 34.048-58.804 41.458-33.405 65.236-83.047 65.236-136.196 0-96.495-78.505-175-175-175zm95 255c0 8.284-6.716 15-15 15h-160c-8.284 0-15-6.716-15-15v-10c0-36.537 20.737-68.318 51.057-84.205-9.954-10.714-16.057-25.052-16.057-40.795 0-33.084 26.916-60 60-60s60 26.916 60 60c0 15.743-6.103 30.081-16.057 40.795 30.32 15.887 51.057 47.668 51.057 84.205z"/><circle style="fill:#fff;" cx="256.002" cy="120.002" r="30"/><path style="fill:#fff;" d="m256.002 512.002c22.118 0 41.216-13.131 49.941-32h-99.882c8.725 18.869 27.823 32 49.941 32z"/><g><g><path style="fill:#fff;" d="m467.015 75.004c-4.847 0-9.604-2.346-12.495-6.682-4.595-6.893-2.732-16.206 4.161-20.801l30-20c6.892-4.597 16.206-2.733 20.801 4.16s2.732 16.206-4.161 20.801l-30 20c-2.556 1.705-5.447 2.522-8.306 2.522z"/></g><g><path style="fill:#fff;" d="m496.988 325.004c-2.859 0-5.75-.816-8.307-2.521l-30-20c-6.893-4.595-8.756-13.908-4.161-20.801 4.596-6.894 13.91-8.755 20.801-4.16l30 20c6.893 4.595 8.756 13.908 4.161 20.801-2.89 4.335-7.647 6.681-12.494 6.681z"/></g></g><g><g><path style="fill:#fff;" d="m44.988 75.004c-2.859 0-5.75-.816-8.307-2.521l-30-20c-6.893-4.595-8.756-13.908-4.161-20.801 4.596-6.894 13.91-8.756 20.801-4.16l30 20c6.893 4.595 8.756 13.908 4.161 20.801-2.89 4.335-7.647 6.681-12.494 6.681z"/></g><g><path style="fill:#fff;" d="m15.015 325.004c-4.847 0-9.604-2.346-12.495-6.682-4.595-6.893-2.732-16.206 4.161-20.801l30-20c6.892-4.597 16.206-2.733 20.801 4.16s2.732 16.206-4.161 20.801l-30 20c-2.556 1.705-5.447 2.522-8.306 2.522z"/></g></g><g><path style="fill:#fff;" d="m45.002 190.002h-30c-8.284 0-15-6.716-15-15s6.716-15 15-15h30c8.284 0 15 6.716 15 15s-6.716 15-15 15z"/></g><g><path style="fill:#fff;" d="m497.002 190.002h-30c-8.284 0-15-6.716-15-15s6.716-15 15-15h30c8.284 0 15 6.716 15 15s-6.716 15-15 15z"/></g></g></svg>