<svg id="Capa_1" enable-background="new 0 0 609.623 609.623" height="512" viewBox="0 0 609.623 609.623" width="512" xmlns="http://www.w3.org/2000/svg"><g><g id="Page-1_52_"><g id="_x30_53---Valet-Service"><path id="Shape_158_" d="m40.642 609.622h94.949c11.866-.011 23.134-5.207 30.847-14.225l12.192-14.225c5.773-7.655 14.797-12.167 24.385-12.192h193.443c12.813-.375 24.986-5.686 33.976-14.824l126.863-129.036c15.368-15.52 15.803-40.384.987-56.432s-39.636-17.596-56.331-3.514l-82.655 69.141c-8.097-11.212-21.112-17.82-34.942-17.74h-113.734c-2.107.073-4.174-.584-5.852-1.859-14.526-11.942-32.749-18.467-51.554-18.461-48.778-1.377-95.805 18.23-129.159 53.85-6.096 6.096-12.965 13.137-20.402 20.89l-53.057 58.148c-6.82 7.484-10.599 17.245-10.598 27.371v12.467c0 22.445 18.196 40.641 40.642 40.641zm-20.321-53.108c.004-5.06 1.895-9.937 5.304-13.676l52.834-58.016c7.112-7.448 13.879-14.357 19.924-20.402 29.654-31.665 71.468-49.087 114.833-47.845 14.094-.076 27.764 4.816 38.609 13.818 5.325 4.275 11.968 6.573 18.797 6.503h113.735c9.692-.17 18.355 6.017 21.337 15.241.086.526.208 1.045.366 1.555.164.818.266 1.646.305 2.479.293 5.572-1.718 11.019-5.561 15.064s-9.18 6.332-14.76 6.324h-121.996c-5.611 0-10.16 4.549-10.16 10.16s4.549 10.16 10.16 10.16h121.975c11.14.014 21.798-4.546 29.481-12.613s11.718-18.934 11.161-30.061v-.467l88.395-73.978c8.387-7.057 20.839-6.274 28.276 1.777s7.231 20.526-.467 28.328l-126.842 129.037c-5.241 5.346-12.331 8.481-19.813 8.758h-193.159c-15.762-.017-30.636 7.298-40.245 19.792l-11.796 13.737c-3.856 4.509-9.491 7.107-15.423 7.112h-94.949c-11.223 0-20.321-9.098-20.321-20.321z"/><path id="Shape_157_" d="m579.142 30.481h-20.321c-12.004.026-22.875 7.094-27.768 18.055l-181.292-47.053c-17.173-4.139-35.281.512-48.333 12.416l-42.42 38.609c-31.093 5.91-55.902 29.379-63.527 60.097s3.328 63.064 28.047 82.829v129.697c.033 5.386 2.157 10.548 5.924 14.397l30.481 30.481c7.958 7.934 20.836 7.934 28.795 0l30.684-30.684c3.657-3.822 5.705-8.904 5.72-14.194v-129.646c.945-.762 1.829-1.626 2.743-2.438h92.358c2.129-.085 4.221.568 5.924 1.849 14.504 11.933 32.701 18.462 51.483 18.472h20.219c13.155-.012 25.788-5.151 35.216-14.326 5.54 8.893 15.269 14.307 25.746 14.326h20.321c16.834 0 30.481-13.647 30.481-30.481v-121.925c0-16.834-13.647-30.481-30.481-30.481zm-365.774 101.603c.113-30.2 22.277-55.785 52.153-60.2 2.909-.51 5.856-.765 8.809-.762 25.767.111 48.698 16.365 57.335 40.642h-26.752c-11.151-.046-21.828 4.503-29.518 12.578s-11.714 18.961-11.124 30.096c1.201 16.491 12.147 30.666 27.799 35.998-18.48 5.621-38.531 2.151-54.048-9.353-15.516-11.505-24.663-29.682-24.654-48.999zm60.962 223.529-30.481-30.481v-117.749c6.515 2.636 13.346 4.412 20.321 5.283v71.824c0 5.611 4.549 10.16 10.16 10.16s10.16-4.549 10.16-10.16v-71.824c6.971-.848 13.802-2.6 20.321-5.212v117.678zm254.01-193.047c0 16.834-13.647 30.481-30.481 30.481h-20.219c-14.074.059-27.721-4.836-38.548-13.828-5.345-4.282-12.01-6.577-18.858-6.492h-113.695c-11.245.303-20.822-8.114-21.967-19.305-.312-5.572 1.695-11.024 5.543-15.066 3.849-4.041 9.197-6.311 14.777-6.271h121.925c5.611 0 10.16-4.549 10.16-10.16s-4.549-10.16-10.16-10.16h-73.907c-7.947-30.392-32.622-53.531-63.462-59.509l25.665-23.369c8.018-7.334 19.144-10.229 29.719-7.732l183.508 47.651zm60.962 20.32c0 5.611-4.549 10.16-10.16 10.16h-20.321c-5.611 0-10.16-4.549-10.16-10.16v-121.924c0-5.611 4.549-10.16 10.16-10.16h20.321c5.611 0 10.16 4.549 10.16 10.16z"/></g></g></g></svg>