<svg width="8" height="8" viewBox="0 0 8 8" fill="none" xmlns="http://www.w3.org/2000/svg">
<path d="M1.61504 5.31787C2.4041 6.2611 3.35396 7.00373 4.4381 7.52923C4.85086 7.72483 5.40286 7.9569 6.01786 7.9967C6.056 7.99833 6.09246 8 6.1306 8C6.54333 8 6.8749 7.85743 7.1451 7.56403C7.14673 7.56237 7.15006 7.55907 7.15173 7.55573C7.24786 7.4397 7.35726 7.33527 7.47166 7.2242C7.54956 7.1496 7.62913 7.0717 7.7054 6.99213C8.05846 6.62413 8.05846 6.15667 7.70206 5.80023L6.7058 4.80397C6.53673 4.62827 6.33446 4.53543 6.1223 4.53543C5.9101 4.53543 5.70623 4.62827 5.53216 4.80233L4.9387 5.39577C4.884 5.36427 4.82763 5.3361 4.7746 5.30957C4.7083 5.27643 4.64696 5.24493 4.59226 5.2101C4.05183 4.86697 3.56116 4.4194 3.09204 3.84417C2.85499 3.54413 2.69585 3.29217 2.58479 3.03523C2.74061 2.89432 2.88649 2.74679 3.02739 2.60257C3.07712 2.55118 3.12851 2.49979 3.1799 2.4484C3.35893 2.26937 3.45506 2.06216 3.45506 1.85164C3.45506 1.64111 3.3606 1.4339 3.1799 1.25487L2.68591 0.76088C2.62789 0.70286 2.57319 0.646497 2.51682 0.58848C2.40742 0.475757 2.29304 0.359717 2.18031 0.255284C2.00957 0.0878573 1.80899 0 1.59681 0C1.38628 0 1.18404 0.0878573 1.00667 0.256942L0.386697 0.876917C0.16125 1.10236 0.033608 1.37588 0.00708482 1.6925C-0.0244113 2.08869 0.048527 2.50974 0.237503 3.01865C0.5276 3.80607 0.965227 4.5371 1.61504 5.31787ZM0.41156 1.72731C0.431453 1.50684 0.515993 1.32283 0.675133 1.1637L1.29179 0.547037C1.38794 0.454207 1.49403 0.406133 1.59681 0.406133C1.69793 0.406133 1.8007 0.454207 1.89519 0.550353C2.00626 0.65313 2.11069 0.76088 2.22341 0.87526C2.27977 0.933277 2.33779 0.991297 2.39581 1.05097L2.8898 1.54496C2.99258 1.64774 3.04563 1.75218 3.04563 1.85495C3.04563 1.95773 2.99258 2.06216 2.8898 2.16494C2.83842 2.21633 2.78703 2.26937 2.73564 2.32076C2.58147 2.47659 2.43725 2.62412 2.27812 2.76502C2.2748 2.76834 2.27314 2.77 2.26983 2.77331C2.13224 2.9109 2.15379 3.04186 2.18694 3.14132C2.1886 3.14629 2.19026 3.14961 2.19192 3.15458C2.31956 3.46127 2.49693 3.753 2.77377 4.10113C3.27107 4.71447 3.7949 5.19023 4.37176 5.55657C4.44306 5.603 4.5193 5.63947 4.5906 5.67593C4.6569 5.70907 4.71823 5.74057 4.77293 5.77537C4.77956 5.7787 4.78453 5.782 4.79116 5.78533C4.84586 5.8135 4.89893 5.82677 4.95196 5.82677C5.0846 5.82677 5.1708 5.74223 5.19896 5.71403L5.81893 5.09407C5.9151 4.99793 6.01953 4.94653 6.1223 4.94653C6.24826 4.94653 6.35106 5.02447 6.4157 5.09407L7.4153 6.092C7.6142 6.29093 7.61256 6.50643 7.41033 6.71697C7.3407 6.79153 7.26776 6.86283 7.18983 6.93743C7.0738 7.05013 6.9528 7.1662 6.8434 7.29713C6.65276 7.5027 6.42566 7.59883 6.13223 7.59883C6.10406 7.59883 6.07423 7.59717 6.04603 7.59553C5.50233 7.5607 4.99673 7.34853 4.61713 7.16783C3.58603 6.66887 2.68093 5.96103 1.93 5.06257C1.31168 4.31827 0.895607 3.62537 0.62043 2.88272C0.449687 2.42685 0.385037 2.06051 0.41156 1.72731Z" fill="white"/>
</svg>
