<svg width="8" height="6" viewBox="0 0 8 6" fill="none" xmlns="http://www.w3.org/2000/svg">
<path d="M7.33333 0H0.666673C0.298984 0 0 0.298984 0 0.666673V5.33333C0 5.701 0.298984 6 0.666673 6H7.33333C7.701 6 8 5.701 8 5.33333V0.666673C8 0.298984 7.701 0 7.33333 0ZM0.666673 0.333328H7.33333C7.3579 0.333328 7.37953 0.34228 7.4026 0.347343C6.82543 0.875577 4.9116 2.62639 4.24187 3.22981C4.18947 3.27702 4.105 3.33333 4 3.33333C3.89503 3.33333 3.81057 3.27702 3.758 3.22966C3.08831 2.62633 1.17439 0.875423 0.597313 0.347377C0.620407 0.342313 0.642093 0.333328 0.666673 0.333328ZM0.333328 5.33333V0.666673C0.333328 0.634017 0.343173 0.60439 0.351983 0.574547C0.793733 0.97886 2.12911 2.20048 2.99498 2.98787C2.13192 3.72923 0.796203 4.9956 0.350937 5.4202C0.343077 5.39187 0.333328 5.36413 0.333328 5.33333ZM7.33333 5.66667H0.666673C0.640047 5.66667 0.616373 5.6574 0.591517 5.65147C1.05163 5.21283 2.39584 3.93917 3.24373 3.21381C3.35427 3.31408 3.45523 3.4055 3.53483 3.47723C3.6722 3.60127 3.833 3.66667 4 3.66667C4.167 3.66667 4.3278 3.60123 4.465 3.47737C4.54463 3.40563 4.64567 3.31412 4.75627 3.21381C5.6042 3.9391 6.94823 5.21267 7.4085 5.65147C7.38363 5.6574 7.36 5.66667 7.33333 5.66667ZM7.66667 5.33333C7.66667 5.36413 7.65693 5.39187 7.64907 5.4202C7.20363 4.9954 5.86807 3.72917 5.00503 2.98789C5.87093 2.2005 7.2061 0.978983 7.648 0.574517C7.65683 0.60436 7.66667 0.634 7.66667 0.666657V5.33333Z" fill="white"/>
</svg>
