<?xml version="1.0" encoding="utf-8"?>
<!-- Generator: Adobe Illustrator 24.1.0, SVG Export Plug-In . SVG Version: 6.00 Build 0)  -->
<svg version="1.0" id="Layer_13" xmlns="http://www.w3.org/2000/svg" xmlns:xlink="http://www.w3.org/1999/xlink" x="0px" y="0px"
	 viewBox="0 0 1000 635.2" style="enable-background:new 0 0 1000 635.2;" xml:space="preserve">
<style type="text/css">
	.st0{fill:none;stroke:#020202;stroke-width:4;stroke-linecap:round;stroke-miterlimit:10;}
	.st1{fill:#685378;}
	.st2{fill:none;stroke:#9B4D2F;stroke-width:1.0697;stroke-miterlimit:10;}
	.st3{fill:none;stroke:#000000;stroke-width:1.0697;stroke-miterlimit:10;}
	.st4{fill:url(#SVGID_1_);}
	.st5{fill:url(#SVGID_2_);}
	.st6{fill:url(#SVGID_3_);}
	.st7{fill:url(#SVGID_4_);}
	.st8{fill:url(#SVGID_5_);}
	.st9{fill:#D4B5BA;}
	.st10{fill:#F7EFEE;}
	.st11{fill:#94666F;}
	.st12{fill:#CBE7F4;}
	.st13{fill:#FFFFFF;}
	.st14{fill:#986A73;}
	.st15{fill:#AE8D93;}
	.st16{fill:#A88F8A;}
	.st17{fill:#371841;}
	.st18{fill:#4E1E21;}
	.st19{fill:#FFC2B5;}
	.st20{fill:#FEAC98;}
	.st21{fill:#8E11B7;}
	.st22{fill:#75109B;}
	.st23{fill:none;stroke:#000000;stroke-width:2;stroke-linecap:round;stroke-miterlimit:10;}
	.st24{fill:#E28F7F;}
	.st25{fill:#EFEFEF;}
	.st26{fill:#E2D5CC;}
	.st27{fill:none;stroke:#D2AEB4;stroke-width:3.4569;stroke-miterlimit:10;}
	.st28{fill:#6FB5A7;}
	.st29{fill:#FF486D;}
	.st30{fill:none;stroke:#D2AEB4;stroke-width:3.4569;stroke-linecap:round;stroke-linejoin:round;}
	
		.st31{fill:none;stroke:#D2AEB4;stroke-width:3.4569;stroke-linecap:round;stroke-linejoin:round;stroke-dasharray:11.2862,11.2862;}
	.st32{fill:#D2AEB4;}
	.st33{fill:none;stroke:#371841;stroke-width:2;stroke-linecap:round;stroke-miterlimit:10;}
	.st34{fill:none;stroke:#371841;stroke-linecap:round;stroke-miterlimit:10;}
	.st35{fill:none;stroke:#E28F7F;stroke-width:2;stroke-linecap:round;stroke-linejoin:round;stroke-miterlimit:10;}
	.st36{clip-path:url(#SVGID_7_);}
	.st37{fill:#FF866D;}
	.st38{fill:#F16A58;}
	.st39{fill:#F26A57;}
	.st40{fill:none;stroke:#E6524D;stroke-width:1.194;stroke-linecap:round;stroke-linejoin:round;stroke-miterlimit:10;}
	.st41{fill:#FFFFFF;stroke:#E6524D;stroke-width:1.337;stroke-linecap:round;stroke-linejoin:round;stroke-miterlimit:10;}
	.st42{fill:#154BE5;}
	.st43{fill:#E5DA79;}
	.st44{fill:#F9F4C3;}
	.st45{fill:#95E98E;}
	.st46{fill:#020202;}
</style>
<g>
	<line class="st0" x1="91.1" y1="552.9" x2="902.6" y2="552.9"/>
	<g>
		<path class="st1" d="M161.9,551.3h-28.7c-14.1,0-25.5-11.4-25.5-25.5v-43h79.7v43C187.3,539.9,175.9,551.3,161.9,551.3z"/>
		<path class="st2" d="M147.5,484.3c10.1-82-26.7-80.4-26.7-80.4"/>
		<path class="st2" d="M184.5,403.9c0,0-35.2,24.4-35.3,42.6"/>
		<path class="st3" d="M118.9,456.6"/>
		<path class="st3" d="M118.9,454.8"/>
		<path class="st2" d="M113,453.7c0,0,28-9.4,35.9,14.9"/>
		<path class="st2" d="M149.2,454.8c0,0,20.5,5.1,21.1,24.6"/>
		<linearGradient id="SVGID_1_" gradientUnits="userSpaceOnUse" x1="87.3938" y1="412.5014" x2="124.2102" y2="394.294">
			<stop  offset="0" style="stop-color:#FF644E"/>
			<stop  offset="1" style="stop-color:#F92C16"/>
		</linearGradient>
		<path class="st4" d="M123.9,395.9c-4-21-38.1-20.1-40.2,19.7C83.7,417.5,131.8,437.8,123.9,395.9z"/>
		<linearGradient id="SVGID_2_" gradientUnits="userSpaceOnUse" x1="198.3653" y1="382.9191" x2="220.6114" y2="427.3029">
			<stop  offset="0" style="stop-color:#FFA100"/>
			<stop  offset="1" style="stop-color:#F76806"/>
		</linearGradient>
		<path class="st5" d="M193.3,382.3c-27,12.2-8.6,44.8,31.2,46.2C226.3,426.9,247.9,357.6,193.3,382.3z"/>
		<linearGradient id="SVGID_3_" gradientUnits="userSpaceOnUse" x1="93.3921" y1="479.3452" x2="117.3167" y2="454.6456">
			<stop  offset="0" style="stop-color:#962C61"/>
			<stop  offset="1" style="stop-color:#D83084"/>
		</linearGradient>
		<path class="st6" d="M114.5,447.5c-22.5-16.1-39.9,14-22.4,46.7C94.2,494.9,159.8,479.9,114.5,447.5z"/>
		<linearGradient id="SVGID_4_" gradientUnits="userSpaceOnUse" x1="148.6153" y1="471.6313" x2="153.4713" y2="439.9149">
			<stop  offset="0" style="stop-color:#FF644E"/>
			<stop  offset="1" style="stop-color:#F92C16"/>
		</linearGradient>
		<path class="st7" d="M151.4,432.4c-24-0.5-32.5,29.2,0,44.8C170.7,472.5,190.4,433.1,151.4,432.4z"/>
		<linearGradient id="SVGID_5_" gradientUnits="userSpaceOnUse" x1="171.0855" y1="480.7621" x2="175.2489" y2="514.1342">
			<stop  offset="0" style="stop-color:#962C61"/>
			<stop  offset="1" style="stop-color:#D83084"/>
		</linearGradient>
		<path class="st8" d="M171.7,473.8c-18.4-0.4-25,26,0,39.8C186.5,509.5,201.7,474.5,171.7,473.8z"/>
	</g>
	<rect x="729.4" y="369.3" class="st9" width="186.9" height="23.3"/>
	<rect x="729.4" y="55.1" class="st10" width="165.5" height="312.6"/>
	<path class="st11" d="M738.3,235.8h-11.5v16.3c0,2.9,2.3,5.2,5.2,5.2h1.1c2.9,0,5.2-2.3,5.2-5.2V235.8z"/>
	<rect x="747.6" y="82.3" class="st12" width="131.9" height="265.9"/>
	<polygon class="st13" points="747.5,184.2 758.7,184.2 758.7,177.1 792.1,177.1 792.1,184.2 810,184.2 810,217.3 842.4,217.3 
		842.4,347.9 747.5,347.9 	"/>
	<rect x="757.8" y="201.2" class="st10" width="13.7" height="14.4"/>
	<rect x="757.8" y="237" class="st10" width="13.7" height="14.4"/>
	<rect x="788.1" y="226.8" class="st10" width="13.7" height="14.4"/>
	<rect x="729.3" y="69.2" class="st11" width="5.6" height="167.9"/>
	<rect x="705.5" y="52.7" class="st14" width="209.8" height="18.9"/>
	<rect x="714.5" y="82.1" class="st15" width="200.8" height="9.5"/>
	<rect x="714.5" y="104.4" class="st15" width="200.8" height="9.5"/>
	<rect x="714.5" y="126.8" class="st15" width="200.8" height="9.5"/>
	<rect x="714.5" y="149.1" class="st15" width="200.8" height="9.5"/>
	<rect x="714.5" y="171.5" class="st15" width="200.8" height="9.5"/>
	<rect x="714.5" y="193.4" class="st15" width="200.8" height="9.5"/>
	<path class="st16" d="M592.3,552.1h202V293c0-16.4-13.3-29.7-29.7-29.7H622c-16.4,0-29.7,13.3-29.7,29.7V552.1z"/>
	<path class="st17" d="M553.1,315.5c0,0-6.1-16.4,2.8-35.1c8.8-18.7,3.5-25.8,2.3-31.1s-1.5-13.9-0.3-17.4c0,0-20.2-4.6,0.5-33.1
		c20.7-28.6,45.8-27.6,45.8-27.6s35.6-6.3,46.5,24.3s17.7,56.6,26.5,62.7c8.8,6.1,44,24,20.2,53.8L553.1,315.5z"/>
	<path class="st18" d="M504.5,390.3c0,0,2.8,14.1,26.2,18.2c23.4,4.2,11.5-10.2,11.5-10.2S513.6,387.5,504.5,390.3"/>
	<path class="st19" d="M526.8,511.9c-24.1,9.2-56.2,9.5-56.2,9.5l-3.3-6.8l-13.1-26.9c0,0,35.5-8.5,37.8-11.9
		c2.3-3.4,22.4-43.6,28.7-85.3c0,0,23.8,3.5,24.1,13.6c0.1,2.3,1.8,26.3,2.9,39c0.3,3.3,0.6,5.8,0.9,7
		C549.9,456.1,550.8,502.8,526.8,511.9z"/>
	<path class="st20" d="M526.8,511.9c-24.1,9.2-56.2,9.5-56.2,9.5l-3.3-6.8c13.5-0.8,50.9-4.3,60.8-18.8
		c9.2-13.6,16.6-40.6,19.6-52.7c0.3,3.3,0.6,5.8,0.9,7C549.9,456.1,550.8,502.8,526.8,511.9z"/>
	<path class="st18" d="M736.2,417.1c0,0-6.7,11.8-25.7,9.4c-19.1-2.5-2-15-2-15L736.2,417.1z"/>
	<path class="st21" d="M736,417.3c-1-0.6-17.3-3.5-17.3-3.5l-11.9,55.7L705,478c0,22.5-10.6,72.8-10.6,72.8H498.2l13.9-10.6
		c39.7-28.2,37.8-86.8,36-96.4c-1.8-9.6-4.8-40.7-4.8-40.7c-7.1-12.4-38.7-12.9-38.7-12.9s2.5-2.8,7.1-7.6
		c4.5-4.8,19.5-36.4,29.1-58.4c9.6-22,33.4-25.3,42.2-26.8c8.8-1.5,30.3-10.6,30.3-10.6l29.6-7.8c3.8,4.3,21.8,16.9,36.1,23.2
		c37.7,2.4,48.1,51.8,48.1,56.8c0,5-2.2,11.7,4.1,24.5C737.5,396.3,737.6,418.4,736,417.3z"/>
	<path class="st22" d="M706.8,469.5L705,478c0,22.5-10.6,72.8-10.6,72.8h-110c23.9-17.8,46.5-60.1,56.2-68.5
		c12.2-10.5,11.4-47.1,7.2-47.1s-67.3-19.5-30.5-17.1c36.8,2.4,29.8-34.9,30.5-48.9c0.7-14,6.6-16.9,6.6-16.9s4.7-9.9,7.5-15.1
		c2.8-5.2,4.2,83.9,4.2,83.9l20.3,11.8L706.8,469.5z"/>
	<path class="st23" d="M557.6,345.6c0,0,0.3,23.2-3.5,30.3c-3.8,7.1-11.2,14.8-9.4,28.3"/>
	<path class="st23" d="M663.6,364c0,0,4,52.7,2.5,57.3"/>
	<path class="st19" d="M720.4,414.9c0,0-12.9,97.9-36.5,117.2c-3,1.1-45.6-4.4-74.9-8.4c-15.6-2.1-27.3-3.8-27.3-3.8
		s-12.6,19.4-16.8,20c-4.2,0.6-29.9,0-29.9,0l4.2-12.5l-13.1,12.8l-6.3-0.3c0,0,31.5-48.4,55.2-50.8h77.2c0,0,14.2-54.3,13.8-68
		c0,0,17.1-7.2,19.7-9.1c0,0,13.9-1.4,23.9-0.3c0.8,0.1,1.5,0.2,2.2,0.3C721.8,413.7,720.4,414.9,720.4,414.9z"/>
	<path class="st20" d="M720.4,414.9c0,0-12.9,97.9-36.5,117.2c-3,1.1-45.6-4.4-74.9-8.4c23.3-0.3,65.8-1.9,71.5-10.1
		c6.6-9.5,23.6-77.6,29.2-101.8c0.8,0.1,1.5,0.2,2.2,0.3C721.8,413.7,720.4,414.9,720.4,414.9z"/>
	<path class="st20" d="M666.1,421.2c0,0,36.6-10.2,39.4,5.6c2.9,15.7,6.3-14.6,6.3-14.6s-9.3-1-11.4-0.7c-2.1,0.3-14.7,0.7-14.7,0.7
		L666.1,421.2z"/>
	<path class="st19" d="M639.8,313.3c-5.8,8.5-28,28.4-37.1,9c-5.3-11.4-2.6-20.8,0.6-26.5c2.2-4,4.7-6.3,4.7-6.3l-2.5-5.3
		c-2.6,1.1-5,1.8-7.2,2.4c-2.4,0.5-4.6,0.8-6.6,0.8c-24.5-0.2-25.5-37.9-25.9-42.3c-0.5-5.1-3.5-15.2-3.5-18.5
		c0-3.3,19.9-27.8,24.8-29.3c8.3-2.6,11.6-17.2,11.6-17.2c0.2,8.3-6.6,15.9-6.6,15.9c4.2,21.4,20.5,31.7,29.4,35.9
		c3.5,1.6,5.9,2.3,5.9,2.3c-0.1-15.2,10.5-13.4,13.3-11.4c11.1,14.4-3,26.3-3,26.3c-2.8,13.9,5.3,30.1,5.3,30.1
		C652.9,293.2,645.6,304.8,639.8,313.3z"/>
	<path class="st20" d="M639.8,313.3c-5.8,8.5-28,28.4-37.1,9c-5.3-11.4-2.6-20.8,0.6-26.5c2.2-4,4.7-6.3,4.7-6.3l-2.5-5.3
		c-2.6,1.1-5,1.8-7.2,2.4c-2.4,0.5-4.6,0.8-6.6,0.8c33.9-12.3,32.5-41.8,29.7-55.5c3.5,1.6,5.9,2.3,5.9,2.3
		c-0.1-15.2,10.5-13.4,13.3-11.4c11.1,14.4-3,26.3-3,26.3c-2.8,13.9,5.3,30.1,5.3,30.1C652.9,293.2,645.6,304.8,639.8,313.3z"/>
	<path class="st24" d="M624,270.6c-3.5,18.9-14.7,23.9-20.8,25.2c2.2-4,4.7-6.3,4.7-6.3l-2.5-5.3c-2.6,1.1-5,1.8-7.2,2.4
		C614.9,279.6,624,270.6,624,270.6z"/>
	<rect x="470.7" y="543.3" class="st25" width="138.4" height="9"/>
	<path class="st26" d="M236.7,422.9h179.9c5.4,0,10.2,3.1,12.4,8l55.2,121.4h-201L230.2,433C228.1,428.2,231.6,422.9,236.7,422.9z"
		/>
	<circle class="st27" cx="223.8" cy="237.2" r="78.2"/>
	<path class="st28" d="M405.8,240.7h-34.3c-1.5,0-2.8-1.2-2.8-2.8c0-1.5,1.2-2.8,2.8-2.8l34.3,0c1.5,0,2.8,1.2,2.8,2.8
		C408.6,239.4,407.3,240.7,405.8,240.7L405.8,240.7z M395.3,249.1h-23.9c-1.5,0-2.8-1.2-2.8-2.8c0-1.5,1.2-2.8,2.8-2.8h23.9
		c1.5,0,2.8,1.2,2.8,2.8C398.1,247.8,396.8,249.1,395.3,249.1z M416.8,227.5H369c-8.2,0-14.8,6.6-14.8,14.8c0,6.9,4.7,12.6,11,14.3
		l-3.9,11.1c-0.1,0.3-0.1,0.5-0.1,0.8c0,0,0,0.1,0,0.1c0,0.3,0.1,0.6,0.2,0.9c0,0,0,0.1,0,0.1c0.1,0.3,0.3,0.6,0.5,0.8
		c0,0,0,0,0,0.1c0,0,0,0,0.1,0.1c0.1,0.1,0.2,0.1,0.2,0.2c0.1,0.1,0.1,0.1,0.2,0.2c0.1,0,0.2,0.1,0.2,0.1c0.1,0,0.2,0.1,0.3,0.1
		c0,0,0,0,0.1,0c0,0,0.1,0,0.1,0c0.3,0.1,0.5,0.1,0.8,0.1h0c0.3,0,0.6-0.1,0.9-0.2c0.1,0,0.2-0.1,0.3-0.1c0.2-0.1,0.4-0.2,0.6-0.4
		c0,0,0.1-0.1,0.1-0.1l14-13.6h36.8c8.2,0,14.8-6.6,14.8-14.8C431.6,234.1,425,227.5,416.8,227.5L416.8,227.5z"/>
	<path class="st29" d="M489.2,290.1h-48.5c-1.5,0-2.8-1.2-2.8-2.8c0-1.5,1.2-2.8,2.8-2.8h48.5c1.5,0,2.8,1.2,2.8,2.8
		C492,288.9,490.8,290.1,489.2,290.1z M479.8,298.3h-33.9c-1.5,0-2.8-1.2-2.8-2.8c0-1.5,1.2-2.8,2.8-2.8h33.9c1.5,0,2.8,1.2,2.8,2.8
		C482.6,297,481.3,298.3,479.8,298.3z M506.2,291.6c0-9.4-7.6-17-17-17h-56.7c-9.4,0-17,7.6-17,17c0,9.4,7.6,17,17,17h43.8
		l16.8,16.2c0,0,0.1,0.1,0.1,0.1c0.2,0.2,0.4,0.3,0.6,0.4c0.1,0,0.2,0.1,0.3,0.1c0.3,0.1,0.6,0.2,0.9,0.2c0.3,0,0.6-0.1,0.8-0.1
		c0,0,0.1,0,0.1,0c0,0,0,0,0.1,0c0.1,0,0.2-0.1,0.3-0.1c0.1,0,0.2-0.1,0.2-0.1c0.1,0,0.1-0.1,0.2-0.2c0.1-0.1,0.2-0.1,0.2-0.2
		c0,0,0,0,0.1-0.1c0,0,0,0,0-0.1c0.2-0.2,0.4-0.5,0.5-0.8c0,0,0-0.1,0-0.1c0.1-0.3,0.2-0.6,0.2-0.9c0,0,0-0.1,0-0.1
		c0-0.3,0-0.5-0.1-0.8l-4.8-13.7C500.6,306.4,506.2,299.7,506.2,291.6L506.2,291.6z"/>
	<path class="st28" d="M412.1,351.2h-65.4c-2,0-3.5-1.6-3.5-3.5c0-2,1.6-3.5,3.5-3.5l65.4,0c2,0,3.5,1.6,3.5,3.5
		C415.6,349.6,414,351.2,412.1,351.2z M346.7,333.5h50.9c2,0,3.5,1.6,3.5,3.5c0,2-1.6,3.5-3.5,3.5h-50.9c-2,0-3.5-1.6-3.5-3.5
		C343.1,335.1,344.7,333.5,346.7,333.5z M411.4,322.3H345c-11.1,0-20.2,9.1-20.2,20.2c0,9.5,6.6,17.5,15.4,19.6l-5.5,15.8
		c-0.1,0.3-0.2,0.7-0.2,1c0,0.1,0,0.1,0,0.2c0,0.4,0.1,0.8,0.2,1.2c0,0.1,0,0.1,0.1,0.2c0.2,0.4,0.4,0.7,0.7,1c0,0,0,0.1,0,0.1
		c0,0,0.1,0,0.1,0.1c0.1,0.1,0.2,0.2,0.3,0.3c0.1,0.1,0.2,0.1,0.3,0.2c0.1,0.1,0.2,0.1,0.3,0.2c0.1,0.1,0.2,0.1,0.3,0.2
		c0,0,0.1,0,0.1,0c0,0,0.1,0,0.1,0c0.3,0.1,0.7,0.2,1.1,0.2c0.4,0,0.8-0.1,1.2-0.2c0.1,0,0.2-0.1,0.3-0.2c0.3-0.1,0.5-0.3,0.7-0.5
		c0.1,0,0.1-0.1,0.2-0.1l19.6-18.9h51.3c11.1,0,20.2-9.1,20.2-20.2C431.6,331.4,422.6,322.3,411.4,322.3L411.4,322.3z"/>
	<g>
		<g>
			<line class="st30" x1="267" y1="315.5" x2="270.4" y2="320.4"/>
			<line class="st31" x1="276.7" y1="329.7" x2="324.4" y2="399.7"/>
			<line class="st30" x1="327.6" y1="404.3" x2="331" y2="409.3"/>
		</g>
	</g>
	<circle class="st32" cx="223.8" cy="237.2" r="64.9"/>
	<path class="st33" d="M565.6,218.2c0,0,19.4-10.4,23.6-24.3"/>
	<path class="st34" d="M592.5,195.9c0,0-1.9,9.6,0,13.1c1.9,3.5,7,6.4,5.6,10.6"/>
	<path class="st35" d="M584.1,238.2c0,0,0.5,12.5-0.6,15.6c-1.2,3.1-2.8,5.7,6.4,3.6"/>
	<path class="st24" d="M582.5,267.6c0,0,1.9-2.7,8-2.6c6.1,0.1,8.8,0,8.8,0s-4.8,5.8-7.6,6.4S582,272.4,582.5,267.6z"/>
	<path d="M595.4,239.9c0,0-0.1-3.3,10.6-2.6l-3.2,2.6c0,0,1.8,5.5-3.5,5.5S595.4,239.9,595.4,239.9z"/>
	<path d="M579,243.5c0,0,0.1-2.9-9.1-2.2l2.8,2.2c0,0-1.6,4.8,3,4.8S579,243.5,579,243.5z"/>
	<path d="M593,231.5c-0.1-2.8,8.7-4.2,15-1.3c0,0-9.5-0.3-12,3.5C593,235,593,231.5,593,231.5z"/>
	<path d="M579.7,233.6c-0.3-2.4-8.1-2.4-13.2,1c0,0,8.2-1.6,10.9,1.3C580.2,236.6,579.7,233.6,579.7,233.6z"/>
	<g>
		<defs>
			<circle id="SVGID_6_" cx="223.8" cy="237.2" r="64.9"/>
		</defs>
		<clipPath id="SVGID_7_">
			<use xlink:href="#SVGID_6_"  style="overflow:visible;"/>
		</clipPath>
		<g class="st36">
			<g id="Layer_6_2_">
				<path class="st37" d="M260.9,297.2c0,0-13.7,14-31.9,13.8c-18.2-0.2-42.8-8.2-46-15.9c0,0,16.6,0.1,21.7-14.7
					c1-3,1.6-6.6,1.4-10.9c32.9-2.1,32.9-2.1,32.9-2.1s-0.1,0.6-0.2,1.7C238.7,274.6,239.7,291.2,260.9,297.2z"/>
			</g>
			<g id="Layer_47_1_">
				<path class="st17" d="M238.9,269.2c-5.3,10-26.5,11.2-34.1,11.3c1-3,1.6-6.6,1.4-10.9c32.9-2.1,32.9-2.1,32.9-2.1
					S238.9,268.1,238.9,269.2z"/>
			</g>
			<g id="Layer_2_2_">
				<path class="st37" d="M191.2,216.4c-1.6,4.8-2.2,43.3,14.3,52.7s42.3,8,45.2-32.1c2.9-40.2-15.2-39.9-15.2-39.9L191.2,216.4z"/>
			</g>
			<g id="Layer_3_2_">
				<path class="st17" d="M198.6,185.9c10-6.8,18.1-0.9,20.7-1.6c2.6-0.7,21.2-3.5,27.3,6.1c6.6,3.1,15.9,7.7,11.3,24.3
					c1.7,3.9,9.2,22.5-8.1,26.6c0,0-1-19-2.3-21c-1.2-2-8.2-9.7-5.2-16.6c0,0-3-2.1-4.9,1.2c-1.9,3.3-11.2,5.4-17,2.3
					c-3.9,3.3-8.1,11-18.9,8.2c0,0-2.7-0.8-3.1,1.4c-0.4,2.2-2.9,8.1-7.4,7.3c0,0-0.2,17.4,1.2,19.5c0,0-4.6-4.2-7.1-5.7
					c-2.4-1.5-8.2-7.8-5.3-15.2c2.8-7.4,4.2-13.5,4.2-15.6c0-2.1,0.4-4.7,4.2-7.5C189.6,193.8,198.6,185.9,198.6,185.9z"/>
				<path class="st38" d="M247.1,254.5c0,0,6.3-0.5,7.7-6.6c1.4-6.1,3.3-12.4-5.3-11.2C249.5,236.8,250.4,247.4,247.1,254.5z"/>
				<path class="st39" d="M191.3,238.3c0,0-7.8,0.7-5.2,9.7c2.6,9,9.7,8.7,9.7,8.7S191.4,242.1,191.3,238.3z"/>
			</g>
			<g id="Layer_5_2_">
				<path class="st17" d="M207.8,222.7c-5.6-0.4-8.1,1.4-11.3,5.7c0,0,6.1-3.4,9.1-3.4c3,0,10.6,2.2,10.6,2.2
					S215.1,223.2,207.8,222.7z"/>
				<path class="st17" d="M235.7,221.9c-4.8-0.2-9.8,2.5-9.9,3.5c-0.1,1,0.7,1.9,2.7,1.2c2.1-0.7,11.6-4.1,17,0.6
					C245.5,227.3,241.9,222.1,235.7,221.9z"/>
			</g>
			<g id="Layer_4_2_">
				<path class="st40" d="M217.2,228.5c0,0,5,12,0.5,17.6"/>
				
					<ellipse transform="matrix(0.9862 -0.1657 0.1657 0.9862 -36.0914 37.8285)" class="st17" cx="208.7" cy="235.3" rx="2.1" ry="2.8"/>
				
					<ellipse transform="matrix(0.9862 -0.1657 0.1657 0.9862 -35.4678 41.9154)" class="st17" cx="233.5" cy="233.6" rx="2.1" ry="2.8"/>
				<path class="st41" d="M221.8,260c-6,0.3-8.7-6-8.7-6h16.3C229.3,254,227.8,259.8,221.8,260z"/>
			</g>
			<path class="st42" d="M283.3,315.5H162.4v-5c0-11.7,8.4-21.2,18.7-21.2h21.1h36.8h25.5c10.3,0,18.7,9.5,18.7,21.2V315.5z"/>
		</g>
	</g>
	<g>
		<g>
			<g>
				<path class="st43" d="M732.8,538.7c0.6,0,1.1-0.5,1.2-1.1c0-0.6-0.5-1.2-1.1-1.2c-13.2-0.7-14.6-19.8-14.7-24.7h11.1
					c0.6,0,1.2-0.5,1.2-1.2c0-0.6-0.5-1.2-1.2-1.2H717c-0.6,0-1.1,0.5-1.2,1.1c0,0.3-0.1,6.8,1.8,13.5
					C720.2,533.3,725.5,538.4,732.8,538.7C732.7,538.7,732.8,538.7,732.8,538.7z"/>
				<path d="M732.7,539.3c-7.5-0.4-12.9-5.6-15.6-15.1c-1.9-6.8-1.8-13.4-1.8-13.7c0-1,0.8-1.7,1.7-1.7h12.3c1,0,1.7,0.8,1.7,1.7
					c0,1-0.8,1.7-1.7,1.7h-10.5c0.1,2.6,0.5,8.1,2.4,13.1c2.4,6.6,6.4,10.1,11.7,10.4c1,0,1.7,0.9,1.7,1.8
					C734.5,538.6,733.7,539.3,732.7,539.3L732.7,539.3z M717,510c-0.3,0-0.6,0.3-0.6,0.6c0,0.3-0.1,6.7,1.8,13.4
					c2.6,9,7.6,13.9,14.6,14.2l0,0c0.3,0,0.6-0.2,0.6-0.6c0-0.3-0.2-0.6-0.6-0.6c-5.9-0.3-10.2-4-12.8-11.1
					c-2-5.6-2.4-11.7-2.5-14.1l0-0.6h11.7c0.3,0,0.6-0.3,0.6-0.6s-0.3-0.6-0.6-0.6H717z"/>
			</g>
		</g>
		<g>
			<g>
				<path class="st43" d="M772.5,551.5l4.7-43.4c0.1-0.7-0.1-1.4-0.6-1.9c-0.5-0.5-1.1-0.8-1.8-0.8h-43.9c-0.7,0-1.4,0.3-1.9,0.8
					c-0.5,0.5-0.7,1.2-0.6,1.9l5.6,43.4H772.5z"/>
			</g>
			<g>
				<path d="M730.8,505.9h43.9c1.1,0,2,1,1.9,2.1l-4.6,42.9h-37.5l-5.5-42.9C728.8,506.9,729.7,505.9,730.8,505.9 M730.8,504.8
					c-0.9,0-1.7,0.4-2.3,1c-0.6,0.7-0.8,1.5-0.7,2.4l5.5,42.9l0.1,1h1H772h1l0.1-1l4.6-42.9c0.1-0.9-0.2-1.7-0.8-2.4
					c-0.6-0.6-1.4-1-2.3-1H730.8L730.8,504.8z"/>
			</g>
		</g>
		<g>
			<polygon class="st44" points="763.2,550.9 769.3,550.9 774.4,505.9 768.2,505.9 			"/>
		</g>
		<g>
			<path d="M742.4,518.5c0,0,0.1,0,0.1,0c0.5-0.1,0.8-0.5,0.7-1c0-0.2-0.8-4.7-3-6.6c-1.3-1.2-1.4-3.9-1.4-4.9
				c0-0.5-0.3-0.9-0.8-0.9c-0.5,0-0.9,0.3-0.9,0.8c0,0.2-0.3,4.4,2,6.4c1.4,1.2,2.2,4.5,2.4,5.6
				C741.6,518.2,741.9,518.5,742.4,518.5z"/>
		</g>
		<g>
			<path class="st45" d="M735.6,533.3h14v-9c0-3.7-3-6.7-6.7-6.7h-0.6c-3.7,0-6.7,3-6.7,6.7V533.3z"/>
			<path class="st46" d="M735,523.4c0-3.5,2.8-6.3,6.3-6.3h2.6c3.5,0,6.3,2.8,6.3,6.3v10.5H735V523.4z M749,523.4
				c0-2.8-2.3-5.1-5.1-5.1h-2.6c-2.8,0-5.1,2.3-5.1,5.1v9.4H749V523.4z"/>
		</g>
		<g>
			<path class="st13" d="M761.2,477.6c0,0,2.6,3.2,3.6,4c0.9,0.8,3,5.9-0.4,9.6c-3.4,3.7-0.9,4.3,0,6s-0.7,5-0.7,5s-0.1-2.7-1.2-3.7
				c-1.1-1-4-6.8-1.8-9.9C762.9,485.4,763.6,481.9,761.2,477.6z"/>
		</g>
		<g>
			<path class="st13" d="M751.6,477.6c0,0,2.6,3.2,3.6,4c0.9,0.8,3,5.9-0.4,9.6c-3.4,3.7-0.9,4.3,0,6s-0.7,5-0.7,5s-0.1-2.7-1.2-3.7
				c-1.1-1-4-6.8-1.8-9.9C753.3,485.4,754,481.9,751.6,477.6z"/>
		</g>
		<g>
			<path class="st13" d="M742.2,477.6c0,0,2.6,3.2,3.6,4c0.9,0.8,3,5.9-0.4,9.6c-3.4,3.7-0.9,4.3,0,6s-0.7,5-0.7,5s-0.1-2.7-1.2-3.7
				c-1.1-1-4-6.8-1.8-9.9C743.9,485.4,744.6,481.9,742.2,477.6z"/>
		</g>
	</g>
</g>
</svg>
