<svg width="24" height="24" viewBox="0 0 24 24" fill="none" xmlns="http://www.w3.org/2000/svg">
<path d="M21 16.5L16.3846 21L13.1538 17.85L14.5385 16.5L16.3846 18.3L19.6154 15.15L21 16.5ZM4.84615 3C3.82154 3 3 3.81 3 4.8V19.2C3 20.199 3.82154 21 4.84615 21H12.0554C11.7231 20.442 11.4923 19.83 11.3815 19.2H4.84615V4.8H11.3077V9.3H15.9231V12.972C16.2277 12.927 16.5415 12.9 16.8462 12.9C17.16 12.9 17.4646 12.927 17.7692 12.972V8.4L12.2308 3H4.84615ZM6.69231 12V13.8H14.0769V12H6.69231ZM6.69231 15.6V17.4H11.3077V15.6H6.69231Z" fill="#AEAEB2"/>
</svg>
