<svg width="24" height="24" viewBox="0 0 24 24" fill="none" xmlns="http://www.w3.org/2000/svg">
<path d="M20 19.8247L18.1618 18.0701L20 16.3155L18.7745 15.1402L16.945 16.9031L15.1154 15.1402L13.89 16.3155L15.7282 18.0701L13.89 19.8247L15.1154 21L16.945 19.2371L18.7745 21L20 19.8247ZM5.726 4C4.76807 4 4 4.74489 4 5.65531V18.8978C4 19.8165 4.76807 20.5531 5.726 20.5531H12.466C12.1553 20.0399 11.9396 19.4771 11.836 18.8978H5.726V5.65531H11.767V9.79357H16.082V13.1704C16.3668 13.129 16.6602 13.1042 16.945 13.1042C17.2384 13.1042 17.5232 13.129 17.808 13.1704V8.96592L12.63 4H5.726ZM7.452 12.2765V13.9318H14.356V12.2765H7.452ZM7.452 15.5871V17.2425H11.767V15.5871H7.452Z" fill="#AEAEB2"/>
</svg>
