<svg width="24" height="30" viewBox="0 0 24 30" fill="none" xmlns="http://www.w3.org/2000/svg">
<path d="M0 3C0 1.34314 1.34314 0 3 0H15C15.3978 0 15.7794 0.15804 16.0606 0.439335L23.5606 7.93934C23.8419 8.22065 24 8.60217 24 9V27C24 28.6569 22.6569 30 21 30H3C1.34314 30 0 28.6569 0 27V3ZM20.3787 9L15 3.62131V9H20.3787ZM12 3H3V27H21V12H13.5C12.6716 12 12 11.3284 12 10.5V3ZM12 14.25C12.8284 14.25 13.5 14.9216 13.5 15.75V19.6287L13.9394 19.1894C14.5251 18.6036 15.4749 18.6036 16.0606 19.1894C16.6464 19.7751 16.6464 20.7249 16.0606 21.3106L13.0606 24.3106C12.4749 24.8964 11.5251 24.8964 10.9394 24.3106L7.93933 21.3106C7.35355 20.7249 7.35355 19.7751 7.93933 19.1894C8.52513 18.6036 9.4749 18.6036 10.0606 19.1894L10.5 19.6287V15.75C10.5 14.9216 11.1716 14.25 12 14.25Z" fill="#BDBDBD"/>
</svg>
