<svg width="22" height="29" viewBox="0 0 22 29" fill="none" xmlns="http://www.w3.org/2000/svg">
<path d="M11.0007 3.33464C13.934 3.33464 16.334 5.73464 16.334 8.66797C16.334 11.468 13.534 16.0013 11.0007 19.2013C8.46732 15.868 5.66732 11.468 5.66732 8.66797C5.66732 5.73464 8.06732 3.33464 11.0007 3.33464ZM11.0007 0.667969C6.60065 0.667969 3.00065 4.26797 3.00065 8.66797C3.00065 14.668 11.0007 23.3346 11.0007 23.3346C11.0007 23.3346 19.0007 14.5346 19.0007 8.66797C19.0007 4.26797 15.4007 0.667969 11.0007 0.667969ZM11.0007 6.0013C9.53398 6.0013 8.33398 7.2013 8.33398 8.66797C8.33398 10.1346 9.53398 11.3346 11.0007 11.3346C12.4673 11.3346 13.6673 10.1346 13.6673 8.66797C13.6673 7.2013 12.4673 6.0013 11.0007 6.0013ZM21.6673 23.3346C21.6673 26.268 16.8673 28.668 11.0007 28.668C5.13398 28.668 0.333984 26.268 0.333984 23.3346C0.333984 21.6013 1.93398 20.1346 4.46732 19.068L5.26732 20.268C3.93398 20.9346 3.00065 21.7346 3.00065 22.668C3.00065 24.5346 6.60065 26.0013 11.0007 26.0013C15.4007 26.0013 19.0007 24.5346 19.0007 22.668C19.0007 21.7346 18.0673 20.9346 16.6007 20.268L17.4007 19.068C20.0673 20.1346 21.6673 21.6013 21.6673 23.3346Z" fill="black"/>
</svg>
