<svg width="24" height="24" viewBox="0 0 24 24" fill="none" xmlns="http://www.w3.org/2000/svg">
<path d="M19 19L13 19C12.45 19 12 19.45 12 20C12 20.55 12.45 21 13 21L19 21C20.1 21 21 20.1 21 19L21 5C21 3.9 20.1 3 19 3L13 3C12.45 3 12 3.45 12 4C12 4.55 12.45 5 13 5L19 5L19 19Z" fill="#AEAEB2"/>
<path d="M3.35 12.3495L6.14 15.1395C6.20955 15.2109 6.29883 15.26 6.39643 15.2804C6.49403 15.3008 6.5955 15.2916 6.68785 15.2541C6.78021 15.2165 6.85925 15.1522 6.91485 15.0694C6.97046 14.9867 7.00011 14.8892 7 14.7895L7 12.9995L14 12.9995C14.55 12.9995 15 12.5495 15 11.9995C15 11.4495 14.55 10.9995 14 10.9995L7 10.9995L7 9.20947C7 8.75947 6.46 8.53947 6.15 8.85947L3.36 11.6495C3.16 11.8395 3.16 12.1595 3.35 12.3495Z" fill="#AEAEB2"/>
</svg>
