<svg width="16" height="16" viewBox="0 0 16 16" fill="none" xmlns="http://www.w3.org/2000/svg">
<path d="M13.418 0.917969L0.917969 13.418L2.58464 15.0846L15.0846 2.58464L13.418 0.917969ZM3.83464 1.33464C3.17159 1.33464 2.53571 1.59803 2.06687 2.06687C1.59803 2.53571 1.33464 3.17159 1.33464 3.83464C1.33464 4.49768 1.59803 5.13356 2.06687 5.6024C2.53571 6.07124 3.17159 6.33464 3.83464 6.33464C4.49768 6.33464 5.13356 6.07124 5.6024 5.6024C6.07124 5.13356 6.33464 4.49768 6.33464 3.83464C6.33464 3.17159 6.07124 2.53571 5.6024 2.06687C5.13356 1.59803 4.49768 1.33464 3.83464 1.33464ZM12.168 9.66797C11.5049 9.66797 10.869 9.93136 10.4002 10.4002C9.93136 10.869 9.66797 11.5049 9.66797 12.168C9.66797 12.831 9.93136 13.4669 10.4002 13.9357C10.869 14.4046 11.5049 14.668 12.168 14.668C12.831 14.668 13.4669 14.4046 13.9357 13.9357C14.4046 13.4669 14.668 12.831 14.668 12.168C14.668 11.5049 14.4046 10.869 13.9357 10.4002C13.4669 9.93136 12.831 9.66797 12.168 9.66797Z" fill="#4F4F4F"/>
</svg>
