<?xml version="1.0" encoding="UTF-8"?> <!-- Generator: Adobe Illustrator 23.0.3, SVG Export Plug-In . SVG Version: 6.00 Build 0) --> <svg xmlns="http://www.w3.org/2000/svg" xmlns:xlink="http://www.w3.org/1999/xlink" id="Layer_1" x="0px" y="0px" viewBox="0 0 1080 238.8" style="enable-background:new 0 0 1080 238.8;" xml:space="preserve"> <style type="text/css"> .st0{fill:#17479D;} .st1{fill:#009ADA;} .st2{fill:#41A2D5;} .st3{fill:#FFFFFF;} </style> <g> <path class="st0" d="M70.7,67.4c-0.9-7.5,0.4-13.1,4.1-16c11.7-9.2,43.7,12.6,71.4,48.7c27.7,36.1,40.6,72.9,28.9,82.2 c-5.9,4.6-16.8,1.5-29.8-7.4c20.7,17.4,39.1,25.2,47.9,18.3c14-11.1-1.4-55.1-34.6-98.4c-33.1-43.3-71.4-69.4-85.4-58.4 C66.9,41.3,66.5,52.6,70.7,67.4"></path> <path class="st0" d="M35.9,98.1L6.2,114.4l-2.7,1.4c-2.1,1.7-3.5,4.3-3.5,7.3c0,0.5,0,0.9,0.1,1.4l1.6,4l29.6,74.2l0.3,0.8 c1.4,3.2,4.6,5.4,8.2,5.4c1,0,2-0.2,3-0.5l1-0.4l54.3-22.8c-8.7-9.5-17.4-19.8-25.9-30.9C58.5,136.3,46,117,35.9,98.1"></path> <path class="st1" d="M206.3,189.4c1.3,11-0.5,19.3-6,23.6c-13.3,10.5-44.5-6.3-76.8-39l62.2-26.1l3.1-1.3c2.5-1.6,4.1-4.5,4.1-7.7 c0-0.9-0.1-1.7-0.3-2.5l-0.9-2.2l-37.8-89l-0.8-1.9c-1.6-2.8-4.5-4.7-7.9-4.7c-0.8,0-1.6,0.1-2.3,0.3l-3.7,2L59.7,84.3 c-14.6-30.8-18.3-55.9-7.3-64.5c8.7-6.8,24.9-2.1,44,11C65.8,4.9,38.7-6.5,25.7,3.7C4.9,20.1,27.8,85.1,76.7,149 c48.9,63.9,105.4,102.4,126.1,86.1C211.9,227.9,212.6,211.2,206.3,189.4"></path> <path class="st2" d="M26.8,204.2c0.1,0.3,0.2,0.6,0.3,0.8L26.8,204.2z"></path> <path class="st2" d="M39.3,209.4l-1,0.4C38.7,209.7,39,209.6,39.3,209.4"></path> <path class="st2" d="M163.3,43.2l0.8,1.9C163.9,44.5,163.7,43.8,163.3,43.2"></path> <path class="st2" d="M149.4,40.9l3.7-2C151.7,39.3,150.5,40,149.4,40.9"></path> <path class="st2" d="M199.1,146.5l-3.1,1.3C197.1,147.6,198.1,147.1,199.1,146.5"></path> <path class="st3" d="M72.4,101.7l2.1,1.2c0.6,0.3,1,0.6,1.6,1l0,0c0-0.7,0.1-1.2,0.1-1.9l0.3-2.5l1.7-0.9l-0.8,5.7l5.2,2.9 l-1.8,0.9l-2.2-1.3c-0.6-0.3-1.1-0.7-1.7-1l0,0c0,0.7-0.1,1.3-0.2,2l-0.3,2.6l-1.7,0.9l0.8-6l-5-2.8L72.4,101.7z"></path> <path class="st3" d="M80.6,97.5l2.1,1.2c0.6,0.3,1,0.6,1.6,1l0,0c0-0.7,0.1-1.2,0.1-1.9l0.3-2.5l1.7-0.9l-0.8,5.7l5.2,2.9l-1.8,0.9 l-2.2-1.3c-0.6-0.3-1.1-0.7-1.7-1l0,0c0,0.7-0.1,1.3-0.2,2l-0.3,2.6l-1.7,0.9l0.8-6l-5-2.8L80.6,97.5z"></path> <path class="st3" d="M88.7,93.4l2.1,1.2c0.6,0.3,1,0.6,1.6,1l0,0c0-0.7,0.1-1.3,0.1-1.9l0.3-2.5l1.7-0.9L93.7,96L99,99l-1.8,0.9 L95,98.6c-0.6-0.3-1.1-0.7-1.7-1l0,0c0,0.7-0.1,1.3-0.2,2l-0.3,2.6l-1.7,0.9l0.8-6l-5-2.8L88.7,93.4z"></path> <path class="st3" d="M96.9,89.2l2.1,1.2c0.6,0.3,1,0.6,1.6,1l0,0c0-0.7,0.1-1.3,0.1-1.9l0.3-2.5l1.7-0.9l-0.8,5.7l5.2,2.9l-1.8,0.9 l-2.2-1.3c-0.6-0.3-1.1-0.7-1.7-1l0,0c0,0.7-0.1,1.3-0.2,2l-0.3,2.6l-1.7,0.9l0.8-6l-5-2.8L96.9,89.2z"></path> <path class="st3" d="M105.1,85l2.1,1.2c0.6,0.3,1,0.6,1.6,1l0,0c0-0.7,0.1-1.3,0.1-1.9l0.3-2.5l1.7-0.9l-0.8,5.7l5.2,2.9l-1.8,0.9 l-2.2-1.3c-0.6-0.3-1.1-0.7-1.7-1l0,0c0,0.7-0.1,1.3-0.2,2l-0.3,2.6l-1.7,0.9l0.8-6l-5-2.8L105.1,85z"></path> <path class="st3" d="M123.5,80.9l2.1,1.2c0.6,0.3,1,0.6,1.6,1l0,0c0-0.7,0.1-1.3,0.1-1.9l0.3-2.5l1.7-0.9l-0.8,5.7l5.2,2.9 l-1.8,0.9l-2.2-1.3c-0.6-0.3-1.1-0.7-1.7-1l0,0c0,0.7-0.1,1.3-0.2,2l-0.3,2.6l-1.7,0.9l0.8-6l-5-2.8L123.5,80.9z"></path> <path class="st3" d="M131.7,76.7l2.1,1.2c0.6,0.3,1,0.6,1.6,1l0,0c0-0.7,0.1-1.3,0.1-1.9l0.3-2.5l1.7-0.9l-0.8,5.7l5.2,2.9 l-1.8,0.9l-2.2-1.3c-0.6-0.3-1.1-0.7-1.7-1l0,0c0,0.7-0.1,1.3-0.2,2l-0.3,2.6l-1.7,0.9l0.8-6l-5-2.8L131.7,76.7z"></path> <path class="st3" d="M139.8,72.5l2.1,1.2c0.6,0.3,1,0.6,1.6,1l0,0c0-0.7,0.1-1.3,0.1-1.9l0.3-2.5l1.7-0.9l-0.8,5.7l5.2,2.9 l-1.8,0.9l-2.2-1.3c-0.6-0.3-1.1-0.7-1.7-1l0,0c0,0.7-0.1,1.3-0.2,2l-0.3,2.6l-1.7,0.9l0.8-6l-5-2.8L139.8,72.5z"></path> <path class="st3" d="M148,68.4l2.1,1.2c0.6,0.3,1,0.6,1.6,1l0,0c0-0.7,0.1-1.2,0.1-1.9l0.3-2.5l1.7-0.9l-0.8,5.7l5.2,2.9l-1.8,0.9 l-2.2-1.3c-0.6-0.3-1.1-0.7-1.7-1l0,0c0,0.7-0.1,1.3-0.2,2l-0.3,2.6l-1.7,0.9l0.8-6l-5-2.8L148,68.4z"></path> <polygon class="st3" points="144.8,130.9 143,132.8 143.6,133.6 145,132.1 145.1,132.1 148,139.5 149.4,139 146,130.4 "></polygon> <polygon class="st3" points="152.8,127.6 151,129.5 151.6,130.3 153.1,128.8 153.1,128.8 156.1,136.2 157.4,135.7 154,127.1 "></polygon> <polygon class="st3" points="164.2,123 162.3,124.9 162.9,125.7 164.4,124.1 164.4,124.1 167.4,131.6 168.7,131 165.3,122.5 "></polygon> <path class="st3" d="M172.6,120.4c-1.1,0.5-1.6,1.7-1.1,2.9c0.4,1.1,1.5,1.5,2.7,1c0.9-0.4,1.5-1.1,1.7-1.7c0-0.1,0-0.3,0-0.5 C175.2,120.6,174.1,119.8,172.6,120.4L172.6,120.4z M172.9,128.4c0.3-0.1,0.6-0.3,1.1-0.5c0.8-0.4,1.4-1,1.8-1.7 c0.5-0.8,0.7-1.7,0.4-2.8l0,0c-0.3,0.8-1,1.5-2,1.9c-1.8,0.8-3.5,0.1-4-1.4c-0.6-1.6,0.2-3.6,2.3-4.5c2.1-0.9,3.9,0,4.8,2.2 c0.8,1.9,0.5,3.5-0.1,4.7c-0.5,1-1.5,1.8-2.5,2.4c-0.5,0.3-0.9,0.5-1.2,0.6L172.9,128.4z"></path> <path class="st3" d="M34.8,163.4l-1.2-2.5c-0.2-0.4-0.4-0.8-0.5-1.2l0,0c-0.1,0.6-0.2,1-0.3,1.5l-1.3,3.8l0,0L34.8,163.4z M36.1,166.3l-1-2.1l-4.7,2.2l-0.3-0.7l2.3-7l1.5-0.7l2.2,4.7l1.4-0.7l0.4,0.8l-1.4,0.7l1,2.1L36.1,166.3z"></path> <path class="st3" d="M42.9,159.6l-1.2-2.5c-0.2-0.4-0.4-0.8-0.5-1.2l0,0c-0.1,0.6-0.2,1-0.3,1.5l-1.3,3.8l0,0L42.9,159.6z M44.2,162.4l-1-2.1l-4.7,2.2l-0.3-0.7l2.3-7l1.5-0.7l2.2,4.7l1.4-0.7l0.4,0.8l-1.4,0.7l0.9,2.1L44.2,162.4z"></path> <path class="st3" d="M51.2,158.4c1.2-0.6,1.6-1.7,1.2-2.8c-0.5-1.1-1.6-1.3-2.9-0.7c-0.8,0.4-1.4,1.1-1.6,1.9c0,0.2,0,0.3,0.1,0.5 C48.5,158.5,49.7,159.1,51.2,158.4L51.2,158.4z M50.7,151c-0.3,0.1-0.6,0.3-1,0.5c-2.1,1.3-2.7,3-2.3,4.4l0.1,0 c0.3-0.7,0.9-1.5,2.1-2c1.8-0.8,3.5-0.5,4.2,1c0.6,1.4,0,3.3-2.2,4.3c-2.2,1-4.2,0.4-5.1-1.5c-0.7-1.5-0.5-3,0.2-4.2 c0.6-1,1.5-1.9,2.8-2.7c0.4-0.2,0.7-0.4,1-0.5L50.7,151z"></path> <path class="st3" d="M56.1,156.8l-0.3-0.6l0.7-1.3c1.8-3.1,2.5-4.6,2-5.8c-0.4-0.8-1.2-1.2-2.7-0.5c-0.9,0.4-1.5,1.1-1.9,1.7 l-0.8-0.5c0.5-0.8,1.4-1.6,2.5-2.1c2.2-1,3.7-0.4,4.2,0.7c0.6,1.4-0.2,3.2-1.7,5.7l-0.6,0.9l0,0l4.6-2.2l0.4,0.8L56.1,156.8z"></path> <polygon class="st3" points="99.8,127 100.2,127.8 105.2,125.4 105.2,125.5 103.8,134.3 105.3,133.6 106.6,124.6 106.2,123.9 "></polygon> <path class="st3" d="M111.3,122.3c-1.2,0.5-1.6,1.7-1.1,2.8c0.4,0.9,1.5,1.2,2.7,0.7c0.9-0.4,1.5-1.1,1.6-1.8c0-0.1,0-0.3,0-0.4 C113.8,122.3,112.7,121.6,111.3,122.3L111.3,122.3z M111.6,129.7c0.3-0.1,0.7-0.3,1.1-0.6c0.8-0.5,1.4-1.1,1.8-1.8 c0.5-0.8,0.6-1.7,0.4-2.7l-0.1,0c-0.3,0.8-1,1.5-2,2c-1.8,0.9-3.5,0.4-4.1-0.9c-0.7-1.4,0.2-3.3,2.3-4.3c2.1-1,4-0.3,4.9,1.6 c0.8,1.7,0.5,3.2-0.1,4.4c-0.5,0.9-1.5,1.8-2.5,2.4c-0.5,0.3-0.9,0.5-1.2,0.7L111.6,129.7z"></path> <path class="st3" d="M129.6,118.5c-1.2,0.5-1.6,1.7-1.2,2.8c0.4,0.9,1.5,1.2,2.7,0.7c0.9-0.4,1.5-1.1,1.6-1.8c0-0.1,0-0.3,0-0.4 C132.2,118.5,131.1,117.8,129.6,118.5L129.6,118.5z M130,125.9c0.3-0.1,0.7-0.3,1.1-0.6c0.8-0.5,1.4-1.1,1.8-1.7 c0.5-0.8,0.6-1.7,0.4-2.7l-0.1,0c-0.3,0.8-1,1.5-2,2c-1.8,0.9-3.5,0.4-4.1-0.9c-0.7-1.4,0.2-3.3,2.3-4.3c2.1-1,4-0.3,4.9,1.6 c0.8,1.7,0.5,3.2-0.1,4.4c-0.5,0.9-1.5,1.8-2.5,2.4c-0.5,0.3-0.9,0.5-1.2,0.7L130,125.9z"></path> <polygon class="st3" points="137.2,114.1 135.4,116 136,116.7 137.5,115.2 137.5,115.1 140.6,121.8 141.9,121.1 138.4,113.5 "></polygon> <polygon class="st3" points="148.7,108.7 146.8,110.7 147.4,111.3 148.9,109.8 148.9,109.7 152,116.4 153.3,115.8 149.8,108.2 "></polygon> <polygon class="st3" points="156.7,104.9 154.9,106.9 155.5,107.5 157,106 157,105.9 160.1,112.6 161.4,111.9 157.9,104.3 "></polygon> <g> <path class="st1" d="M229.8,180.9v-72.7c0-10.7,3.3-19.3,10-26c6.7-6.6,14.7-9.9,24.1-9.9c8.8,0,16.5,2.8,23,8.3 c7.5,6.5,11.3,15.1,11.3,25.9c0,10-3.1,18.2-9.3,24.8c-5.6,6-12,9-19.1,9h-20.2v-13.4h15.4c7.1,0,12.3-2.7,15.6-8 c2.3-3.6,3.4-7.8,3.4-12.5c0-5.2-1.2-9.6-3.7-13.2c-3.5-5.1-8.9-7.6-16.4-7.6c-7.4,0-12.8,2.7-16.2,8.2c-2.5,4.1-3.7,9-3.7,14.7 v72.4H229.8z"></path> <path class="st1" d="M363,180.9v-42.2c0-5.7-2.1-10.4-6.4-14.1c-4.3-3.7-10.1-5.5-17.3-5.5c-5.7,0-10.7,1.7-15,5.1 c-5.7,4.4-8.5,10.9-8.5,19.6c0,7.9,2.4,14.3,7.3,19.2c4.5,4.5,9.9,6.7,16.2,6.7c6.9,0,13.1-3.4,18.5-10.2v16.1 c-3.9,2.5-6.6,4.1-7.9,4.8c-3.2,1.4-7.1,2.1-11.7,2.1c-9.3,0-17.5-3.4-24.4-10.2c-7.5-7.4-11.3-16.9-11.3-28.5 c0-10.8,3.2-19.5,9.5-26.3c6.8-7.4,16.3-11.2,28.5-11.2c11.3,0,20.3,3.4,27,10.2c6.1,6.2,9.2,14,9.2,23.4v41.1L363,180.9z"></path> <path class="st1" d="M390.1,107.4h13.2v43.7c0,5.3,1.1,9.5,3.4,12.5c2.8,3.8,7.2,5.6,13.2,5.6c5.3,0,9.4-1.7,12.3-5.2 c2.9-3.4,4.3-7.7,4.3-12.7v-44h13.6v43.7c0,7.4-1.8,13.8-5.4,19c-4,5.9-10,9.9-18.1,12v31.2h-13.6v-31.2 c-7.1-2.1-12.5-5.1-16.4-9.2c-4.5-4.8-6.7-10.9-6.7-18.3V107.4z"></path> <path class="st1" d="M464.9,180.9v-50.3c0-6.6,2.5-12.3,7.5-17.2c4.9-4.8,11.4-7.1,19.5-7.1c4.8,0,9.1,1.2,12.8,3.6 c2.5,1.6,4.9,3.9,7.1,6.7c2-2.9,4.7-5.3,8.1-7.1c4-2.1,8.6-3.2,13.7-3.2c6.8,0,12.7,2.4,17.7,7.1c5,4.8,7.6,10.6,7.6,17.2v50.3 h-13.3l-0.1-46.2c0-4.1-0.8-7.5-2.5-10.3c-2.3-3.6-5.8-5.4-10.4-5.4c-5,0-8.7,1.7-11.2,5.2c-1.9,2.6-2.9,6.1-2.9,10.5v46.2H505 l-0.1-45.3c0-5-1.1-9-3.4-12c-2.3-3-5.6-4.6-9.9-4.6c-5.3,0-9,1.9-11,5.7c-1.6,2.8-2.4,6.8-2.4,11.9v44.3H464.9z"></path> <path class="st1" d="M588.7,146l35.9-20.2c-2.1-2.1-3.8-3.5-5.1-4.2c-3.1-1.7-7-2.6-11.7-2.6c-7.2,0-13,2.8-17.3,8.3 c-3.9,5-5.9,11.1-5.9,18.3c0,6.3,2.1,11.8,6.2,16.4c4.5,5.1,10.4,7.6,17.6,7.6c7.3,0,12.8-2,16.6-6.1c3.4-3.5,5.9-9.2,7.3-16.9 l13.3,1.9c0,7.9-3.2,15.2-9.5,22c-7.5,8.1-17.1,12.2-28.8,12.2c-9.8,0-18.3-3.6-25.7-10.8c-7.3-7.2-11-15.8-11-25.9 c0-12.7,4.1-22.8,12.4-30.2c7.1-6.4,15.3-9.6,24.6-9.6c8.2,0,15.1,1.9,20.8,5.7c5.6,3.9,10.4,9.7,14.5,17.6l-48.7,27.4L588.7,146z "></path> <path class="st1" d="M656.6,180.9v-44.6c0-8.4,3-15.6,9-21.5c6-5.9,13.4-8.9,22.1-8.9c6.9,0,13.4,2.3,19.2,6.8 c7.7,5.9,11.6,14.1,11.6,24.7v43.4h-13.3v-43.1c0-5.2-1.6-9.6-4.9-13.4c-3.3-3.8-7.5-5.6-12.6-5.6c-4.9,0-9,1.8-12.5,5.4 c-3.4,3.6-5.1,7.7-5.1,12.5v44.3H656.6z"></path> <path class="st1" d="M733.8,158V89.1h13.1v18.6h25.9v12.8h-25.9v40c0,2,0.8,3.8,2.4,5.2c1.5,1.5,3.9,2.3,7,2.3h16.4v12.8H756 c-7.7,0-13.5-2.3-17.2-6.8C735.5,170,733.8,164.7,733.8,158z"></path> <path class="st0" d="M788,168.4h36.2l1.1,0.3c2.5-0.3,4.3-0.7,5.4-1.2c2.1-1.1,3.2-2.9,3.2-5.4c0-3.9-3.8-7.1-11.4-9.6 c-6-1.7-10.6-3.1-13.9-4.1c-7.1-2.5-12.2-5.1-15.2-7.8c-3.6-3.2-5.4-7.6-5.4-13.1c0-7.2,2.7-12.5,8.2-15.8 c4.2-2.5,9.7-3.8,16.4-3.8h31.1v12.8h-33.7c-5.5,0-8.3,2.2-8.3,6.5c0.3,2.9,2.9,5.4,7.9,7.3c1.6,0.6,6.2,1.9,13.9,3.8 c8.5,2.5,14.7,5.7,18.5,9.6c3.5,3.7,5.3,8.3,5.3,13.9c0,7.5-2.9,12.8-8.6,16c-3.7,2-8.7,3-14.9,3h-4.5H788V168.4z"></path> <path class="st0" d="M914.5,180.9v-42.2c0-5.7-2.1-10.4-6.4-14.1c-4.3-3.7-10.1-5.5-17.3-5.5c-5.7,0-10.7,1.7-15,5.1 c-5.7,4.4-8.5,10.9-8.5,19.6c0,7.9,2.4,14.3,7.3,19.2c4.5,4.5,9.9,6.7,16.2,6.7c6.9,0,13.1-3.4,18.5-10.2v16.1 c-3.9,2.5-6.6,4.1-7.9,4.8c-3.2,1.4-7.1,2.1-11.7,2.1c-9.3,0-17.5-3.4-24.3-10.2c-7.5-7.4-11.3-16.9-11.3-28.5 c0-10.8,3.2-19.5,9.5-26.3c6.8-7.4,16.3-11.2,28.5-11.2c11.3,0,20.3,3.4,27,10.2c6.1,6.2,9.2,14,9.2,23.4v41.1L914.5,180.9z"></path> <path class="st0" d="M931.8,107.7h14.5l21.2,56.8l21-56.8h14.1l-25.2,67.8c-1.9,4.6-5.3,6.9-10.2,6.9c-2.3,0-4.4-0.7-6.3-2.2 c-2-1.3-3.3-3.2-4-5.7L931.8,107.7z"></path> <path class="st0" d="M1023,146l35.9-20.2c-2.1-2.1-3.8-3.5-5.1-4.2c-3.1-1.7-7-2.6-11.7-2.6c-7.2,0-13,2.8-17.3,8.3 c-3.9,5-5.9,11.1-5.9,18.3c0,6.3,2.1,11.8,6.2,16.4c4.5,5.1,10.4,7.6,17.6,7.6c7.3,0,12.8-2,16.7-6.1c3.4-3.5,5.9-9.2,7.3-16.9 l13.3,1.9c0,7.9-3.1,15.2-9.5,22c-7.5,8.1-17.1,12.2-28.8,12.2c-9.8,0-18.3-3.6-25.7-10.8c-7.3-7.2-11-15.8-11-25.9 c0-12.7,4.1-22.8,12.4-30.2c7.1-6.4,15.3-9.6,24.6-9.6c8.2,0,15.1,1.9,20.8,5.7c5.6,3.9,10.4,9.7,14.4,17.6l-48.7,27.4L1023,146z"></path> </g> </g> </svg> 