<svg width="24" height="24" viewBox="0 0 24 24" fill="none" xmlns="http://www.w3.org/2000/svg">
<path d="M12.7359 4H6.54719C6.13685 4 5.74332 4.16747 5.45316 4.46556C5.16301 4.76366 5 5.16796 5 5.58953V18.3058C5 18.7273 5.16301 19.1316 5.45316 19.4297C5.74332 19.7278 6.13685 19.8953 6.54719 19.8953H11.9624C11.6452 19.6966 11.3435 19.4502 11.0805 19.18C10.8252 18.9177 10.6086 18.6237 10.4152 18.3058H6.54719V5.58953H11.9624V9.56335H15.8303V10.5012C16.3796 10.6283 16.9056 10.8429 17.3775 11.1529V8.76858L12.7359 4ZM17.6173 17.4315C18.6462 15.7546 18.1511 13.5372 16.5343 12.4881C14.902 11.431 12.7359 11.9476 11.7225 13.6007C10.6859 15.2777 11.1888 17.4871 12.8056 18.5442C13.935 19.2833 15.3739 19.2833 16.5111 18.5601L18.9247 21L20 19.8953L17.6173 17.4315ZM14.6699 17.511C14.157 17.511 13.6651 17.3017 13.3024 16.929C12.9397 16.5564 12.7359 16.051 12.7359 15.5241C12.7359 14.9971 12.9397 14.4917 13.3024 14.1191C13.6651 13.7465 14.157 13.5372 14.6699 13.5372C15.1829 13.5372 15.6748 13.7465 16.0375 14.1191C16.4002 14.4917 16.6039 14.9971 16.6039 15.5241C16.6039 16.051 16.4002 16.5564 16.0375 16.929C15.6748 17.3017 15.1829 17.511 14.6699 17.511Z" fill="#AEAEB2"/>
</svg>
