<?xml version="1.0" encoding="iso-8859-1"?>
<!-- Generator: Adobe Illustrator 19.0.0, SVG Export Plug-In . SVG Version: 6.00 Build 0)  -->
<svg version="1.1" id="Capa_1" xmlns="http://www.w3.org/2000/svg" xmlns:xlink="http://www.w3.org/1999/xlink" x="0px" y="0px"
	 viewBox="0 0 512 512" style="enable-background:new 0 0 512 512;" xml:space="preserve">
<circle style="fill:#D2F0FF;" cx="256" cy="256" r="256"/>
<path style="fill:#73C8F0;" d="M511.199,235.688l-98.976-98.976H300.597l-23.711-23.711l0,0L99.777,144.074v221.852l0,0
	l145.847,145.847C249.068,511.911,252.523,512,256,512c141.385,0,256-114.615,256-256C512,249.163,511.725,242.39,511.199,235.688z"
	/>
<g>
	<polygon style="fill:#1E73BE;" points="276.886,396.999 99.777,365.926 99.777,144.074 276.886,113.001 	"/>
	<rect x="287.62" y="136.71" style="fill:#1E73BE;" width="124.6" height="220.89"/>
</g>
<g>
	<path style="fill:#FFFFFF;" d="M356.85,169.326l-33.752,33.752h-35.476v9.369h35.476l26.725,26.725v50.052h-14.445v-32.012h-47.756
		v14.054h33.702v49.97h-33.702v14.054h47.756v-32.012h28.499v-64.105l31.41-31.41L356.85,169.326z M356.85,226.324l-18.562-18.561
		l18.562-18.562l18.561,18.562L356.85,226.324z"/>
	<polygon style="fill:#FFFFFF;" points="187.084,284.636 163.382,203.56 145.495,203.56 179.923,310.759 194.235,310.759 
		228.421,203.56 210.525,203.56 	"/>
</g>
<g>
</g>
<g>
</g>
<g>
</g>
<g>
</g>
<g>
</g>
<g>
</g>
<g>
</g>
<g>
</g>
<g>
</g>
<g>
</g>
<g>
</g>
<g>
</g>
<g>
</g>
<g>
</g>
<g>
</g>
</svg>
